<?xml version="1.0" standalone="no"?>
<!DOCTYPE svg PUBLIC "-//W3C//DTD SVG 20010904//EN"
 "http://www.w3.org/TR/2001/REC-SVG-20010904/DTD/svg10.dtd">
<svg version="1.0" xmlns="http://www.w3.org/2000/svg"
 width="29.000000pt" height="26.000000pt" viewBox="0 0 29.000000 26.000000"
 preserveAspectRatio="xMidYMid meet">

<g transform="translate(0.000000,26.000000) scale(0.100000,-0.100000)"
fill="#000000" stroke="none">
<path d="M70 235 c0 -9 -9 -15 -24 -15 -28 0 -54 -26 -39 -41 6 -6 65 -8 144
-7 126 3 134 4 134 23 0 14 -8 21 -27 23 -16 2 -28 9 -28 18 0 8 -9 14 -20 14
-11 0 -20 -7 -20 -15 0 -11 -11 -15 -40 -15 -29 0 -40 4 -40 15 0 8 -9 15 -20
15 -11 0 -20 -7 -20 -15z"/>
<path d="M0 98 c0 -35 4 -69 8 -76 7 -9 42 -12 143 -10 l134 3 3 73 3 72 -146
0 -145 0 0 -62z m88 15 c2 -8 -5 -13 -17 -13 -12 0 -21 6 -21 16 0 18 31 15
38 -3z m80 0 c2 -8 -5 -13 -17 -13 -12 0 -21 6 -21 16 0 18 31 15 38 -3z m82
2 c0 -8 -9 -15 -20 -15 -11 0 -20 7 -20 15 0 8 9 15 20 15 11 0 20 -7 20 -15z
m-162 -62 c2 -8 -5 -13 -17 -13 -12 0 -21 6 -21 16 0 18 31 15 38 -3z m80 0
c2 -8 -5 -13 -17 -13 -12 0 -21 6 -21 16 0 18 31 15 38 -3z m80 0 c2 -8 -5
-13 -17 -13 -12 0 -21 6 -21 16 0 18 31 15 38 -3z"/>
</g>
</svg>
