<?xml version="1.0" standalone="no"?>
<!DOCTYPE svg PUBLIC "-//W3C//DTD SVG 20010904//EN"
 "http://www.w3.org/TR/2001/REC-SVG-20010904/DTD/svg10.dtd">
<svg version="1.0" xmlns="http://www.w3.org/2000/svg"
 width="250.000000pt" height="250.000000pt" viewBox="0 0 250.000000 250.000000"
 preserveAspectRatio="xMidYMid meet">

<g transform="translate(0.000000,250.000000) scale(0.100000,-0.100000)"
fill="#000000" stroke="none">
<path d="M1127 1780 c-244 -44 -494 -192 -708 -418 -49 -52 -89 -103 -89 -113
0 -27 207 -232 314 -312 109 -80 260 -157 381 -193 78 -24 107 -27 225 -27
118 0 146 3 225 27 116 35 253 102 363 179 86 61 342 306 342 328 0 21 -255
264 -342 326 -111 78 -248 145 -363 178 -99 29 -263 41 -348 25z m276 -130
c31 -12 79 -39 106 -60 209 -166 228 -455 42 -641 -172 -171 -431 -170 -604 2
-168 168 -168 430 1 598 96 96 187 133 317 127 50 -3 102 -12 138 -26z m-638
-157 c-44 -109 -48 -130 -48 -243 -1 -100 3 -124 26 -185 14 -38 24 -71 22
-73 -7 -7 -129 92 -215 175 l-85 82 60 61 c63 65 224 199 239 200 4 0 5 -8 1
-17z m1062 -50 c43 -34 107 -92 143 -128 l65 -66 -85 -82 c-84 -81 -208 -183
-215 -176 -2 2 9 38 23 79 23 64 26 91 26 185 -1 107 -6 131 -50 239 -11 27 4
19 93 -51z"/>
<path d="M1157 1526 c-94 -35 -164 -110 -188 -201 -17 -60 -6 -152 24 -212 84
-165 310 -206 452 -81 62 55 87 107 93 194 8 127 -46 227 -152 281 -62 32
-170 41 -229 19z m289 -78 c6 -1 11 -6 12 -12 1 -6 5 -28 8 -48 15 -92 -120
-125 -156 -38 -10 24 -10 36 0 60 20 48 41 54 136 38z m-122 -150 c15 -24 -3
-52 -37 -56 -33 -4 -53 28 -37 59 14 25 58 23 74 -3z"/>
</g>
</svg>
