<?xml version="1.0" standalone="no"?>
<!DOCTYPE svg PUBLIC "-//W3C//DTD SVG 20010904//EN"
 "http://www.w3.org/TR/2001/REC-SVG-20010904/DTD/svg10.dtd">
<svg version="1.0" xmlns="http://www.w3.org/2000/svg"
 width="500.000000pt" height="500.000000pt" viewBox="0 0 500.000000 500.000000"
 preserveAspectRatio="xMidYMid meet">

<g transform="translate(0.000000,500.000000) scale(0.100000,-0.100000)"
fill="#000000" stroke="none">
<path d="M1775 3359 c-298 -60 -1080 -301 -1300 -400 l-50 -23 80 -8 c124 -12
120 -15 -20 -14 l-130 1 -3 -62 c-3 -56 -1 -63 20 -74 62 -32 86 -72 112 -191
4 -18 15 -30 30 -34 21 -5 26 -16 40 -94 50 -273 153 -484 287 -587 72 -55
211 -120 302 -140 105 -24 238 -21 308 6 69 27 140 94 178 170 34 68 71 181
71 216 0 17 7 28 23 34 31 12 60 58 53 84 -3 11 -1 29 5 39 13 25 -3 53 -39
66 -25 9 -30 16 -35 58 -5 41 -2 52 16 71 21 22 24 22 71 8 27 -8 94 -18 148
-22 l99 -6 20 -39 c11 -21 23 -38 28 -38 4 0 11 -39 15 -86 19 -231 125 -462
286 -625 132 -133 260 -187 496 -210 134 -13 237 -5 340 28 108 34 193 127
230 252 23 79 44 240 44 348 0 76 3 94 17 102 11 6 22 33 30 78 10 54 18 73
43 96 17 15 38 27 48 27 42 0 236 71 341 125 165 84 364 221 475 326 53 50 96
84 96 76 0 -8 -14 -61 -30 -118 -31 -104 -33 -174 -9 -220 11 -21 49 -31 54
-16 7 21 45 385 45 431 0 58 -8 76 -32 76 -23 0 -135 -103 -148 -136 -16 -40
-257 -203 -382 -258 -78 -34 -210 -76 -233 -73 -15 2 -19 -3 -17 -20 3 -19 -1
-23 -25 -23 -33 0 -222 22 -488 56 -316 42 -462 54 -645 54 -263 0 -444 -35
-533 -103 -45 -34 -109 -42 -225 -27 -100 13 -133 26 -166 68 -53 67 -228 153
-406 200 -170 45 -456 92 -564 92 -68 0 -87 12 -54 34 70 46 561 218 783 274
391 99 446 106 536 74 95 -33 241 -135 418 -292 108 -95 127 -103 181 -75 24
13 30 22 30 49 0 43 -11 52 -155 129 -67 35 -172 97 -235 137 -178 113 -225
132 -334 136 -50 2 -113 -2 -141 -7z m-738 -505 c-3 -3 -12 -4 -19 -1 -8 3 -5
6 6 6 11 1 17 -2 13 -5z m11 -45 c155 -25 265 -58 369 -109 112 -55 173 -116
225 -226 l40 -86 -5 -137 c-14 -388 -154 -550 -443 -511 -159 21 -312 84 -405
168 -100 90 -182 248 -233 449 -30 117 -43 237 -29 255 6 7 13 32 16 56 7 54
36 110 70 136 53 39 171 41 395 5z m1837 -204 c173 -18 288 -46 383 -92 122
-60 161 -120 192 -298 18 -103 19 -133 10 -244 -26 -346 -115 -460 -384 -492
-171 -20 -394 18 -531 89 -122 64 -258 217 -326 368 -36 78 -36 83 -3 47 14
-15 10 -6 -10 21 -36 49 -46 73 -24 60 7 -5 9 -2 5 8 -24 65 -30 98 -17 113
18 21 47 19 60 -6 8 -15 8 -24 0 -34 -13 -16 -4 -59 16 -76 11 -9 21 -9 41 0
19 9 28 9 33 1 4 -6 6 11 6 37 -1 44 -4 49 -33 62 -35 16 -52 46 -34 64 15 15
14 27 -2 27 -15 0 -81 -33 -103 -51 -8 -6 -17 -9 -21 -6 -3 4 -8 48 -11 100
-4 85 -2 97 21 143 14 28 38 65 52 82 28 34 106 67 188 81 84 14 341 12 492
-4z m-1127 -310 c-3 -3 -9 2 -12 12 -6 14 -5 15 5 6 7 -7 10 -15 7 -18z"/>
</g>
</svg>
