<?xml version="1.0" standalone="no"?>
<!DOCTYPE svg PUBLIC "-//W3C//DTD SVG 20010904//EN"
 "http://www.w3.org/TR/2001/REC-SVG-20010904/DTD/svg10.dtd">
<svg version="1.0" xmlns="http://www.w3.org/2000/svg"
 width="29.000000pt" height="25.000000pt" viewBox="0 0 29.000000 25.000000"
 preserveAspectRatio="xMidYMid meet">

<g transform="translate(0.000000,25.000000) scale(0.100000,-0.100000)"
fill="#000000" stroke="none">
<path d="M65 186 c-57 -52 -68 -67 -57 -77 10 -11 23 -2 72 46 l59 58 62 -57
c43 -40 65 -54 72 -47 8 8 4 18 -11 34 -15 16 -22 36 -22 65 0 35 -3 42 -20
42 -14 0 -20 -7 -20 -21 l0 -20 -29 20 c-16 12 -31 21 -33 21 -1 0 -34 -29
-73 -64z"/>
<path d="M92 144 c-40 -34 -42 -38 -42 -90 l0 -55 33 3 c28 3 32 7 35 36 2 23
8 32 22 32 14 0 20 -9 22 -32 3 -30 6 -33 38 -33 34 0 35 1 38 44 3 40 0 48
-39 87 -24 24 -48 44 -54 44 -6 0 -30 -16 -53 -36z"/>
</g>
</svg>
