<?xml version="1.0" standalone="no"?>
<!DOCTYPE svg PUBLIC "-//W3C//DTD SVG 20010904//EN"
 "http://www.w3.org/TR/2001/REC-SVG-20010904/DTD/svg10.dtd">
<svg version="1.0" xmlns="http://www.w3.org/2000/svg"
 width="456.000000pt" height="567.000000pt" viewBox="0 0 456.000000 567.000000"
 preserveAspectRatio="xMidYMid meet">

<g transform="translate(0.000000,567.000000) scale(0.100000,-0.100000)"
fill="#000000" stroke="none">
<path d="M4550 5062 l0 -609 -25 -23 c-18 -17 -22 -26 -13 -31 7 -4 17 -4 23
1 7 6 9 -5 6 -33 -2 -23 -9 -45 -15 -49 -8 -6 -7 -8 2 -8 6 0 12 -11 12 -25 0
-14 -4 -25 -10 -25 -9 0 -8 -47 4 -117 6 -34 -9 -44 -31 -22 -7 7 -12 1 -16
-20 -4 -16 -15 -35 -27 -41 -18 -9 -20 -8 -20 15 0 18 -5 25 -20 25 -13 0 -20
-7 -20 -20 0 -15 -7 -20 -25 -20 l-25 0 20 41 c12 23 19 47 16 55 -3 9 -1 12
5 9 6 -4 26 -4 44 -1 29 6 35 12 41 41 3 19 10 35 15 35 17 0 9 28 -12 42 -16
10 -20 20 -15 36 4 13 12 19 18 16 7 -4 8 -2 4 5 -4 6 0 18 9 27 9 9 14 19 11
22 -7 6 -36 -18 -36 -30 0 -5 -20 -33 -43 -61 -48 -56 -178 -224 -191 -245 -6
-10 16 -13 116 -11 l123 1 0 -1043 0 -1044 -740 0 -740 0 -5 185 c-3 102 -7
165 -8 140 -2 -47 -34 -110 -46 -91 -10 16 -23 13 -30 -6 -3 -10 -9 -24 -12
-30 -4 -8 2 -13 16 -13 34 0 18 -25 -18 -28 -40 -4 -41 -18 -2 -27 42 -9 37
-25 -7 -25 -31 0 -40 -5 -50 -25 -11 -24 -1 -36 12 -14 13 20 28 3 30 -34 2
-20 -1 -35 -5 -32 -5 3 -11 1 -14 -4 -4 -5 -2 -12 4 -16 23 -14 8 -23 -17 -9
-32 16 -67 19 -58 4 3 -6 -1 -7 -9 -4 -15 6 -20 18 -17 38 1 4 -6 14 -16 21
-10 7 -15 17 -11 21 4 4 14 1 22 -5 18 -15 60 3 53 22 -5 15 -37 22 -37 8 0
-5 8 -11 18 -13 16 -3 16 -4 -1 -11 -12 -4 -24 1 -39 18 -25 29 -34 31 -42 9
-4 -11 -2 -15 8 -11 12 5 13 1 7 -15 -4 -12 -16 -23 -26 -24 -10 -1 -22 -7
-28 -13 -6 -6 5 -7 33 -4 31 4 41 3 36 -5 -4 -7 -24 -12 -44 -12 -35 -1 -36
-1 -17 -16 12 -9 19 -24 17 -36 -3 -13 1 -19 10 -16 7 3 12 15 10 26 -2 17 1
20 13 16 9 -4 13 -10 8 -13 -15 -11 -13 -31 2 -31 8 0 14 5 12 12 -1 7 8 13
20 14 13 1 29 7 38 14 8 7 15 11 16 9 9 -40 -1 -64 -16 -39 -3 5 -11 10 -16
10 -6 0 -8 -4 -4 -9 3 -5 -9 -14 -27 -20 -38 -12 -119 6 -126 29 -3 8 0 10 8
5 8 -5 11 -2 8 9 -6 30 -20 22 -59 -30 l-37 -51 26 2 c19 1 28 8 33 25 4 14 7
20 8 14 1 -11 39 -23 87 -27 13 -1 19 -7 17 -14 -3 -9 4 -13 22 -13 23 0 25
-2 11 -15 -8 -8 -21 -15 -28 -15 -10 0 -10 -2 1 -9 12 -8 12 -12 2 -24 -12
-16 1 -33 17 -23 5 3 9 -1 9 -8 0 -8 -7 -12 -15 -8 -9 3 -13 1 -10 -4 7 -10
-89 -10 -129 1 -23 5 -25 4 -21 -19 3 -15 1 -26 -6 -26 -7 0 -7 -3 -1 -8 15
-11 17 -32 2 -32 -8 0 -7 -4 3 -11 13 -9 13 -10 0 -6 -10 2 -17 22 -22 58 -3
29 -11 55 -17 57 -6 2 -11 10 -11 18 0 8 -5 14 -11 14 -6 0 -9 -7 -6 -14 4
-10 1 -13 -9 -9 -10 4 -17 -2 -21 -16 -3 -11 -9 -19 -13 -16 -18 11 -60 -15
-61 -37 -1 -21 -2 -21 -12 5 -10 24 -16 27 -59 27 l-48 0 0 -55 c0 -30 5 -55
10 -55 6 0 10 18 10 39 0 22 5 43 10 46 6 4 10 -11 10 -39 0 -42 2 -45 32 -52
18 -4 38 -7 43 -5 6 1 -1 -9 -14 -23 -14 -14 -19 -26 -13 -26 6 0 9 -7 6 -15
-4 -10 0 -15 15 -15 14 0 21 -6 21 -20 0 -13 -7 -20 -20 -20 -11 0 -20 -7 -20
-15 0 -8 5 -15 10 -15 6 0 10 -8 8 -17 -2 -12 4 -19 20 -21 12 -2 22 -7 22
-11 0 -7 -63 -7 -135 -1 -5 0 -2 5 8 11 13 8 15 14 7 30 -6 11 -15 17 -21 13
-5 -3 -16 0 -24 6 -13 10 -15 8 -15 -12 0 -31 -26 -54 -63 -56 -39 -3 -47 -9
-47 -40 0 -15 -4 -33 -9 -40 -11 -17 3 -100 19 -115 9 -9 11 -9 6 0 -4 7 6 14
26 18 18 4 37 13 41 19 6 7 7 5 4 -5 -6 -18 37 -44 54 -34 5 4 9 1 9 -5 0 -7
-30 -10 -90 -8 -49 2 -90 7 -90 12 0 4 -12 0 -28 -9 -27 -18 -27 -18 -9 2 24
27 23 63 -3 63 -14 0 -20 -7 -20 -23 0 -12 -6 -31 -14 -42 -7 -11 -14 -27 -14
-35 -1 -8 -4 -31 -8 -50 -4 -26 -3 -31 5 -20 6 8 11 25 11 38 0 12 5 22 11 22
5 0 8 -4 5 -8 -3 -5 -6 -29 -7 -55 -2 -26 -8 -47 -13 -47 -6 -1 2 -8 18 -16
16 -9 41 -14 57 -12 23 4 29 1 29 -14 0 -12 -6 -17 -17 -14 -18 3 -51 15 -67
24 -5 3 -6 -3 -2 -13 6 -18 6 -18 -15 1 -22 19 -22 19 -15 -1 16 -40 18 -55 7
-55 -6 0 -11 5 -11 12 0 6 -10 23 -22 36 -17 19 -19 24 -6 19 14 -5 17 4 20
72 2 52 -1 82 -9 90 -20 19 -33 12 -34 -16 l-1 -28 -7 25 c-4 14 -15 26 -24
28 -15 3 -17 -6 -17 -75 0 -54 -3 -73 -10 -63 -5 8 -10 43 -10 78 0 62 0 62
-29 62 -26 0 -30 -4 -35 -38 -11 -75 -11 -125 2 -130 6 -2 15 3 18 12 8 20 24
21 24 1 0 -8 4 -15 10 -15 5 0 -3 -19 -19 -42 -16 -24 -27 -47 -24 -53 4 -5 3
-7 -2 -3 -10 10 -37 -11 -29 -23 3 -5 0 -9 -6 -9 -7 0 -9 -7 -6 -16 3 -8 2
-13 -3 -10 -4 3 -19 -6 -31 -19 -19 -21 -33 -25 -77 -25 l-54 0 2 -69 2 -70
-57 -75 c-35 -45 -55 -80 -50 -87 4 -7 3 -10 -3 -6 -6 4 -37 -27 -68 -68 -32
-41 -64 -76 -71 -76 -28 -3 -32 -4 -40 -11 -4 -4 -2 -14 4 -21 11 -13 -15 -53
-149 -224 l-49 -63 -583 -3 c-320 -1 445 -3 1701 -5 l2282 -2 0 2835 c0 1559
-2 2835 -5 2835 -3 0 -5 -274 -5 -608z m-1578 -2977 c-4 -33 -10 -59 -14 -57
-5 1 -8 4 -8 7 0 3 0 28 0 56 0 34 4 48 11 43 8 -4 9 1 5 17 -5 17 -4 20 3 9
5 -8 6 -42 3 -75z m-47 -65 c-3 -5 -10 -10 -16 -10 -5 0 -9 5 -9 10 0 6 7 10
16 10 8 0 12 -4 9 -10z m36 -78 c11 -20 13 -35 7 -53 -5 -13 -7 -34 -5 -46 2
-14 0 -20 -9 -16 -18 7 -25 53 -8 53 12 0 16 12 13 38 -1 4 -5 6 -10 5 -5 -2
-9 4 -9 12 0 8 -7 15 -16 15 -17 0 -16 -26 2 -89 5 -17 4 -22 -4 -17 -7 4 -12
16 -12 26 0 10 -4 22 -10 25 -5 3 -10 1 -10 -5 0 -14 -42 -9 -47 6 -2 6 7 10
19 10 18 -1 23 4 23 24 0 22 13 31 55 39 3 0 12 -12 21 -27z m-118 -96 c5 -8
10 -7 16 3 9 14 41 9 41 -7 0 -5 -9 -17 -20 -27 -18 -16 -20 -16 -20 -2 0 10
-8 17 -17 17 -21 1 -55 24 -47 33 8 7 37 -3 47 -17z m96 -28 c-1 -7 -5 -24 -9
-38 -7 -22 -8 -21 -9 13 -1 20 4 37 9 37 6 0 10 -6 9 -12z m-135 -4 c21 -8 20
-20 -1 -28 -10 -4 -14 -4 -10 0 4 4 2 13 -4 21 -13 14 -9 16 15 7z m1670 -606
c-3 -751 -1 -701 -16 -692 -6 4 -4 -3 5 -17 9 -13 17 -36 17 -51 0 -24 -4 -28
-30 -28 -16 0 -30 -5 -30 -11 0 -5 4 -8 9 -4 5 3 13 -4 16 -16 5 -13 10 -17
14 -11 4 7 8 -16 9 -51 2 -34 4 -74 6 -88 4 -36 -11 -72 -28 -66 -7 3 -18 1
-24 -5 -6 -6 -20 -7 -33 -2 -13 4 -27 8 -31 9 -3 0 -9 3 -13 7 -4 4 -14 0 -22
-8 -12 -12 -54 -14 -251 -12 -133 2 -236 7 -234 12 2 5 -2 13 -10 18 -10 8
-10 9 2 5 8 -2 14 -10 12 -16 -1 -7 1 -10 6 -7 5 3 9 22 9 43 0 21 -2 28 -4
16 -3 -15 -12 -23 -24 -23 -10 0 -19 -4 -19 -10 0 -5 -7 -7 -15 -4 -8 4 -15 1
-15 -5 0 -6 -5 -11 -11 -11 -5 0 -8 4 -4 9 3 5 1 12 -5 16 -5 3 -10 2 -10 -2
0 -5 -20 -8 -45 -7 -25 1 -45 -2 -45 -7 0 -5 10 -9 22 -9 12 0 18 -3 14 -7 -3
-4 -144 -8 -313 -10 -270 -3 -311 -1 -345 14 -21 9 -39 24 -40 32 -7 73 -3
792 5 815 7 21 6 30 -3 36 -9 5 -11 30 -8 84 3 46 0 80 -6 86 -8 8 -7 13 2 19
10 6 10 10 -3 21 -11 9 -12 16 -5 25 7 9 11 101 11 264 l-1 251 743 0 743 0
-2 -602z m-1623 561 c-16 -6 -28 -6 -35 1 -7 7 1 10 25 9 32 0 33 -1 10 -10z
m129 1 c0 -5 -8 -10 -17 -10 -15 0 -16 2 -3 10 19 12 20 12 20 0z m-94 -46 c8
-30 -12 -57 -22 -31 -3 9 -15 17 -26 17 -10 0 -16 5 -13 10 4 6 10 8 15 5 4
-3 10 2 14 10 9 23 25 18 32 -11z m-76 6 c-19 -13 -30 -13 -30 0 0 6 10 10 23
10 18 0 19 -2 7 -10z m-440 -96 c0 -27 -4 -43 -10 -39 -17 11 -11 85 7 85 2 0
3 -21 3 -46z m537 24 c-3 -8 -6 -5 -6 6 -1 11 2 17 5 13 3 -3 4 -12 1 -19z
m-34 -79 c-4 -4 -6 15 -3 44 l5 52 3 -44 c2 -24 0 -47 -5 -52z m107 60 c0 -11
-4 -17 -10 -14 -5 3 -10 13 -10 21 0 8 5 14 10 14 6 0 10 -9 10 -21z m-317 4
c-7 -2 -19 -2 -25 0 -7 3 -2 5 12 5 14 0 19 -2 13 -5z m82 -63 c3 -5 -1 -10
-10 -10 -9 0 -13 5 -10 10 3 6 8 10 10 10 2 0 7 -4 10 -10z m-265 -15 c0 -5
-8 -10 -17 -10 -10 0 -22 -9 -28 -19 -5 -11 -17 -20 -26 -22 -23 -3 -19 32 6
51 22 16 66 16 65 0z m158 -15 c-2 -31 -12 -36 -38 -20 -12 8 -10 10 9 10 18
0 21 3 12 13 -11 14 -5 27 11 27 4 0 7 -13 6 -30z m200 5 c-3 -3 -9 2 -12 12
-6 14 -5 15 5 6 7 -7 10 -15 7 -18z m-92 -15 c0 -11 -1 -20 -2 -20 -2 0 -15 5
-31 11 l-28 12 25 7 c14 5 27 8 30 9 3 1 6 -8 6 -19z m118 5 c3 -8 1 -15 -4
-15 -6 0 -10 7 -10 15 0 8 2 15 4 15 2 0 6 -7 10 -15z m-1 -38 c30 -11 18 -22
-23 -22 -26 0 -39 4 -36 11 2 6 -1 17 -7 23 -9 9 -8 14 3 21 11 7 19 4 30 -9
8 -10 23 -21 33 -24z m-350 24 c16 -2 6 -18 -18 -29 -22 -10 -25 -9 -25 7 0
11 -6 22 -12 24 -7 3 1 3 17 2 17 -2 33 -4 38 -4z m209 -47 c-2 -13 -11 -24
-18 -24 -8 0 -23 -6 -34 -12 -15 -10 -22 -10 -32 0 -10 10 -8 14 10 18 22 6
31 24 12 24 -5 0 -10 3 -10 8 0 4 17 8 38 8 36 1 38 -1 34 -22z m-148 8 c3 -5
-8 -9 -24 -10 -16 0 -32 4 -35 9 -4 5 7 9 24 9 16 0 32 -4 35 -8z m-153 -65
c-10 -9 -11 -8 -5 6 3 10 9 15 12 12 3 -3 0 -11 -7 -18z m384 -6 c-3 -6 -11
-11 -16 -11 -5 0 -4 6 3 14 14 16 24 13 13 -3z m-49 -6 c-8 -8 -20 -15 -26
-15 -16 0 12 29 28 30 10 0 10 -4 -2 -15z m-266 -35 c-28 -8 -35 -6 -26 8 3 6
16 7 29 4 22 -6 22 -6 -3 -12z m-243 -62 c-3 -7 -5 -2 -5 12 0 14 2 19 5 13 2
-7 2 -19 0 -25z m290 -25 c-3 -10 -5 -4 -5 12 0 17 2 24 5 18 2 -7 2 -21 0
-30z m-259 -14 c-3 -8 -7 -3 -11 10 -4 17 -3 21 5 13 5 -5 8 -16 6 -23z m-26
-11 c-7 -7 -12 -8 -12 -2 0 14 12 26 19 19 2 -3 -1 -11 -7 -17z m33 -28 c3 -6
-1 -7 -9 -4 -18 7 -21 14 -7 14 6 0 13 -4 16 -10z m40 -20 c3 -6 -1 -7 -9 -4
-10 4 -16 1 -16 -7 0 -7 -3 -10 -6 -6 -7 7 4 27 16 27 5 0 12 -4 15 -10z m212
-12 c-3 -8 -6 -5 -6 6 -1 11 2 17 5 13 3 -3 4 -12 1 -19z m-167 -20 c0 -4 11
-3 24 2 28 10 63 7 56 -6 -3 -5 -17 -9 -32 -9 -14 0 -24 -3 -22 -6 2 -4 -6
-15 -19 -25 -21 -19 -21 -19 -7 0 14 18 13 19 -21 15 -32 -4 -35 -3 -31 18 3
17 10 22 28 21 13 -1 24 -6 24 -10z m245 -8 c-3 -5 -12 -10 -20 -10 -8 0 -17
5 -20 10 -4 6 5 10 20 10 15 0 24 -4 20 -10z m-345 -70 c0 -5 -5 -10 -11 -10
-5 0 -7 5 -4 10 3 6 8 10 11 10 2 0 4 -4 4 -10z m-62 -60 c-1 -33 -6 -60 -10
-60 -4 0 -8 27 -8 60 0 34 4 60 10 60 6 0 10 -24 8 -60z m159 28 c-3 -8 -6 -5
-6 6 -1 11 2 17 5 13 3 -3 4 -12 1 -19z m-20 -20 c-3 -7 -5 -2 -5 12 0 14 2
19 5 13 2 -7 2 -19 0 -25z m-480 -10 c-3 -7 -5 -2 -5 12 0 14 2 19 5 13 2 -7
2 -19 0 -25z m263 22 c0 -5 -4 -10 -9 -10 -6 0 -13 5 -16 10 -3 6 1 10 9 10 9
0 16 -4 16 -10z m140 1 c0 -6 -4 -13 -10 -16 -5 -3 -10 1 -10 9 0 9 5 16 10
16 6 0 10 -4 10 -9z m653 -16 c-3 -9 -8 -14 -10 -11 -3 3 -2 9 2 15 9 16 15
13 8 -4z m-642 -58 c-13 -13 -14 5 -3 43 l7 25 3 -29 c2 -16 -1 -33 -7 -39z
m604 53 c-3 -5 -10 -10 -16 -10 -5 0 -9 5 -9 10 0 6 7 10 16 10 8 0 12 -4 9
-10z m115 -6 c0 -2 -9 -13 -20 -24 -11 -11 -20 -16 -20 -11 0 6 5 13 11 16 6
4 8 13 5 21 -3 8 0 11 10 7 7 -3 14 -7 14 -9z m-736 -19 c-4 -8 -8 -15 -10
-15 -2 0 -4 7 -4 15 0 8 4 15 10 15 5 0 7 -7 4 -15z m89 -6 c5 -3 2 -9 -7 -12
-12 -5 -16 0 -16 15 0 12 3 17 8 12 4 -5 11 -12 15 -15z m257 11 c0 -5 -4 -10
-10 -10 -5 0 -10 5 -10 10 0 6 5 10 10 10 6 0 10 -4 10 -10z m-140 -25 c7 -9
8 -15 2 -15 -5 0 -12 7 -16 15 -3 8 -4 15 -2 15 2 0 9 -7 16 -15z m455 -5 c3
-5 -3 -10 -14 -10 -11 0 -23 5 -26 10 -3 6 3 10 14 10 11 0 23 -4 26 -10z
m-545 -4 c0 -3 -4 -8 -10 -11 -5 -3 -10 -1 -10 4 0 6 5 11 10 11 6 0 10 -2 10
-4z m-420 -27 c0 -4 -9 -10 -20 -14 -18 -6 -18 -8 -3 -41 12 -23 14 -37 7 -44
-16 -16 -44 -1 -36 18 5 15 4 15 -11 3 -16 -13 -16 -14 0 -26 14 -11 13 -13
-15 -17 -21 -3 -32 0 -32 8 0 7 4 14 9 16 5 2 11 9 13 17 2 7 15 27 30 44 15
17 25 33 23 37 -2 3 5 6 16 6 10 0 19 -4 19 -7z m600 7 c0 -11 -19 -15 -25 -6
-3 5 1 10 9 10 9 0 16 -2 16 -4z m-160 -15 c0 -15 -41 -24 -52 -13 -8 8 -4 9
11 5 12 -3 21 -1 21 6 0 6 5 11 10 11 6 0 10 -4 10 -9z m-142 -43 c-2 -5 -7
-9 -11 -9 -4 1 -25 1 -47 1 -58 0 -49 15 11 17 29 0 49 -3 47 -9z m304 -13 c3
-13 1 -22 -3 -19 -9 5 -13 44 -5 44 2 0 6 -11 8 -25z m-216 -45 c0 -11 -3 -20
-7 -20 -10 0 -19 27 -12 34 12 11 19 6 19 -14z m-509 -52 c-3 -7 -5 -2 -5 12
0 14 2 19 5 13 2 -7 2 -19 0 -25z m61 9 c2 -10 -3 -17 -11 -17 -17 0 -40 24
-31 32 11 11 39 1 42 -15z m382 -18 c0 -6 -4 -7 -10 -4 -5 3 -10 11 -10 16 0
6 5 7 10 4 6 -3 10 -11 10 -16z m-215 1 c3 -6 -1 -7 -9 -4 -18 7 -21 14 -7 14
6 0 13 -4 16 -10z m-290 -30 c3 -5 1 -10 -4 -10 -6 0 -11 5 -11 10 0 6 2 10 4
10 3 0 8 -4 11 -10z m502 -22 c-3 -7 -5 -2 -5 12 0 14 2 19 5 13 2 -7 2 -19 0
-25z m-567 -17 c0 -12 -20 -25 -27 -18 -7 7 6 27 18 27 5 0 9 -4 9 -9z m120 0
c0 -12 -20 -25 -27 -18 -7 7 6 27 18 27 5 0 9 -4 9 -9z m-70 -17 c0 -8 -4 -12
-10 -9 -5 3 -10 10 -10 16 0 5 5 9 10 9 6 0 10 -7 10 -16z m48 -68 c3 -15 1
-16 -17 -6 -12 6 -19 16 -15 21 9 15 28 5 32 -15z"/>
<path d="M3435 1210 c-3 -5 -2 -10 4 -10 5 0 13 5 16 10 3 6 2 10 -4 10 -5 0
-13 -4 -16 -10z"/>
<path d="M4044 1098 c-3 -5 -8 -6 -12 -4 -4 2 -14 -1 -22 -7 -20 -16 -24 -57
-6 -57 7 0 19 -7 26 -15 7 -9 15 -13 18 -10 3 3 -2 13 -12 23 -29 33 2 70 46
53 14 -5 17 -10 10 -15 -17 -10 -15 -26 4 -26 8 0 13 4 10 9 -9 14 26 23 38
11 8 -8 6 -9 -6 -5 -14 5 -18 2 -18 -13 0 -11 -6 -22 -12 -25 -9 -3 -7 -9 7
-20 17 -13 18 -17 5 -33 -14 -18 -14 -18 5 -4 11 8 22 16 24 17 2 1 -2 10 -10
20 -8 9 -9 14 -4 11 6 -4 17 -3 25 3 12 7 10 9 -7 9 -13 0 -23 5 -23 10 0 6 7
10 15 10 8 0 15 6 16 13 0 6 4 2 9 -10 6 -13 4 -33 -3 -53 -9 -25 -9 -33 2
-39 10 -6 5 -11 -18 -16 -18 -4 -35 -13 -38 -22 -3 -8 -12 -12 -19 -9 -7 3
-16 1 -19 -4 -4 -6 3 -10 14 -10 11 0 23 5 26 10 4 6 11 7 17 4 6 -4 15 0 20
7 7 10 8 7 3 -11 -4 -14 -7 -33 -8 -42 -2 -21 -24 -32 -33 -16 -4 6 -3 8 3 5
6 -4 13 4 15 17 4 21 2 23 -16 16 -12 -4 -20 -13 -18 -20 1 -6 -2 -9 -8 -5 -6
3 -22 9 -36 11 -20 4 -25 1 -21 -10 6 -16 -19 -30 -35 -19 -7 4 -8 1 -3 -6 4
-7 16 -11 26 -8 11 3 19 1 19 -3 0 -16 35 -17 53 -2 14 12 17 12 17 2 0 -10 3
-11 11 -3 6 6 18 9 25 6 8 -3 14 0 14 5 0 6 7 18 17 27 11 12 13 19 5 24 -14
8 -10 38 8 54 12 10 12 9 2 -4 -9 -12 -9 -20 2 -34 13 -18 14 -18 21 6 22 66
-5 148 -59 177 -36 20 -105 32 -112 20z m163 -118 c-1 -12 -7 -19 -16 -18 -22
4 -25 26 -4 31 10 3 19 5 20 6 1 0 1 -8 0 -19z m-127 -151 c0 -4 -7 -6 -15 -3
-8 4 -15 10 -15 15 0 4 7 6 15 3 8 -4 15 -10 15 -15z"/>
<path d="M3077 1076 c-3 -8 1 -17 9 -20 23 -9 34 -7 34 4 0 6 -3 9 -7 9 -20
-3 -26 2 -13 11 13 8 13 10 -1 10 -9 0 -19 -6 -22 -14z"/>
<path d="M3136 1075 c4 -8 8 -15 10 -15 2 0 4 7 4 15 0 8 -4 15 -10 15 -5 0
-7 -7 -4 -15z"/>
<path d="M4044 1067 c-13 -16 -7 -37 12 -37 8 0 14 -7 14 -15 0 -8 5 -15 10
-15 17 0 11 28 -7 40 -13 8 -14 13 -5 16 6 3 10 10 6 15 -7 12 -17 11 -30 -4z"/>
<path d="M3780 1059 c0 -5 5 -7 10 -4 6 3 10 8 10 11 0 2 -4 4 -10 4 -5 0 -10
-5 -10 -11z"/>
<path d="M3946 1029 c-12 -29 -12 -35 3 -46 9 -7 11 -13 5 -13 -19 0 -26 -33
-10 -42 8 -4 13 -16 11 -26 -4 -27 12 -49 40 -54 17 -4 25 -1 25 9 0 8 -3 12
-8 9 -4 -2 -18 2 -32 11 -14 8 -17 12 -7 9 9 -3 17 -1 17 4 0 5 6 10 13 13 6
2 4 3 -5 2 -27 -4 -44 22 -30 45 12 20 7 50 -9 50 -5 0 -9 4 -9 9 0 5 9 7 20
4 11 -3 20 0 20 6 0 6 -8 11 -17 11 -14 0 -15 2 -4 9 9 6 10 11 2 15 -7 5 -17
-6 -25 -25z"/>
<path d="M3366 1035 c-9 -26 -7 -32 5 -12 6 10 9 21 6 23 -2 3 -7 -2 -11 -11z"/>
<path d="M3620 1029 c0 -5 5 -7 10 -4 6 3 10 8 10 11 0 2 -4 4 -10 4 -5 0 -10
-5 -10 -11z"/>
<path d="M3715 1010 c3 -5 8 -10 11 -10 2 0 4 5 4 10 0 6 -5 10 -11 10 -5 0
-7 -4 -4 -10z"/>
<path d="M3993 1001 c-10 -15 -9 -20 2 -24 15 -6 30 22 18 34 -5 5 -14 0 -20
-10z"/>
<path d="M3545 990 c-3 -5 -1 -10 4 -10 6 0 11 5 11 10 0 6 -2 10 -4 10 -3 0
-8 -4 -11 -10z"/>
<path d="M4062 973 c2 -10 10 -17 16 -15 7 1 12 -3 12 -9 0 -6 -9 -8 -21 -4
-13 5 -19 3 -15 -3 3 -5 14 -12 24 -14 26 -7 27 34 1 50 -18 12 -20 11 -17 -5z"/>
<path d="M3390 970 c-8 -5 -10 -10 -5 -10 6 0 17 5 25 10 8 5 11 10 5 10 -5 0
-17 -5 -25 -10z"/>
<path d="M3620 970 c0 -5 5 -10 10 -10 6 0 10 5 10 10 0 6 -4 10 -10 10 -5 0
-10 -4 -10 -10z"/>
<path d="M4000 950 c0 -5 5 -10 10 -10 6 0 10 5 10 10 0 6 -4 10 -10 10 -5 0
-10 -4 -10 -10z"/>
<path d="M3225 940 c-3 -6 1 -7 9 -4 18 7 21 14 7 14 -6 0 -13 -4 -16 -10z"/>
<path d="M3635 930 c3 -5 8 -10 11 -10 2 0 4 5 4 10 0 6 -5 10 -11 10 -5 0 -7
-4 -4 -10z"/>
<path d="M3316 915 c-3 -8 -1 -15 4 -15 6 0 10 7 10 15 0 8 -2 15 -4 15 -2 0
-6 -7 -10 -15z"/>
<path d="M4051 904 c0 -11 3 -14 6 -6 3 7 2 16 -1 19 -3 4 -6 -2 -5 -13z"/>
<path d="M3466 875 c-9 -26 -7 -32 5 -12 6 10 9 21 6 23 -2 3 -7 -2 -11 -11z"/>
<path d="M3400 869 c0 -5 5 -7 10 -4 6 3 10 8 10 11 0 2 -4 4 -10 4 -5 0 -10
-5 -10 -11z"/>
<path d="M3635 870 c3 -5 8 -10 11 -10 2 0 4 5 4 10 0 6 -5 10 -11 10 -5 0 -7
-4 -4 -10z"/>
<path d="M3700 860 c0 -5 5 -10 10 -10 6 0 10 5 10 10 0 6 -4 10 -10 10 -5 0
-10 -4 -10 -10z"/>
<path d="M3810 849 c0 -5 5 -7 10 -4 6 3 10 8 10 11 0 2 -4 4 -10 4 -5 0 -10
-5 -10 -11z"/>
<path d="M3070 830 c0 -5 5 -10 11 -10 5 0 7 5 4 10 -3 6 -8 10 -11 10 -2 0
-4 -4 -4 -10z"/>
<path d="M3740 829 c0 -5 5 -7 10 -4 6 3 10 8 10 11 0 2 -4 4 -10 4 -5 0 -10
-5 -10 -11z"/>
<path d="M3110 820 c-13 -8 -12 -10 3 -10 9 0 17 5 17 10 0 12 -1 12 -20 0z"/>
<path d="M3045 750 c-3 -5 -1 -10 4 -10 6 0 11 5 11 10 0 6 -2 10 -4 10 -3 0
-8 -4 -11 -10z"/>
<path d="M4397 749 c7 -7 15 -10 18 -7 3 3 -2 9 -12 12 -14 6 -15 5 -6 -5z"/>
<path d="M4270 680 c0 -5 5 -10 11 -10 5 0 7 5 4 10 -3 6 -8 10 -11 10 -2 0
-4 -4 -4 -10z"/>
<path d="M4350 661 c0 -6 4 -13 10 -16 6 -3 7 1 4 9 -7 18 -14 21 -14 7z"/>
<path d="M4260 646 c0 -3 9 -10 20 -16 11 -6 20 -8 20 -6 0 3 -9 10 -20 16
-11 6 -20 8 -20 6z"/>
<path d="M4271 594 c0 -11 3 -14 6 -6 3 7 2 16 -1 19 -3 4 -6 -2 -5 -13z"/>
<path d="M4427 591 c-4 -17 -3 -21 5 -13 5 5 8 16 6 23 -3 8 -7 3 -11 -10z"/>
<path d="M4005 590 c-3 -5 -1 -10 4 -10 6 0 11 5 11 10 0 6 -2 10 -4 10 -3 0
-8 -4 -11 -10z"/>
<path d="M4350 579 c0 -5 5 -7 10 -4 6 3 10 8 10 11 0 2 -4 4 -10 4 -5 0 -10
-5 -10 -11z"/>
<path d="M4112 570 c5 -16 48 -23 48 -8 0 6 -6 8 -14 5 -7 -3 -19 0 -26 6 -10
9 -11 9 -8 -3z"/>
<path d="M4435 560 c-3 -5 -1 -10 4 -10 6 0 11 5 11 10 0 6 -2 10 -4 10 -3 0
-8 -4 -11 -10z"/>
<path d="M4370 551 c0 -6 4 -13 10 -16 6 -3 7 1 4 9 -7 18 -14 21 -14 7z"/>
<path d="M4300 540 c0 -5 5 -10 10 -10 6 0 10 5 10 10 0 6 -4 10 -10 10 -5 0
-10 -4 -10 -10z"/>
<path d="M4344 539 c-3 -6 -1 -16 5 -22 8 -8 11 -5 11 11 0 24 -5 28 -16 11z"/>
<path d="M4400 520 c0 -5 5 -10 11 -10 5 0 7 5 4 10 -3 6 -8 10 -11 10 -2 0
-4 -4 -4 -10z"/>
<path d="M3138 513 c7 -3 16 -2 19 1 4 3 -2 6 -13 5 -11 0 -14 -3 -6 -6z"/>
<path d="M4310 511 c0 -5 7 -14 15 -21 12 -10 15 -10 15 3 0 8 -7 17 -15 21
-8 3 -15 2 -15 -3z"/>
<path d="M4370 491 c0 -5 7 -12 16 -15 14 -5 15 -4 4 9 -14 17 -20 19 -20 6z"/>
<path d="M4417 484 c6 -17 36 -19 31 -2 -2 6 -11 12 -20 14 -11 1 -15 -3 -11
-12z"/>
<path d="M3760 414 c0 -10 6 -13 18 -10 19 6 50 -9 39 -20 -3 -4 -13 -1 -21 5
-10 8 -16 9 -21 1 -3 -5 -3 -10 2 -10 4 0 2 -4 -5 -8 -7 -5 -10 -16 -6 -25 3
-9 11 -14 16 -11 6 4 6 9 -2 14 -8 5 -7 9 4 13 10 4 16 1 16 -8 0 -22 17 -18
23 5 3 11 9 20 14 19 27 -5 23 4 -12 26 -47 28 -65 31 -65 9z"/>
<path d="M4326 406 c-22 -13 -34 -26 -28 -30 6 -3 13 -2 17 4 3 5 15 10 26 10
13 0 18 4 13 12 -5 8 -2 9 10 5 9 -4 14 -3 11 2 -3 5 5 12 17 14 22 4 22 4 -2
6 -14 0 -42 -10 -64 -23z"/>
<path d="M3690 400 c0 -12 -7 -20 -16 -20 -14 0 -15 2 -3 18 13 15 12 16 -3 3
-10 -7 -18 -23 -19 -35 0 -11 -3 -15 -6 -8 -2 6 -9 12 -15 12 -6 0 -8 -6 -5
-14 3 -7 0 -19 -6 -25 -7 -7 -7 -11 -2 -9 11 3 15 -4 15 -27 0 -9 -6 -12 -15
-9 -8 4 -15 1 -15 -7 0 -7 3 -9 7 -6 3 4 12 2 20 -4 10 -9 14 -5 19 21 5 22 9
28 15 18 5 -7 9 -8 9 -3 0 6 10 16 21 24 18 11 23 11 30 0 4 -8 12 -10 16 -5
4 4 1 13 -8 19 -9 7 -14 18 -11 26 3 8 0 11 -7 7 -6 -4 -11 -2 -11 3 0 6 7 11
15 11 8 0 15 -5 15 -11 0 -5 4 -7 10 -4 6 4 5 13 -2 25 -9 14 -14 16 -20 7 -6
-9 -8 -9 -8 1 0 6 -4 12 -10 12 -5 0 -10 -9 -10 -20z m-10 -34 c0 -3 -4 -8
-10 -11 -5 -3 -10 -1 -10 4 0 6 5 11 10 11 6 0 10 -2 10 -4z"/>
<path d="M3340 385 c-8 -9 -8 -15 -2 -15 12 0 26 19 19 26 -2 2 -10 -2 -17
-11z"/>
<path d="M3390 389 c0 -5 5 -7 10 -4 6 3 10 8 10 11 0 2 -4 4 -10 4 -5 0 -10
-5 -10 -11z"/>
<path d="M4270 345 c-12 -22 -12 -32 0 -63 7 -20 13 -49 12 -64 0 -16 4 -28
10 -28 5 0 8 7 4 15 -4 10 1 15 17 16 l22 0 -22 9 c-15 6 -21 16 -19 34 2 17
-2 26 -10 26 -17 0 -19 46 -3 56 8 4 9 -1 5 -17 l-7 -24 15 25 c14 24 13 40
-3 40 -4 0 -14 -11 -21 -25z"/>
<path d="M4380 362 c-17 -8 -20 -26 -6 -39 5 -5 6 -3 2 5 -4 6 -3 12 2 12 6 0
12 7 16 15 3 8 4 15 3 14 -1 0 -9 -3 -17 -7z"/>
<path d="M3386 333 c-6 -14 -5 -15 5 -6 7 7 10 15 7 18 -3 3 -9 -2 -12 -12z"/>
<path d="M3450 335 c-8 -9 -8 -15 -2 -15 12 0 26 19 19 26 -2 2 -10 -2 -17
-11z"/>
<path d="M3497 343 c-4 -3 -7 -11 -7 -17 0 -6 5 -5 12 2 6 6 9 14 7 17 -3 3
-9 2 -12 -2z"/>
<path d="M4395 340 c-3 -5 -5 -10 -3 -11 29 -7 36 -5 31 7 -6 16 -19 18 -28 4z"/>
<path d="M3746 325 c-4 -11 -2 -22 6 -26 7 -4 13 -18 13 -31 2 -29 12 -48 27
-48 7 0 6 6 -2 15 -10 12 -10 15 4 15 9 0 16 8 16 20 0 22 -16 27 -23 8 -3 -8
-7 -6 -12 7 -21 60 -21 60 -29 40z"/>
<path d="M3840 325 c-12 -15 23 -72 44 -72 11 0 13 4 5 13 -7 8 -6 14 3 17 11
5 11 7 0 15 -7 5 -10 15 -7 23 7 18 -31 21 -45 4z m30 -25 c0 -5 -4 -10 -10
-10 -5 0 -10 5 -10 10 0 6 5 10 10 10 6 0 10 -4 10 -10z"/>
<path d="M4327 324 c-3 -3 -3 -12 -1 -19 3 -7 1 -16 -5 -20 -18 -11 -12 -42 9
-48 11 -3 18 -1 15 3 -3 5 -1 11 5 15 5 3 10 0 10 -7 0 -10 2 -11 8 0 5 8 16
10 27 6 13 -5 16 -4 11 5 -8 12 -54 10 -75 -4 -6 -3 -11 1 -11 9 0 8 8 20 18
25 14 9 14 12 3 20 -11 7 -11 9 0 14 8 3 9 6 3 6 -6 1 -13 -2 -17 -5z"/>
<path d="M3046 305 c-9 -26 -7 -32 5 -12 6 10 9 21 6 23 -2 3 -7 -2 -11 -11z"/>
<path d="M3300 311 c0 -6 5 -13 10 -16 6 -3 10 1 10 9 0 9 -4 16 -10 16 -5 0
-10 -4 -10 -9z"/>
<path d="M3518 303 c7 -3 16 -2 19 1 4 3 -2 6 -13 5 -11 0 -14 -3 -6 -6z"/>
<path d="M4412 297 c17 -19 42 -19 27 0 -6 7 -18 13 -26 13 -11 0 -11 -3 -1
-13z"/>
<path d="M3530 280 c0 -5 5 -10 10 -10 6 0 10 5 10 10 0 6 -4 10 -10 10 -5 0
-10 -4 -10 -10z"/>
<path d="M3428 263 c7 -3 16 -2 19 1 4 3 -2 6 -13 5 -11 0 -14 -3 -6 -6z"/>
<path d="M4255 260 c-3 -5 -1 -10 4 -10 6 0 11 5 11 10 0 6 -2 10 -4 10 -3 0
-8 -4 -11 -10z"/>
<path d="M3166 243 c-6 -14 -5 -15 5 -6 7 7 10 15 7 18 -3 3 -9 -2 -12 -12z"/>
<path d="M3302 240 c-12 -19 -11 -20 8 -8 11 7 20 16 20 20 0 15 -15 8 -28
-12z"/>
<path d="M3400 239 c0 -5 5 -7 10 -4 6 3 10 8 10 11 0 2 -4 4 -10 4 -5 0 -10
-5 -10 -11z"/>
<path d="M3655 241 c-6 -11 9 -23 19 -14 9 9 7 23 -3 23 -6 0 -12 -4 -16 -9z"/>
<path d="M4402 243 c-6 -2 -9 -10 -5 -16 4 -6 0 -8 -9 -4 -11 4 -18 -1 -21
-15 -5 -16 -3 -18 6 -9 12 12 31 15 23 3 -2 -4 4 -9 15 -9 17 -2 18 1 8 13
-10 13 -10 17 1 24 18 11 32 2 24 -13 -5 -9 -4 -9 6 0 24 22 -10 42 -48 26z"/>
<path d="M3542 231 c-11 -7 -11 -9 2 -14 10 -4 16 -1 16 8 0 17 -1 17 -18 6z"/>
<path d="M3721 223 c0 -11 3 -13 6 -5 2 6 10 9 15 6 7 -4 8 -2 4 4 -11 18 -26
14 -25 -5z"/>
<path d="M3624 219 c-3 -6 1 -18 10 -27 10 -11 16 -12 16 -4 0 7 -5 12 -11 12
-6 0 -9 7 -5 15 6 17 0 20 -10 4z"/>
<path d="M4150 219 c0 -5 5 -7 10 -4 6 3 10 8 10 11 0 2 -4 4 -10 4 -5 0 -10
-5 -10 -11z"/>
<path d="M3510 210 c0 -6 7 -10 15 -10 8 0 15 2 15 4 0 2 -7 6 -15 10 -8 3
-15 1 -15 -4z"/>
<path d="M3103 203 c9 -2 23 -2 30 0 6 3 -1 5 -18 5 -16 0 -22 -2 -12 -5z"/>
<path d="M3450 201 c0 -6 4 -12 8 -15 5 -3 9 1 9 9 0 8 -4 15 -9 15 -4 0 -8
-4 -8 -9z"/>
<path d="M3316 187 c3 -10 9 -15 12 -12 3 3 0 11 -7 18 -10 9 -11 8 -5 -6z"/>
<path d="M2820 1510 c0 -5 5 -10 11 -10 5 0 7 5 4 10 -3 6 -8 10 -11 10 -2 0
-4 -4 -4 -10z"/>
<path d="M1391 5449 c-1 -71 1 -80 17 -77 13 2 18 16 22 53 4 43 6 47 14 25
l8 -25 7 30 c3 17 11 29 16 29 10 -2 42 -82 70 -172 13 -42 13 -43 -12 -53
-20 -7 -24 -14 -19 -32 4 -12 10 -60 13 -106 5 -69 4 -83 -8 -79 -8 2 -22 21
-32 41 -10 23 -24 37 -36 37 -14 0 -17 6 -13 26 3 18 13 27 33 31 19 4 29 12
29 24 0 22 -16 34 -23 17 -3 -9 -9 -7 -20 7 -11 14 -12 22 -4 27 19 12 -1 21
-61 29 -31 4 -95 14 -142 22 -85 16 -147 19 -293 18 -46 -1 -76 -5 -72 -10 3
-6 46 -8 98 -5 81 3 88 2 57 -8 -33 -11 -29 -12 67 -19 55 -3 113 -9 127 -13
20 -5 24 -3 20 9 -7 18 14 20 67 4 26 -8 39 -19 44 -36 3 -13 17 -29 31 -35
20 -10 25 -17 21 -37 -23 -119 -32 -157 -41 -163 -20 -14 -27 -8 -16 13 6 11
9 25 7 32 -3 7 -8 4 -12 -8 -4 -11 -11 -30 -17 -42 -12 -24 -4 -43 18 -43 9 0
14 -11 14 -33 0 -42 -35 -66 -68 -48 -15 8 -23 8 -28 0 -10 -17 27 -41 54 -36
19 4 22 0 22 -29 0 -19 0 -36 0 -39 0 -3 -3 -4 -7 -3 -5 0 -7 10 -5 21 3 17 0
18 -37 12 -25 -4 -41 -3 -41 3 0 5 -16 13 -36 17 -39 7 -74 25 -74 38 0 4 -16
23 -35 43 -38 38 -54 79 -36 97 8 8 25 4 66 -16 57 -28 102 -36 89 -16 -4 7 0
9 14 5 25 -8 52 26 52 67 0 23 -7 31 -35 43 -19 7 -51 14 -72 15 l-38 1 50 24
c38 19 60 24 93 20 49 -7 56 7 11 23 -91 31 -269 36 -376 9 l-42 -10 5 -202
c7 -294 10 -321 40 -334 13 -7 24 -19 24 -28 0 -14 8 -15 57 -9 76 9 81 12
103 54 23 46 47 58 133 66 40 4 73 13 83 22 8 8 17 13 20 10 11 -11 8 -118 -4
-126 -15 -9 -16 -34 -6 -129 4 -47 10 -70 17 -63 5 5 8 27 6 49 l-4 39 33 -14
c33 -14 115 -10 143 8 11 7 13 59 11 286 -1 153 -3 310 -5 348 -2 70 -2 70 26
73 30 4 34 17 13 47 -7 11 -28 70 -45 130 -18 61 -34 116 -36 123 -3 7 -24 12
-59 12 l-54 0 -1 -81z m-177 -385 c9 -4 21 -15 27 -25 8 -16 6 -19 -13 -19
-17 0 -19 3 -9 9 20 13 -4 24 -35 17 -24 -6 -34 8 -11 17 18 8 23 8 41 1z
m-254 -188 c0 -3 -4 -8 -10 -11 -5 -3 -10 -1 -10 4 0 6 5 11 10 11 6 0 10 -2
10 -4z"/>
<path d="M1113 5464 c-17 -8 -16 -44 1 -44 7 0 19 -7 26 -15 20 -25 29 -17 27
23 -2 37 -21 50 -54 36z"/>
<path d="M955 5400 c3 -5 15 -10 26 -10 10 0 19 5 19 10 0 6 -12 10 -26 10
-14 0 -23 -4 -19 -10z"/>
<path d="M820 5320 c0 -5 7 -10 16 -10 8 0 12 5 9 10 -3 6 -10 10 -16 10 -5 0
-9 -4 -9 -10z"/>
<path d="M3491 5314 c-119 -32 -206 -103 -258 -209 -25 -51 -30 -56 -53 -51
-98 23 -120 17 -120 -35 0 -32 12 -40 86 -59 l40 -10 12 -74 c13 -71 48 -147
97 -203 18 -21 20 -21 37 -6 16 15 20 14 52 -10 96 -74 243 -90 351 -38 66 31
131 95 166 163 12 23 35 60 51 81 l30 38 -24 37 c-13 20 -30 59 -38 86 -7 27
-28 70 -46 96 -28 40 -30 49 -19 61 18 18 11 27 -47 71 -83 63 -217 89 -317
62z m204 -184 c47 -25 60 -28 72 -18 13 10 20 7 45 -21 16 -18 28 -35 26 -37
-3 -2 -31 6 -64 17 -115 41 -267 26 -359 -36 -48 -33 -47 -8 3 47 75 83 176
101 277 48z m-65 -74 c58 -1 97 -26 124 -80 24 -50 15 -99 -29 -143 -28 -28
-40 -33 -81 -33 -27 0 -60 6 -74 13 -39 20 -70 74 -70 123 0 52 -15 58 -24 10
-8 -44 13 -98 55 -137 35 -33 30 -35 -31 -14 -51 18 -119 72 -139 109 -12 22
-12 30 -1 50 32 61 177 139 208 113 7 -6 35 -11 62 -11z m196 -26 c46 -32 94
-85 94 -103 0 -28 -67 -91 -124 -118 -74 -35 -102 -38 -65 -6 41 36 59 73 59
123 0 50 -25 102 -63 130 -42 31 52 5 99 -26z m-341 -290 c102 -35 176 -36
295 -4 l25 7 -23 -26 c-66 -72 -213 -93 -308 -45 -64 34 -81 53 -64 73 15 18
6 19 75 -5z"/>
<path d="M3600 5015 c0 -3 9 -24 21 -46 11 -23 18 -43 16 -46 -3 -2 -26 4 -51
16 l-46 20 0 -30 c0 -42 26 -77 67 -88 43 -12 73 -2 103 36 44 57 -1 143 -76
143 -19 0 -34 -2 -34 -5z"/>
<path d="M2525 5285 c-16 -14 -37 -25 -45 -25 -9 0 -20 -4 -25 -9 -17 -14
-107 -38 -171 -45 -67 -7 -77 -2 -89 47 -12 45 -23 31 -35 -45 -14 -86 -20
-99 -31 -70 -11 30 -26 27 -49 -10 -17 -29 -20 -30 -26 -12 -12 31 -55 79 -73
80 -9 1 -27 7 -40 14 -31 16 -117 5 -159 -20 -35 -21 -69 -70 -78 -110 -3 -14
-10 -34 -16 -46 -5 -11 -9 -27 -7 -35 3 -21 -14 -54 -30 -57 -12 -3 -12 0 -1
12 8 11 9 16 1 16 -7 0 -11 29 -11 85 0 79 -10 107 -24 69 -13 -33 -6 -144 11
-183 16 -36 21 -40 58 -43 35 -3 40 -6 43 -30 4 -31 19 -36 82 -27 64 9 69 -2
71 -146 1 -66 3 -111 6 -100 14 68 17 69 23 10 l7 -60 1 53 c2 38 6 52 16 52
19 0 31 -20 27 -44 -2 -12 2 -17 11 -14 7 3 12 13 12 22 -3 30 13 16 26 -24
23 -69 35 -48 38 68 3 121 9 162 24 162 22 0 58 51 58 83 0 18 4 37 8 44 11
18 170 29 288 21 168 -13 154 -28 154 172 0 186 -1 189 -55 145z m-585 -155
c0 -5 -2 -10 -4 -10 -3 0 -8 5 -11 10 -3 6 -1 10 4 10 6 0 11 -4 11 -10z"/>
<path d="M480 5222 c0 -5 7 -29 15 -53 18 -49 58 -88 92 -89 12 0 25 -4 28
-10 9 -14 -41 -13 -65 2 -10 7 -22 10 -25 6 -11 -11 -14 -53 -5 -68 8 -12 13
-13 30 -2 27 17 40 15 41 -5 0 -11 7 -3 16 17 14 31 16 33 28 17 12 -16 13
-16 19 8 5 21 12 25 46 25 36 0 110 26 110 39 0 3 -9 21 -20 39 -20 32 -20 33
-83 27 -59 -5 -115 8 -209 49 -11 5 -18 4 -18 -2z"/>
<path d="M849 4845 l-2 -210 -8 130 c-3 72 -7 141 -8 154 -1 17 -4 21 -13 14
-8 -6 -55 -8 -118 -4 -101 6 -104 7 -111 31 l-6 25 -4 -25 c-4 -23 -10 -25
-94 -36 -134 -18 -201 -43 -263 -98 -65 -58 -85 -170 -80 -461 l3 -200 122 -3
121 -3 16 49 c9 27 30 71 47 97 38 60 147 175 166 175 8 0 12 3 10 8 -2 4 47
33 109 65 81 40 114 53 114 42 0 -9 -6 -12 -16 -8 -14 5 -14 3 -2 -18 7 -13
14 -26 15 -27 1 -2 11 -1 22 3 20 6 21 13 21 146 0 91 -4 138 -10 134 -6 -4
-10 26 -11 82 -3 186 -17 141 -20 -62z"/>
<path d="M915 4600 c-8 -13 5 -13 25 0 13 8 13 10 -2 10 -9 0 -20 -4 -23 -10z"/>
<path d="M801 4561 c-7 -5 -9 -11 -5 -14 5 -3 15 1 22 9 14 16 5 18 -17 5z"/>
<path d="M1196 4561 c-3 -5 -47 -18 -98 -30 -169 -40 -153 -32 -152 -74 0 -20
1 -95 2 -166 l2 -130 148 0 c81 0 177 2 214 5 65 6 66 6 50 26 -58 72 -86 98
-95 89 -7 -7 -4 -19 7 -36 29 -44 13 -38 -38 14 -30 32 -40 48 -28 44 20 -5
38 22 22 32 -6 4 -10 1 -10 -6 0 -8 -6 -6 -18 4 -10 10 -21 14 -25 11 -8 -9 4
39 14 52 5 6 5 14 1 18 -4 4 2 14 12 22 11 8 14 14 8 14 -7 0 -12 7 -12 16 0
8 4 13 9 10 8 -6 21 39 21 75 0 19 -24 26 -34 10z m124 -372 c0 -6 -4 -7 -10
-4 -5 3 -10 11 -10 16 0 6 5 7 10 4 6 -3 10 -11 10 -16z"/>
<path d="M756 4526 c4 -11 -1 -18 -16 -24 -19 -7 -20 -10 -7 -21 10 -8 17 -9
22 -1 8 13 25 13 25 0 0 -5 -6 -10 -14 -10 -8 0 -16 -6 -19 -12 -3 -10 -9 -10
-26 0 -18 11 -21 10 -21 -6 0 -10 -19 -36 -41 -57 -23 -22 -39 -32 -36 -22 4
9 2 17 -2 17 -18 0 -18 -26 0 -49 11 -13 19 -33 19 -45 0 -15 -3 -17 -8 -8 -5
8 -16 10 -27 6 -14 -6 -16 -4 -9 7 18 30 11 38 -16 17 -15 -13 -25 -27 -22
-32 3 -5 -1 -6 -8 -1 -7 4 -16 2 -21 -6 -6 -10 -11 -11 -19 -3 -9 9 -9 14 -1
18 6 4 11 13 11 19 -1 7 -9 1 -20 -12 -11 -12 -18 -27 -15 -31 3 -5 1 -11 -5
-15 -5 -3 -10 -11 -10 -17 0 -6 9 -3 20 7 18 17 20 17 14 2 -3 -9 -10 -18 -15
-18 -5 -1 -13 -2 -19 -3 -14 -2 -50 -34 -50 -46 0 -5 10 -10 23 -11 231 -5
407 -5 407 1 0 12 -20 210 -26 259 -3 24 -9 52 -14 61 -6 11 -5 21 3 29 9 9 6
11 -13 8 -14 -3 -31 0 -38 6 -9 7 -11 6 -6 -7z m-45 -131 c5 4 9 1 9 -5 0 -17
-25 -6 -26 11 -1 9 1 10 3 1 3 -7 9 -10 14 -7z m-34 -33 c8 -5 11 -25 8 -55
-2 -26 0 -47 5 -47 17 0 17 -47 -1 -58 -23 -14 -32 -1 -23 33 4 15 1 31 -6 40
-7 9 -10 27 -7 45 5 23 3 28 -8 23 -11 -4 -13 -1 -9 11 7 17 22 20 41 8z m36
-32 c-3 -12 -8 -19 -11 -16 -5 6 5 36 12 36 2 0 2 -9 -1 -20z m-113 -57 c0 4
15 0 33 -10 27 -14 29 -18 13 -21 -11 -2 -25 4 -33 14 -9 12 -13 14 -13 4 0
-16 -29 18 -30 34 0 6 7 1 15 -10 8 -10 15 -16 15 -11z m-56 -18 c-16 -13 -17
-16 -4 -24 12 -8 10 -10 -8 -8 -12 0 -22 3 -22 6 0 9 33 41 43 41 6 0 2 -7 -9
-15z m193 -1 c-3 -3 -12 -4 -19 -1 -8 3 -5 6 6 6 11 1 17 -2 13 -5z"/>
<path d="M3040 4461 l0 -81 50 0 c38 0 50 4 50 15 0 11 -11 15 -36 15 -28 0
-35 3 -32 18 2 10 14 18 31 20 38 5 36 32 -3 32 -20 0 -30 5 -30 15 0 11 11
15 36 15 54 0 37 24 -19 28 l-47 3 0 -80z"/>
<path d="M3160 4535 c0 -4 8 -20 17 -38 9 -18 19 -50 22 -72 4 -27 12 -41 24
-43 14 -3 17 4 17 32 0 20 9 50 20 68 11 18 20 39 20 46 0 24 -27 11 -42 -20
l-17 -33 -12 33 c-8 19 -20 32 -31 32 -10 0 -18 -2 -18 -5z"/>
<path d="M3310 4460 l0 -80 50 0 c38 0 50 4 50 15 0 11 -11 15 -36 15 -28 0
-35 3 -32 18 2 10 14 18 31 20 38 5 36 32 -3 32 -42 0 -40 28 2 32 55 5 46 28
-11 28 l-51 0 0 -80z"/>
<path d="M3451 4514 c-47 -60 -11 -134 64 -134 45 0 40 12 -7 15 -17 2 -38 11
-45 21 -33 45 3 121 53 111 14 -2 27 0 30 4 3 5 -13 9 -35 9 -31 0 -44 -6 -60
-26z"/>
<path d="M3580 4461 c0 -82 16 -113 22 -43 3 35 5 37 38 37 33 0 35 -2 38 -37
6 -70 22 -39 22 42 0 78 -16 112 -22 48 -3 -30 -6 -33 -40 -36 -36 -3 -38 -2
-38 27 0 16 -4 33 -10 36 -6 4 -10 -23 -10 -74z"/>
<path d="M3758 4530 c-9 -6 -22 -26 -28 -44 -26 -80 64 -143 120 -84 27 29 27
91 0 118 -21 21 -64 26 -92 10z m72 -20 c11 -11 20 -33 20 -50 0 -30 -30 -70
-52 -70 -43 0 -65 85 -31 122 21 23 38 23 63 -2z"/>
<path d="M3900 4460 c0 -47 4 -80 10 -80 6 0 10 33 10 80 0 47 -4 80 -10 80
-6 0 -10 -33 -10 -80z"/>
<path d="M3971 4514 c-44 -56 -11 -134 57 -134 17 0 33 4 36 8 2 4 -11 8 -31
8 -23 0 -40 7 -49 19 -34 46 1 122 52 112 14 -2 27 0 30 4 3 5 -13 9 -35 9
-31 0 -44 -6 -60 -26z"/>
<path d="M4100 4460 l0 -80 46 0 c27 0 43 4 39 10 -3 6 -19 10 -36 10 -25 0
-29 4 -29 29 0 26 4 30 33 34 l32 4 -32 1 c-28 2 -33 6 -33 27 0 21 5 25 30
25 17 0 30 5 30 10 0 6 -18 10 -40 10 l-40 0 0 -80z"/>
<path d="M1610 4395 c7 -8 19 -15 27 -15 13 0 13 3 3 15 -7 8 -19 15 -27 15
-13 0 -13 -3 -3 -15z"/>
<path d="M1887 4335 c-10 -68 -10 -76 -1 -127 l6 -38 72 0 71 0 0 99 c0 66 -3
94 -9 83 -5 -9 -14 -21 -20 -25 -8 -6 -7 -10 2 -14 6 -2 12 -11 12 -19 0 -10
-14 -14 -55 -14 -36 0 -56 -4 -57 -12 -1 -7 -4 19 -7 57 l-6 70 -8 -60z m117
-71 c29 -11 8 -19 -38 -16 -25 2 -46 8 -46 13 0 10 60 12 84 3z m-21 -81 c-13
-2 -33 -2 -45 0 -13 2 -3 4 22 4 25 0 35 -2 23 -4z"/>
<path d="M4517 4373 c-4 -3 -7 -11 -7 -17 0 -6 5 -5 12 2 6 6 9 14 7 17 -3 3
-9 2 -12 -2z"/>
<path d="M1680 4330 c0 -5 5 -10 10 -10 6 0 10 5 10 10 0 6 -4 10 -10 10 -5 0
-10 -4 -10 -10z"/>
<path d="M1912 4320 c0 -14 2 -19 5 -12 2 6 2 18 0 25 -3 6 -5 1 -5 -13z"/>
<path d="M3760 4298 c0 -21 2 -38 4 -38 9 0 12 50 5 62 -6 8 -9 -1 -9 -24z"/>
<path d="M4495 4320 c-3 -5 -1 -10 4 -10 6 0 11 5 11 10 0 6 -2 10 -4 10 -3 0
-8 -4 -11 -10z"/>
<path d="M2124 4275 c-47 -53 -49 -90 -7 -106 33 -12 133 -12 133 1 0 15 -45
101 -67 129 l-19 23 -40 -47z"/>
<path d="M3349 4292 c-3 -20 -2 -29 4 -23 5 5 7 19 5 32 -3 20 -5 19 -9 -9z"/>
<path d="M3440 4292 c0 -18 4 -32 8 -32 9 0 8 47 -1 57 -4 3 -7 -8 -7 -25z"/>
<path d="M3690 4311 c0 -10 19 -25 25 -20 1 2 -3 10 -11 17 -8 7 -14 8 -14 3z"/>
<path d="M1247 4303 c-4 -3 -7 -11 -7 -17 0 -6 5 -5 12 2 6 6 9 14 7 17 -3 3
-9 2 -12 -2z"/>
<path d="M1712 4285 c0 -16 2 -22 5 -12 2 9 2 23 0 30 -3 6 -5 -1 -5 -18z"/>
<path d="M3381 4294 c0 -11 3 -14 6 -6 3 7 2 16 -1 19 -3 4 -6 -2 -5 -13z"/>
<path d="M3510 4299 c0 -5 5 -7 10 -4 6 3 10 8 10 11 0 2 -4 4 -10 4 -5 0 -10
-5 -10 -11z"/>
<path d="M3855 4285 c0 -13 3 -21 8 -18 4 2 7 10 7 18 0 8 -3 16 -7 18 -5 3
-8 -5 -8 -18z"/>
<path d="M3915 4300 c3 -5 8 -10 11 -10 2 0 4 5 4 10 0 6 -5 10 -11 10 -5 0
-7 -4 -4 -10z"/>
<path d="M3290 4294 c0 -13 18 -39 24 -34 2 3 -2 14 -10 24 -8 11 -14 16 -14
10z"/>
<path d="M3482 4280 c0 -14 2 -19 5 -12 2 6 2 18 0 25 -3 6 -5 1 -5 -13z"/>
<path d="M3593 4280 c1 -11 5 -20 9 -20 11 0 10 28 -1 35 -6 3 -9 -4 -8 -15z"/>
<path d="M3820 4286 c0 -8 4 -17 9 -20 5 -4 7 3 4 14 -6 23 -13 26 -13 6z"/>
<path d="M3731 4274 c0 -11 3 -14 6 -6 3 7 2 16 -1 19 -3 4 -6 -2 -5 -13z"/>
<path d="M1635 4220 c-22 -16 -52 -32 -67 -35 -44 -10 -43 -25 1 -25 41 0 90
31 112 71 14 26 1 23 -46 -11z"/>
<path d="M126 3994 c-23 -23 -19 -57 9 -84 14 -13 24 -31 24 -39 -1 -13 -2
-12 -6 2 -7 27 -43 22 -43 -7 0 -31 22 -48 57 -44 25 3 28 8 31 42 3 31 -2 44
-24 67 -15 16 -24 32 -21 36 4 3 7 1 7 -5 0 -7 9 -12 20 -12 13 0 20 7 20 18
0 39 -45 55 -74 26z"/>
<path d="M217 4003 c-4 -3 -7 -46 -7 -95 l0 -89 42 3 c45 3 64 26 29 35 -24 6
-29 43 -5 43 10 0 14 7 12 18 -2 9 -10 16 -16 15 -7 -2 -12 6 -12 17 0 11 7
20 15 20 8 0 15 9 15 20 0 16 -7 20 -33 20 -19 0 -37 -3 -40 -7z"/>
<path d="M310 3915 c0 -87 2 -95 19 -95 16 0 21 8 24 43 l4 42 1 -42 c2 -36 5
-43 22 -43 18 0 19 7 19 82 0 46 -5 89 -11 95 -6 7 -26 13 -44 13 l-34 0 0
-95z m47 33 c-3 -8 -6 -5 -6 6 -1 11 2 17 5 13 3 -3 4 -12 1 -19z"/>
<path d="M415 3948 c4 -34 9 -70 10 -78 2 -8 4 -23 4 -33 1 -14 8 -18 29 -15
26 3 27 6 39 87 7 47 10 88 7 93 -10 16 -34 8 -34 -11 0 -11 -3 -28 -7 -38 -6
-14 -9 -10 -13 17 -3 23 -11 36 -24 38 -17 4 -18 -1 -11 -60z"/>
<path d="M520 3916 c0 -90 1 -96 21 -96 19 0 20 5 17 92 -3 79 -6 93 -20 96
-16 3 -18 -6 -18 -92z"/>
<path d="M582 3998 c-7 -7 -12 -41 -12 -84 0 -80 11 -98 57 -92 24 3 28 8 31
41 3 31 0 37 -17 37 -12 0 -21 -8 -24 -22 -2 -13 -4 4 -4 37 0 33 2 50 4 38 7
-35 43 -31 43 5 0 33 -16 52 -45 52 -12 0 -26 -5 -33 -12z"/>
<path d="M679 3955 c0 -30 -1 -68 -1 -85 0 -16 1 -34 1 -40 1 -5 19 -10 41
-10 30 0 40 4 40 16 0 9 -9 18 -20 21 -23 6 -27 43 -5 43 8 0 15 7 15 15 0 9
-7 18 -15 21 -8 4 -15 12 -15 20 0 8 7 14 15 14 8 0 15 9 15 20 0 16 -7 20
-35 20 l-35 0 -1 -55z"/>
<path d="M776 3988 c-21 -29 -21 -29 14 -73 17 -21 30 -43 30 -49 0 -6 -7 -3
-15 8 -14 19 -45 16 -45 -4 0 -27 22 -50 48 -50 56 0 70 57 27 108 l-24 29 24
-5 c29 -5 34 17 9 42 -22 22 -50 20 -68 -6z"/>
<path d="M937 3992 c-12 -13 -17 -37 -17 -76 0 -73 12 -96 50 -96 38 0 50 23
50 99 0 41 -5 64 -16 75 -21 21 -47 20 -67 -2z m43 -77 c0 -30 -4 -55 -10 -55
-5 0 -10 25 -10 55 0 30 5 55 10 55 6 0 10 -25 10 -55z"/>
<path d="M1037 4003 c-4 -3 -7 -46 -7 -95 0 -81 2 -88 20 -88 17 0 20 7 20 40
0 33 3 40 20 40 13 0 20 7 20 20 0 11 -6 20 -14 20 -24 0 -30 21 -7 27 12 3
21 13 21 24 0 15 -7 19 -33 19 -19 0 -37 -3 -40 -7z"/>
<path d="M1127 4003 c-4 -3 -7 -46 -7 -95 0 -81 2 -88 20 -88 17 0 20 7 20 40
0 33 3 40 20 40 13 0 20 7 20 20 0 11 -6 20 -14 20 -24 0 -30 21 -7 27 12 3
21 13 21 24 0 15 -7 19 -33 19 -19 0 -37 -3 -40 -7z"/>
<path d="M1210 3915 l0 -95 40 0 c33 0 40 4 40 19 0 10 -9 21 -20 24 -11 3
-20 10 -20 17 0 7 9 14 20 17 23 6 27 33 5 33 -8 0 -15 9 -15 20 0 11 7 20 15
20 8 0 15 9 15 20 0 17 -7 20 -40 20 l-40 0 0 -95z"/>
<path d="M1300 3915 c0 -88 1 -95 20 -95 16 0 20 7 20 35 0 19 4 35 8 35 5 0
8 -15 8 -32 -1 -27 3 -34 21 -36 22 -3 22 -1 20 83 -3 95 -9 105 -64 105 l-33
0 0 -95z m60 39 c0 -8 -4 -12 -10 -9 -5 3 -10 10 -10 16 0 5 5 9 10 9 6 0 10
-7 10 -16z"/>
<path d="M1410 3915 l0 -95 40 0 c30 0 40 4 40 16 0 9 -9 18 -20 21 -11 3 -20
12 -20 20 0 8 9 17 20 20 11 3 20 11 20 18 0 8 -9 17 -20 20 -11 3 -20 13 -20
21 0 8 9 14 20 14 13 0 20 7 20 20 0 17 -7 20 -40 20 l-40 0 0 -95z"/>
<path d="M1500 3915 l0 -95 40 0 c52 0 63 22 58 107 -4 71 -14 83 -65 83 l-33
0 0 -95z m60 0 c0 -30 -4 -55 -10 -55 -5 0 -10 25 -10 55 0 30 5 55 10 55 6 0
10 -25 10 -55z"/>
<path d="M1616 3953 c-13 -14 -5 -33 14 -33 11 0 20 6 20 14 0 15 -24 28 -34
19z"/>
<path d="M1610 3859 c0 -25 33 -22 38 4 2 12 -3 17 -17 17 -15 0 -21 -6 -21
-21z"/>
<path d="M3557 3843 c-15 -15 -5 -44 18 -55 25 -11 25 -12 25 -144 l0 -132
-25 -6 c-25 -6 -30 -20 -19 -50 5 -14 31 -16 185 -16 l179 0 0 63 c0 73 -9 90
-41 85 -20 -2 -25 -10 -27 -40 l-3 -38 -90 0 -89 0 0 50 c0 49 1 50 29 50 20
0 32 -6 36 -19 7 -22 29 -33 50 -24 13 4 15 20 13 82 -3 74 -4 76 -28 76 -16
0 -28 -8 -35 -22 -7 -16 -18 -23 -37 -23 -27 0 -28 2 -28 50 l0 50 84 0 85 0
3 -37 c3 -33 6 -38 28 -38 24 0 25 3 28 73 l3 72 -169 0 c-93 0 -172 -3 -175
-7z"/>
<path d="M294 3697 c-3 -13 -4 -41 -2 -63 2 -32 7 -40 27 -42 13 -2 28 2 32
10 8 11 10 11 18 0 4 -8 19 -12 32 -10 20 2 25 10 27 42 5 55 -5 86 -27 86
-10 0 -24 -7 -32 -16 -11 -14 -13 -14 -21 0 -14 24 -47 20 -54 -7z m36 -17 c0
-5 7 -10 15 -10 8 0 15 -9 15 -20 0 -13 -5 -18 -15 -14 -8 4 -15 1 -15 -5 0
-6 -4 -11 -8 -11 -5 0 -9 16 -10 35 -1 19 3 35 8 35 6 0 10 -4 10 -10z m67
-42 c-2 -13 -4 -5 -4 17 -1 22 1 32 4 23 2 -10 2 -28 0 -40z"/>
<path d="M440 3655 c0 -37 4 -65 10 -65 6 0 10 7 10 15 0 8 5 15 10 15 6 0 10
-7 10 -15 0 -23 19 -18 30 8 l9 22 0 -22 c1 -19 7 -23 31 -23 25 0 30 4 30 25
0 15 6 25 14 25 18 0 30 33 21 60 -4 13 -15 20 -31 20 -22 0 -24 -3 -24 -54 0
-30 -4 -58 -10 -61 -6 -4 -10 17 -10 54 0 54 -2 61 -20 61 -13 0 -20 -7 -20
-20 0 -11 -4 -20 -10 -20 -5 0 -10 9 -10 20 0 13 -7 20 -20 20 -18 0 -20 -7
-20 -65z"/>
<path d="M630 3655 l0 -65 29 0 c28 0 30 3 34 43 l4 42 1 -42 c2 -41 4 -43 32
-43 33 0 39 14 13 29 -17 10 -17 12 0 25 18 14 18 15 0 26 -13 8 -14 13 -5 16
22 10 13 34 -13 34 -17 0 -25 -6 -25 -17 -1 -17 -1 -17 -11 0 -5 9 -21 17 -34
17 -24 0 -25 -3 -25 -65z m33 -40 c-7 -21 -13 -19 -13 6 0 11 4 18 10 14 5 -3
7 -12 3 -20z"/>
<path d="M770 3655 c0 -37 4 -65 10 -65 6 0 10 14 10 31 0 19 4 28 11 23 6 -3
9 -17 6 -30 -4 -23 -1 -24 44 -24 50 0 62 11 32 29 -17 9 -17 11 2 25 19 13
19 15 3 21 -22 9 -24 25 -3 25 8 0 15 7 15 15 0 12 -11 15 -45 13 -36 -1 -45
-5 -45 -19 0 -10 -4 -21 -10 -24 -6 -4 -10 5 -10 19 0 14 -4 26 -10 26 -6 0
-10 -28 -10 -65z m67 -32 c-2 -16 -4 -3 -4 27 0 30 2 43 4 28 2 -16 2 -40 0
-55z"/>
<path d="M910 3657 l0 -62 85 -2 85 -1 0 64 c0 50 -3 64 -15 64 -8 0 -15 -5
-15 -12 0 -9 -3 -9 -12 0 -17 17 -45 15 -57 -5 -10 -17 -10 -17 -11 0 0 9 -4
17 -10 17 -5 0 -10 -8 -10 -17 -1 -17 -1 -17 -11 0 -19 32 -29 17 -29 -46z
m126 23 c8 0 14 -10 14 -21 0 -21 -1 -21 -20 4 -11 14 -20 29 -19 34 0 4 3 2
6 -4 2 -7 11 -13 19 -13z m-30 -38 c-9 -9 -37 8 -31 18 5 8 11 7 21 -1 8 -6
12 -14 10 -17z"/>
<path d="M1090 3701 c0 -10 3 -39 6 -65 5 -34 11 -46 24 -46 12 0 20 14 27 48
l10 47 2 -47 c1 -46 2 -48 31 -48 33 0 39 14 13 29 -17 10 -17 12 1 26 17 13
17 15 3 21 -21 8 -22 24 -2 24 8 0 15 7 15 15 0 11 -12 15 -45 15 -40 0 -45
-3 -46 -22 l0 -23 -9 23 c-11 27 -30 29 -30 3z"/>
<path d="M1260 3655 l0 -65 30 0 c32 0 40 14 15 24 -21 8 -19 36 3 36 15 1 15
2 -3 16 -17 13 -18 16 -5 24 8 5 18 10 21 10 9 0 19 -39 19 -77 0 -23 5 -33
15 -33 9 0 15 9 15 24 0 38 12 86 21 86 5 0 9 -25 9 -55 0 -52 1 -55 25 -55
29 0 33 14 8 30 -17 10 -17 10 0 20 21 13 22 30 2 30 -8 0 -15 5 -15 10 0 6 7
10 15 10 8 0 15 7 15 15 0 19 -86 21 -93 3 -4 -10 -6 -10 -6 0 -1 8 -17 12
-46 12 l-45 0 0 -65z"/>
<path d="M1506 3708 c-3 -7 -7 -37 -10 -65 -4 -41 -2 -53 9 -53 7 0 16 6 19
13 5 10 7 10 12 0 3 -7 18 -13 34 -13 16 0 31 6 33 13 4 10 6 10 6 0 1 -7 8
-13 16 -13 12 0 15 14 15 65 0 49 -3 65 -14 65 -8 0 -17 -6 -19 -12 -4 -10 -6
-10 -6 0 -1 6 -8 12 -16 12 -12 0 -15 -14 -15 -62 0 -34 -2 -59 -4 -57 -4 4
-14 72 -15 107 -1 6 -10 12 -21 12 -11 0 -22 -6 -24 -12z m29 -57 c3 -5 1 -12
-5 -16 -5 -3 -10 1 -10 9 0 18 6 21 15 7z"/>
<path d="M1650 3656 l0 -66 30 0 31 0 -3 63 c-3 59 -4 62 -30 65 l-28 3 0 -65z
m37 -18 c-2 -13 -4 -5 -4 17 -1 22 1 32 4 23 2 -10 2 -28 0 -40z"/>
<path d="M1760 3701 c0 -10 3 -39 6 -65 5 -35 11 -46 25 -46 14 0 19 11 24 48
10 78 13 80 14 15 1 -49 4 -63 16 -63 8 0 15 5 15 11 0 6 7 3 16 -5 8 -9 19
-16 24 -16 5 0 16 7 24 16 9 8 16 11 16 5 0 -6 5 -11 10 -11 6 0 10 28 10 65
0 37 -4 65 -10 65 -5 0 -10 -8 -10 -17 -1 -17 -1 -17 -11 0 -12 20 -40 22 -57
5 -9 -9 -12 -9 -12 0 0 7 -13 12 -30 12 -24 0 -30 -4 -31 -22 l0 -23 -11 23
c-13 27 -28 29 -28 3z m180 -49 c0 -14 -1 -23 -2 -21 -2 2 -13 16 -26 30 l-23
26 25 -4 c20 -4 26 -11 26 -31z m-38 -37 c-4 -5 -8 -2 -10 8 -2 9 -10 17 -18
17 -8 0 -14 9 -14 21 0 18 2 18 24 -8 13 -15 21 -32 18 -38z"/>
<path d="M1981 3698 c-11 -29 -3 -100 12 -110 6 -3 19 -2 29 3 16 8 18 20 16
67 -3 50 -6 57 -26 60 -16 2 -25 -3 -31 -20z m26 -70 c-2 -13 -4 -3 -4 22 0
25 2 35 4 23 2 -13 2 -33 0 -45z"/>
<path d="M2050 3656 l0 -64 35 0 35 0 0 64 c0 49 -3 64 -14 64 -8 0 -17 -8
-19 -17 -4 -17 -5 -17 -6 0 0 9 -8 17 -16 17 -12 0 -15 -14 -15 -64z"/>
<path d="M2168 3708 c-3 -7 -5 -35 -4 -63 l1 -50 80 -2 c52 -1 82 3 87 10 6 9
8 9 8 0 0 -7 7 -13 15 -13 13 0 15 9 9 58 -7 68 -9 72 -35 72 -15 0 -19 -7
-20 -37 -1 -21 -4 -49 -8 -63 l-7 -25 -6 30 c-3 16 -4 43 -1 60 5 30 3 32 -27
32 -30 0 -31 -2 -26 -31 3 -17 2 -43 -2 -58 -6 -25 -8 -25 -27 -12 -19 15 -19
16 -2 29 18 13 18 14 0 24 -17 10 -17 12 0 21 9 6 17 15 17 20 0 15 -47 12
-52 -2z"/>
<path d="M2380 3655 c0 -65 19 -94 21 -32 l1 32 7 -30 c7 -34 37 -46 44 -18 4
17 5 17 6 1 0 -10 6 -18 11 -18 6 0 10 28 10 65 0 58 -2 65 -20 65 -15 0 -20
-7 -21 -27 l-1 -28 -11 28 c-6 15 -19 27 -29 27 -16 0 -18 -9 -18 -65z"/>
<path d="M2490 3655 c0 -51 3 -65 15 -65 12 0 15 14 15 65 0 51 -3 65 -15 65
-12 0 -15 -14 -15 -65z"/>
<path d="M2530 3657 l0 -63 50 -2 c33 -1 50 2 50 10 0 9 3 9 12 0 28 -28 35
-1 22 81 -6 31 -11 37 -30 37 -22 0 -24 -4 -24 -55 0 -30 -3 -55 -7 -55 -5 0
-8 23 -8 52 0 51 -18 78 -28 41 -4 -17 -5 -17 -6 0 0 9 -8 17 -16 17 -12 0
-15 -14 -15 -63z"/>
<path d="M2684 3698 c3 -13 6 -42 6 -65 0 -32 4 -43 15 -43 11 0 15 12 15 49
0 28 5 53 10 56 6 4 10 -15 10 -49 0 -43 3 -56 15 -56 9 0 15 9 16 23 l0 22
10 -23 c6 -17 15 -22 31 -20 21 3 23 8 23 63 0 55 -2 60 -23 63 -16 2 -25 -3
-30 -19 l-9 -23 -5 22 c-5 18 -13 22 -48 22 -39 0 -42 -2 -36 -22z m136 -49
c0 -24 -4 -38 -10 -34 -17 10 -11 75 7 75 2 0 3 -18 3 -41z"/>
<path d="M2850 3655 c0 -50 3 -65 14 -65 8 0 17 8 19 18 4 16 5 16 6 0 0 -10
8 -18 16 -18 12 0 15 14 15 65 0 49 -3 65 -14 65 -8 0 -17 -6 -19 -12 -4 -10
-6 -10 -6 0 -1 6 -8 12 -16 12 -12 0 -15 -14 -15 -65z"/>
<path d="M146 3653 c-10 -25 23 -48 41 -30 8 7 11 21 7 30 -8 22 -40 22 -48 0z"/>
<path d="M4271 3644 c0 -11 3 -14 6 -6 3 7 2 16 -1 19 -3 4 -6 -2 -5 -13z"/>
<path d="M3130 3640 c0 -5 5 -10 10 -10 6 0 10 5 10 10 0 6 -4 10 -10 10 -5 0
-10 -4 -10 -10z"/>
<path d="M3220 3634 c0 -8 5 -12 10 -9 6 3 10 10 10 16 0 5 -4 9 -10 9 -5 0
-10 -7 -10 -16z"/>
<path d="M297 3503 c-11 -10 -8 -133 3 -133 6 0 10 30 10 70 0 70 -1 76 -13
63z"/>
<path d="M363 3502 l-43 -3 0 -59 c0 -62 12 -83 29 -53 6 10 11 12 11 6 0 -7
7 -13 15 -13 12 0 15 13 15 57 0 69 17 61 22 -11 4 -72 28 -74 28 -2 0 71 18
74 22 4 l3 -53 60 0 60 0 6 45 6 45 1 -42 c2 -42 15 -63 28 -42 5 8 9 8 14 -1
19 -31 30 24 21 113 -1 17 -61 10 -61 -7 0 -6 -5 -4 -10 5 -6 11 -18 15 -35
11 -23 -4 -25 -9 -25 -53 0 -42 -3 -49 -20 -49 -11 0 -20 7 -20 15 0 8 7 15
15 15 20 0 19 19 -1 27 -15 6 -15 7 1 20 10 7 16 16 12 19 -8 8 -91 11 -154 6z"/>
<path d="M690 3490 c-12 -23 -13 -120 -1 -120 5 0 12 6 14 13 4 8 8 9 14 1 8
-11 79 -12 90 -1 3 4 -2 9 -11 13 -12 4 -16 19 -16 55 0 37 -4 49 -15 49 -11
0 -15 -14 -17 -57 -1 -37 -3 -45 -5 -23 -6 59 -12 78 -28 84 -8 3 -19 -3 -25
-14z"/>
<path d="M874 3502 c-16 -10 -29 -118 -16 -126 6 -3 14 -2 17 4 5 8 11 7 21
-1 20 -16 25 4 16 70 -7 54 -17 67 -38 53z"/>
<path d="M1009 3507 c-7 -9 -6 -128 1 -132 4 -3 20 -1 35 5 24 9 26 14 23 62
-3 47 -6 52 -30 59 -16 4 -29 7 -29 6z m28 -89 c-2 -13 -4 -3 -4 22 0 25 2 35
4 23 2 -13 2 -33 0 -45z"/>
<path d="M1133 3503 c-9 -3 -13 -27 -13 -69 0 -62 1 -64 25 -64 27 0 35 24 10
34 -8 3 -15 10 -15 16 0 5 7 10 15 10 8 0 15 4 15 9 0 5 -7 11 -15 15 -8 3
-15 10 -15 16 0 5 7 10 15 10 8 0 15 7 15 15 0 15 -14 18 -37 8z"/>
<path d="M1189 3510 c0 -3 -2 -35 -3 -72 -3 -64 7 -88 20 -53 6 14 8 13 20 -2
12 -16 13 -10 14 46 0 55 2 62 15 51 10 -8 15 -30 15 -61 0 -65 18 -63 22 3 2
29 8 53 15 55 9 3 12 -11 10 -49 l-2 -53 43 -3 c36 -3 44 0 51 20 l10 23 0
-22 c2 -44 21 -22 23 25 l1 47 6 -44 c3 -25 12 -46 19 -49 6 -2 12 2 12 9 0
10 3 10 12 1 23 -23 28 -12 28 54 0 61 -2 66 -20 61 -10 -3 -21 0 -23 7 -3 8
-8 8 -18 -1 -9 -7 -20 -8 -28 -4 -7 5 -22 6 -32 4 -15 -4 -19 -15 -19 -54 0
-37 -4 -49 -15 -49 -18 0 -20 26 -2 34 10 5 10 7 0 12 -7 3 -13 12 -13 19 0 7
6 15 13 18 22 8 1 17 -51 22 -28 3 -61 1 -75 -4 -16 -6 -28 -6 -36 2 -6 6 -11
9 -12 7z"/>
<path d="M1547 3503 c-10 -18 -18 -133 -8 -133 5 0 13 5 16 10 5 8 11 7 21 -1
20 -16 25 4 16 71 -5 39 -12 56 -24 58 -9 2 -18 -1 -21 -5z"/>
<path d="M1610 3440 c0 -63 2 -70 19 -70 26 0 37 18 17 26 -12 5 -16 20 -16
60 0 30 -4 54 -10 54 -6 0 -10 -30 -10 -70z"/>
<path d="M1706 3503 c-3 -4 -6 -35 -6 -70 l0 -63 30 0 c33 0 42 23 13 35 -17
6 -17 7 1 21 19 14 19 14 1 28 -18 13 -18 14 2 25 20 10 22 8 29 -32 4 -23 8
-48 8 -56 1 -8 6 -16 12 -18 7 -2 14 17 18 49 10 76 20 81 26 13 4 -53 8 -60
28 -63 27 -4 31 22 5 33 -17 6 -17 8 2 21 20 15 20 15 1 26 -18 10 -18 11 -2
24 26 19 12 31 -31 28 -21 -2 -40 -4 -43 -5 -3 -1 -9 0 -15 1 -29 6 -74 8 -79
3z"/>
<path d="M1940 3438 l0 -68 40 0 c27 0 42 6 49 18 10 16 10 16 11 0 0 -13 7
-17 28 -16 15 1 31 7 35 13 6 7 10 6 14 -2 11 -28 23 -10 23 35 0 71 -9 94
-34 90 -18 -3 -21 -11 -24 -61 -4 -69 -22 -67 -22 3 0 27 -4 52 -10 55 -5 3
-10 1 -10 -5 0 -6 -5 -8 -11 -4 -7 4 -29 7 -50 8 l-39 1 0 -67z m70 -4 c0 -36
-6 -45 -26 -37 -17 6 -18 29 -1 37 10 5 10 7 0 12 -7 3 -13 12 -13 19 0 17 23
25 32 11 4 -6 8 -25 8 -42z"/>
<path d="M2162 3501 c-16 -9 -13 -123 3 -119 6 2 9 9 9 16 -1 6 2 12 7 12 5 0
9 -9 9 -21 0 -28 23 -19 31 12 7 23 7 23 8 -4 1 -40 25 -29 29 13 2 19 1 48
-2 65 -8 41 -35 42 -43 2 l-6 -29 -13 31 c-14 34 -14 34 -32 22z"/>
<path d="M2270 3440 c0 -40 4 -70 10 -70 6 0 10 30 10 70 0 40 -4 70 -10 70
-6 0 -10 -30 -10 -70z"/>
<path d="M2307 3503 c-11 -10 -8 -121 2 -128 6 -3 14 3 20 12 6 10 11 12 11 6
0 -7 7 -13 15 -13 12 0 15 13 15 60 0 48 -3 60 -16 60 -8 0 -12 -4 -9 -10 3
-5 1 -10 -4 -10 -6 0 -11 7 -11 15 0 16 -12 20 -23 8z"/>
<path d="M2455 3500 c-4 -6 -2 -17 4 -23 6 -6 11 -33 11 -59 0 -26 5 -48 10
-48 11 0 13 9 10 61 -1 22 5 41 14 48 14 12 16 7 16 -48 0 -39 4 -60 10 -56 6
3 10 16 10 28 0 21 1 21 13 -2 15 -30 31 -36 48 -18 12 12 16 12 28 -1 14 -13
16 -12 21 9 l6 24 6 -22 c12 -47 28 -23 28 42 0 37 -4 65 -10 65 -5 0 -10 -5
-10 -11 0 -6 -7 -3 -16 5 -19 20 -34 12 -35 -17 -1 -20 -2 -21 -6 -2 -10 40
-47 40 -63 1 -9 -21 -9 -21 -9 2 -1 14 -7 22 -18 22 -10 0 -28 3 -39 6 -12 3
-25 0 -29 -6z m132 -82 c-2 -13 -4 -3 -4 22 0 25 2 35 4 23 2 -13 2 -33 0 -45z
m30 10 c-3 -8 -6 -5 -6 6 -1 11 2 17 5 13 3 -3 4 -12 1 -19z"/>
<path d="M930 3435 c0 -37 4 -65 10 -65 6 0 10 5 10 12 0 9 3 9 12 0 22 -22
28 -12 28 53 0 59 -11 84 -23 53 -4 -10 -6 -10 -6 0 -1 6 -8 12 -16 12 -12 0
-15 -14 -15 -65z"/>
<path d="M2386 3469 c-9 -45 -7 -87 3 -93 5 -4 11 0 14 6 3 10 7 10 19 1 21
-18 23 -12 20 56 -3 56 -6 61 -27 61 -17 0 -24 -7 -29 -31z"/>
<path d="M150 3444 c-11 -12 -10 -18 3 -32 16 -15 18 -15 34 0 13 14 14 20 3
32 -7 9 -16 16 -20 16 -4 0 -13 -7 -20 -16z"/>
<path d="M3464 3345 c-3 -8 1 -21 8 -29 21 -20 22 -110 3 -129 -28 -28 -17
-37 46 -37 44 0 60 3 57 13 -3 6 -17 13 -31 15 -21 3 -27 9 -27 28 0 25 18 32
37 13 17 -17 33 -1 33 32 0 30 -30 54 -38 31 -7 -23 -32 -13 -32 13 0 23 4 25
44 25 35 0 45 -4 49 -20 7 -28 25 -25 33 5 12 49 2 55 -91 55 -66 0 -87 -3
-91 -15z"/>
<path d="M3873 3343 c-4 -9 -1 -19 5 -21 8 -2 12 -28 12 -72 0 -54 -3 -69 -17
-74 -31 -12 3 -27 56 -24 53 3 71 21 26 26 -17 2 -25 9 -25 23 0 15 7 19 33
19 58 0 97 62 69 108 -21 32 -148 44 -159 15z m131 -45 c14 -22 1 -36 -42 -44
-31 -6 -32 -6 -32 30 0 36 1 37 31 34 18 -2 37 -11 43 -20z"/>
<path d="M294 3286 c-3 -7 -4 -35 -2 -62 3 -43 6 -49 27 -52 13 -2 27 2 31 8
6 9 12 9 28 -1 34 -21 54 4 50 65 -3 45 -6 51 -27 54 -13 2 -27 -2 -32 -10 -6
-10 -11 -10 -21 0 -16 16 -47 15 -54 -2z m36 -26 c0 -5 7 -10 15 -10 9 0 15
-9 14 -22 0 -13 -3 -17 -6 -10 -7 18 -23 15 -23 -5 0 -27 -13 -6 -17 27 -1 16
2 30 7 30 6 0 10 -4 10 -10z m67 -42 c-2 -13 -4 -5 -4 17 -1 22 1 32 4 23 2
-10 2 -28 0 -40z"/>
<path d="M440 3235 c0 -37 4 -65 10 -65 6 0 10 8 10 18 1 16 1 16 14 0 21 -29
26 -21 26 38 0 73 24 70 28 -4 4 -66 22 -68 22 -3 0 28 5 53 10 56 25 16 5 25
-55 25 l-65 0 0 -65z"/>
<path d="M587 3293 c-11 -10 -8 -123 2 -123 5 0 12 6 15 13 5 10 7 10 12 0 3
-7 11 -13 18 -13 9 0 10 15 5 58 -3 31 -4 60 -2 65 5 9 -41 10 -50 0z"/>
<path d="M654 3277 c-3 -13 -4 -41 -2 -63 3 -34 7 -39 30 -42 19 -2 28 2 33
17 10 31 -5 48 -22 26 -12 -17 -13 -15 -12 21 0 21 3 33 6 27 5 -15 33 -18 33
-4 0 44 -55 59 -66 18z"/>
<path d="M720 3291 c0 -6 5 -13 10 -16 6 -3 10 -28 10 -56 0 -27 5 -49 10 -49
6 0 10 22 10 49 0 28 5 53 10 56 20 12 9 25 -20 25 -16 0 -30 -4 -30 -9z"/>
<path d="M820 3235 l0 -64 95 1 c104 2 98 -3 98 68 0 57 0 57 -63 59 l-60 2 0
-56 c0 -48 -3 -56 -17 -53 -14 2 -19 15 -21 56 -2 37 -7 52 -18 52 -11 0 -14
-15 -14 -65z m121 -38 c-8 -8 -15 -7 -23 2 -11 10 -10 14 5 22 21 12 22 29 2
29 -20 0 -19 17 3 29 15 8 17 5 20 -31 2 -22 -2 -46 -7 -51z"/>
<path d="M1029 3288 c-2 -25 3 -43 17 -59 8 -8 14 -20 14 -25 0 -5 -5 -2 -10
6 -9 13 -11 13 -19 1 -14 -21 -2 -41 25 -41 31 0 44 43 20 69 -19 21 -21 32
-3 29 6 -2 12 4 12 12 0 19 -54 27 -56 8z"/>
<path d="M1140 3266 c0 -18 -3 -48 -6 -65 -5 -24 -3 -31 10 -31 9 0 16 5 16
11 0 8 5 7 16 -2 13 -10 17 -10 25 2 6 10 9 10 9 2 0 -18 49 -16 56 2 6 14 8
14 18 -1 7 -9 21 -15 32 -13 26 6 31 55 8 81 -14 15 -15 19 -4 16 8 -2 15 4
15 12 0 8 -10 16 -23 18 -28 4 -40 -23 -23 -51 22 -34 -3 -39 -34 -7 -28 29
-28 30 -6 30 32 0 21 24 -12 28 -23 3 -27 0 -27 -23 0 -15 7 -33 15 -41 8 -9
15 -21 15 -27 0 -7 -4 -6 -10 3 -9 13 -11 13 -20 0 -5 -8 -10 -10 -11 -5 -1 6
-3 15 -4 20 -2 6 -3 25 -4 43 -1 27 -5 32 -26 32 -22 0 -25 -4 -25 -34z"/>
<path d="M1350 3235 l0 -65 30 0 c32 0 40 14 15 24 -8 3 -15 10 -15 16 0 5 7
10 15 10 8 0 15 7 15 15 0 8 -7 15 -15 15 -8 0 -15 7 -15 15 0 8 7 15 15 15 8
0 15 5 15 10 0 6 -13 10 -30 10 l-30 0 0 -65z"/>
<path d="M1416 3283 c-4 -10 1 -28 14 -45 24 -32 26 -46 5 -28 -20 16 -29 7
-20 -19 7 -23 44 -28 63 -9 9 9 12 9 12 -1 0 -8 10 -11 28 -9 35 4 43 45 12
73 -22 20 -28 44 -6 26 10 -8 16 -9 21 -1 10 16 -4 30 -31 30 -19 0 -24 -5
-24 -26 0 -14 7 -32 15 -40 8 -9 15 -21 15 -27 0 -8 -3 -7 -9 2 -5 7 -13 11
-17 9 -5 -3 -19 8 -32 23 -23 28 -23 29 -3 29 14 0 19 5 15 15 -8 20 -50 19
-58 -2z"/>
<path d="M1560 3235 c0 -49 3 -65 14 -65 8 0 17 6 19 13 4 10 6 10 6 0 2 -21
21 -15 31 10 l9 22 0 -22 c1 -13 6 -23 11 -23 6 0 10 28 10 65 0 57 -2 65 -19
65 -10 0 -22 -10 -26 -22 l-8 -23 -4 23 c-3 14 -12 22 -24 22 -17 0 -19 -7
-19 -65z"/>
<path d="M1680 3235 c0 -63 1 -65 25 -65 29 0 32 8 8 26 -17 12 -17 14 1 27
19 14 19 14 0 26 -18 10 -18 12 -1 25 24 18 21 26 -8 26 -24 0 -25 -2 -25 -65z"/>
<path d="M1740 3234 l0 -64 30 0 30 0 0 63 0 64 -30 1 -30 1 0 -65z"/>
<path d="M1814 3284 c3 -9 6 -38 6 -65 0 -35 4 -49 14 -49 10 0 15 15 18 48 3
26 8 55 12 65 7 14 3 17 -24 17 -25 0 -31 -3 -26 -16z"/>
<path d="M1916 3254 c-9 -69 -8 -84 9 -84 8 0 15 5 15 12 0 9 3 9 12 0 7 -7
22 -12 35 -12 13 0 23 5 23 12 0 9 3 9 12 0 22 -22 28 -12 28 53 0 59 -11 84
-23 53 -4 -10 -6 -10 -6 0 -1 6 -8 12 -16 12 -16 0 -18 -9 -15 -47 1 -13 -3
-23 -9 -23 -6 0 -11 16 -11 35 0 30 -3 35 -24 35 -20 0 -24 -6 -30 -46z"/>
<path d="M2067 3294 c-4 -4 -7 -34 -7 -66 l0 -59 33 3 32 3 0 60 c0 57 -1 60
-25 63 -14 2 -29 0 -33 -4z m30 -81 c-3 -10 -5 -4 -5 12 0 17 2 24 5 18 2 -7
2 -21 0 -30z"/>
<path d="M2180 3235 c0 -64 16 -91 22 -38 2 17 10 29 21 31 13 3 17 -3 17 -27
0 -17 5 -31 10 -31 6 0 10 27 10 61 0 54 2 60 15 49 10 -8 15 -30 15 -61 0
-27 5 -49 10 -49 6 0 10 25 10 56 0 47 3 55 18 52 13 -2 18 -15 20 -56 4 -67
20 -68 24 0 4 74 28 77 28 4 0 -31 5 -56 10 -56 6 0 10 28 10 65 l0 65 -120 0
-120 0 0 -65z m60 30 c0 -8 -6 -15 -14 -15 -17 0 -28 14 -19 24 12 12 33 6 33
-9z"/>
<path d="M2430 3235 c0 -50 3 -65 14 -65 8 0 17 8 19 18 4 16 5 16 6 0 0 -10
8 -18 16 -18 12 0 15 14 15 65 0 49 -3 65 -14 65 -8 0 -17 -6 -19 -12 -4 -10
-6 -10 -6 0 -1 6 -8 12 -16 12 -12 0 -15 -14 -15 -65z"/>
<path d="M2514 3287 c-3 -8 -4 -36 -2 -63 3 -46 5 -49 31 -49 15 0 27 3 27 8
0 4 0 21 0 38 0 20 -4 29 -12 26 -7 -2 -12 -14 -11 -26 2 -11 -2 -21 -7 -21
-6 0 -10 16 -10 36 0 31 2 35 21 29 17 -6 20 -3 17 12 -4 22 -46 30 -54 10z"/>
<path d="M4272 3295 c4 -4 3 -14 -3 -22 -7 -8 -8 -13 -1 -13 15 0 23 28 9 36
-7 4 -9 4 -5 -1z"/>
<path d="M3106 3243 c-6 -14 -5 -15 5 -6 7 7 10 15 7 18 -3 3 -9 -2 -12 -12z"/>
<path d="M3136 3251 c-4 -7 -5 -15 -2 -18 9 -9 19 4 14 18 -4 11 -6 11 -12 0z"/>
<path d="M3190 3246 c0 -9 5 -16 10 -16 6 0 10 4 10 9 0 6 -4 13 -10 16 -5 3
-10 -1 -10 -9z"/>
<path d="M3220 3246 c0 -9 5 -16 10 -16 6 0 10 4 10 9 0 6 -4 13 -10 16 -5 3
-10 -1 -10 -9z"/>
<path d="M146 3241 c-10 -16 5 -41 24 -41 23 0 32 13 24 34 -7 17 -39 22 -48
7z"/>
<path d="M290 3044 l0 -65 27 3 c22 2 29 10 34 33 4 17 8 26 9 20 1 -5 3 -14
5 -20 1 -5 3 -16 3 -22 1 -7 15 -13 32 -13 30 0 30 0 30 58 0 65 15 56 26 -15
3 -24 10 -43 14 -43 4 0 10 19 14 43 3 23 9 52 12 65 5 16 2 22 -10 22 -10 0
-14 -4 -11 -10 3 -5 1 -10 -4 -10 -6 0 -11 4 -11 9 0 5 -21 8 -47 7 -41 -1
-48 -4 -54 -26 l-7 -25 -1 28 c-1 23 -5 27 -31 27 l-30 0 0 -66z m37 -16 c-2
-13 -4 -5 -4 17 -1 22 1 32 4 23 2 -10 2 -28 0 -40z"/>
<path d="M550 3045 c0 -63 1 -65 25 -65 27 0 34 15 10 24 -8 3 -15 10 -15 16
0 5 7 10 15 10 20 0 19 20 -2 35 -15 11 -15 13 5 24 20 11 22 8 34 -49 6 -33
15 -60 19 -60 4 0 10 21 13 48 4 26 9 54 12 63 4 14 -5 17 -56 18 l-60 1 0
-65z"/>
<path d="M680 3045 c0 -62 1 -65 24 -65 14 0 28 5 31 10 3 6 -1 10 -9 10 -9 0
-16 7 -16 15 0 8 5 15 10 15 6 0 10 7 10 15 0 8 -4 15 -10 15 -5 0 -10 7 -10
15 0 8 5 15 10 15 6 0 10 5 10 10 0 6 -11 10 -25 10 -24 0 -25 -2 -25 -65z"/>
<path d="M780 3083 c0 -16 5 -34 12 -41 9 -9 9 -12 -1 -12 -7 0 -11 -9 -9 -22
2 -17 10 -23 28 -23 32 0 38 33 14 69 -15 24 -15 26 1 26 27 0 11 25 -18 28
-24 3 -27 0 -27 -25z"/>
<path d="M854 3096 c-3 -7 -4 -35 -2 -62 3 -43 6 -49 27 -52 13 -2 28 2 32 10
7 10 9 10 9 1 0 -8 14 -13 35 -13 33 0 34 1 33 35 -1 19 2 38 5 42 4 3 7 -12
7 -35 l0 -42 74 0 c50 0 76 4 79 13 4 10 6 10 6 0 1 -7 8 -13 16 -13 12 0 15
14 15 65 l0 65 -30 0 c-29 0 -30 -1 -30 -49 0 -52 -13 -72 -33 -52 -9 9 -8 15
6 22 21 12 22 29 2 29 -8 0 -15 7 -15 15 0 8 7 15 15 15 8 0 15 5 15 10 0 6
-13 10 -30 10 -30 0 -30 -1 -30 -55 0 -42 -3 -55 -15 -55 -8 0 -15 7 -15 15 0
8 5 15 10 15 6 0 10 7 10 15 0 8 -4 15 -10 15 -5 0 -10 7 -10 15 0 8 5 15 10
15 6 0 10 5 10 10 0 6 -11 10 -25 10 -17 0 -25 -6 -25 -17 -1 -17 -1 -17 -11
0 -6 10 -22 17 -39 17 -19 0 -30 -6 -33 -17 -4 -17 -5 -17 -6 0 -1 21 -49 24
-57 3z m66 -44 c0 -11 -7 -18 -20 -18 -25 0 -27 23 -2 29 9 3 18 5 20 6 1 0 2
-7 2 -17z"/>
<path d="M1200 3045 c0 -51 3 -65 15 -65 12 0 15 14 15 65 0 51 -3 65 -15 65
-12 0 -15 -14 -15 -65z"/>
<path d="M1240 3045 l0 -65 36 0 c27 0 35 4 31 14 -3 8 -2 27 3 43 8 26 8 25
9 -14 1 -41 3 -43 31 -43 28 0 30 2 30 40 0 33 -3 40 -20 40 -11 0 -20 5 -20
11 0 6 9 8 21 4 17 -6 20 -3 17 12 -4 22 -47 30 -59 11 -7 -10 -9 -10 -9 0 0
19 -28 14 -33 -5 -4 -17 -5 -17 -6 0 0 9 -8 17 -16 17 -12 0 -15 -14 -15 -65z
m120 -25 c0 -5 -4 -10 -10 -10 -5 0 -10 5 -10 10 0 6 5 10 10 10 6 0 10 -4 10
-10z"/>
<path d="M1435 3098 c-2 -7 -6 -37 -10 -65 -5 -44 -3 -53 10 -53 8 0 15 5 15
12 0 9 3 9 12 0 16 -16 65 -15 71 1 4 10 6 10 6 0 2 -25 30 -13 34 15 l4 27 2
-28 c1 -25 5 -28 29 -25 56 6 55 128 -2 128 -13 0 -27 -6 -29 -12 -4 -10 -6
-10 -6 0 -1 6 -7 12 -15 12 -8 0 -17 -6 -19 -12 -4 -10 -6 -10 -6 0 -1 6 -8
12 -16 12 -12 0 -15 -14 -16 -62 -1 -35 -4 -49 -6 -33 -10 84 -14 95 -34 95
-11 0 -21 -6 -24 -12z m184 -50 c-1 -42 -1 -42 -10 -13 -5 17 -7 36 -4 43 9
24 15 11 14 -30z m-42 0 c-3 -7 -5 -2 -5 12 0 14 2 19 5 13 2 -7 2 -19 0 -25z"/>
<path d="M1690 3045 c0 -50 3 -65 14 -65 8 0 17 8 19 18 4 16 5 16 6 0 2 -29
29 -21 34 10 l4 27 2 -27 c1 -24 5 -28 30 -28 16 0 32 6 35 13 5 10 7 10 12 0
9 -20 62 -16 67 5 4 16 5 16 6 0 1 -21 56 -26 64 -5 4 9 8 8 16 -3 18 -26 28
2 22 60 -5 47 -9 55 -28 58 -19 3 -22 -3 -28 -45 -10 -79 -13 -81 -14 -15 -1
46 -5 62 -15 62 -8 0 -17 -8 -19 -17 -4 -17 -5 -17 -6 0 0 9 -8 17 -16 17 -12
0 -15 -14 -16 -62 -1 -66 -4 -64 -14 15 -6 42 -9 48 -28 45 -19 -3 -23 -11
-27 -55 -3 -28 -9 -55 -14 -60 -4 -4 -5 20 -2 55 6 61 5 62 -18 62 -19 0 -26
-6 -29 -27 l-4 -28 -2 28 c-1 22 -6 27 -26 27 -24 0 -25 -2 -25 -65z"/>
<path d="M2034 3076 c-3 -19 -3 -48 1 -65 5 -26 11 -31 36 -31 27 0 29 2 29
41 0 36 -2 41 -20 36 -12 -3 -20 0 -20 8 0 9 8 11 22 7 17 -4 20 -2 15 12 -4
10 -7 20 -7 22 0 2 -11 4 -25 4 -20 0 -25 -6 -31 -34z m33 -58 c-3 -8 -6 -5
-6 6 -1 11 2 17 5 13 3 -3 4 -12 1 -19z"/>
<path d="M2110 3045 l0 -65 44 0 c41 0 45 2 49 28 l4 27 2 -27 c1 -36 31 -39
31 -3 0 14 5 25 11 25 5 0 9 -9 7 -20 -2 -10 2 -20 7 -22 6 -2 11 24 13 60 3
61 2 63 -20 60 -16 -2 -25 -12 -29 -33 l-7 -30 -1 33 c-1 27 -5 32 -26 32 -24
0 -25 -3 -25 -60 0 -49 -3 -58 -15 -54 -17 7 -21 34 -5 34 6 0 10 7 10 15 0 8
-4 15 -10 15 -5 0 -10 7 -10 15 0 8 5 15 10 15 6 0 10 5 10 10 0 6 -11 10 -25
10 -24 0 -25 -2 -25 -65z"/>
<path d="M2290 3045 c0 -63 1 -65 25 -65 14 0 25 5 25 10 0 6 -4 10 -10 10 -5
0 -10 7 -10 15 0 8 5 15 10 15 6 0 10 7 10 15 0 8 -4 15 -10 15 -5 0 -10 7
-10 15 0 8 5 15 10 15 6 0 10 5 10 10 0 6 -11 10 -25 10 -24 0 -25 -2 -25 -65z"/>
<path d="M2350 3045 c0 -49 3 -65 14 -65 8 0 17 6 19 13 4 10 6 10 6 0 1 -7 8
-13 16 -13 12 0 15 13 15 55 0 30 5 55 10 55 6 0 10 -25 10 -55 0 -42 3 -55
15 -55 11 0 15 12 15 49 0 27 3 56 6 65 5 13 -2 16 -39 16 -27 0 -47 -5 -50
-12 -4 -10 -6 -10 -6 0 -1 6 -8 12 -16 12 -12 0 -15 -14 -15 -65z"/>
<path d="M3380 3050 c0 -34 15 -40 23 -9 9 35 27 11 27 -37 0 -32 -4 -44 -15
-44 -8 0 -15 -7 -15 -15 0 -11 11 -15 38 -15 48 0 59 10 34 30 -15 12 -18 24
-14 58 4 42 22 60 22 22 0 -11 7 -20 15 -20 10 0 15 10 15 30 l0 30 -65 0 -65
0 0 -30z"/>
<path d="M3695 3060 c-27 -30 -25 -88 4 -111 51 -41 111 -9 111 59 0 25 -7 45
-18 55 -26 23 -75 21 -97 -3z m79 -16 c24 -24 20 -61 -9 -80 -24 -16 -27 -16
-45 1 -22 20 -25 46 -10 76 13 23 43 25 64 3z"/>
<path d="M3990 3063 c0 -10 5 -25 10 -33 8 -13 11 -11 16 8 4 13 14 22 25 22
26 0 24 -5 -16 -54 -51 -63 -47 -76 20 -76 54 0 55 0 55 30 0 17 -4 30 -10 30
-5 0 -10 -7 -10 -15 0 -9 -9 -15 -25 -15 -14 0 -25 3 -25 6 0 4 16 26 35 50
19 23 35 47 35 53 0 7 -22 11 -55 11 -46 0 -55 -3 -55 -17z"/>
<path d="M148 3048 c-8 -21 2 -38 22 -38 19 0 34 25 24 41 -8 13 -41 11 -46
-3z"/>
<path d="M4270 2995 c0 -8 5 -15 10 -15 6 0 10 7 10 15 0 8 -4 15 -10 15 -5 0
-10 -7 -10 -15z"/>
<path d="M3130 2984 c0 -8 5 -12 10 -9 6 3 10 10 10 16 0 5 -4 9 -10 9 -5 0
-10 -7 -10 -16z"/>
<path d="M3206 2983 c17 -12 34 -9 34 7 0 4 -11 7 -25 6 -22 -1 -23 -2 -9 -13z"/>
<path d="M290 2840 c0 -40 4 -70 10 -70 6 0 10 30 10 70 0 40 -4 70 -10 70 -6
0 -10 -30 -10 -70z"/>
<path d="M332 2893 c-11 -21 -6 -41 16 -66 8 -9 12 -20 9 -24 -4 -3 -7 -1 -7
5 0 7 -4 12 -10 12 -16 0 -12 -40 5 -46 38 -15 54 48 21 82 -21 20 -20 23 4
17 22 -6 26 7 8 25 -17 17 -36 15 -46 -5z"/>
<path d="M400 2840 c0 -40 4 -70 10 -70 6 0 10 14 10 30 0 17 5 30 10 30 6 0
10 -13 10 -28 0 -25 4 -29 30 -29 l30 0 0 69 c0 39 -4 68 -10 68 -6 0 -10 -27
-10 -60 0 -36 -4 -60 -11 -60 -6 0 -9 21 -8 57 2 37 -1 58 -9 61 -7 2 -12 -5
-12 -17 0 -12 -4 -21 -10 -21 -5 0 -10 9 -10 20 0 11 -4 20 -10 20 -6 0 -10
-30 -10 -70z"/>
<path d="M510 2840 c0 -71 12 -91 30 -47 9 22 9 22 9 1 1 -17 7 -22 29 -22 15
0 30 5 35 12 5 7 9 8 15 1 4 -6 19 -12 34 -13 22 -1 27 3 31 26 l4 27 2 -27
c1 -24 5 -27 29 -26 15 1 31 7 35 13 6 7 10 6 14 -2 2 -7 17 -13 32 -13 26 0
28 4 40 65 21 106 -4 103 -30 -3 -9 -40 -14 -50 -16 -32 -14 114 -13 111 -36
108 -18 -2 -23 -11 -27 -53 -3 -29 -8 -43 -11 -34 -4 8 -5 28 -2 43 6 31 -8
46 -44 46 -21 0 -23 -5 -24 -62 -1 -66 -4 -64 -14 15 -5 37 -10 47 -25 47 -22
0 -30 -19 -30 -76 0 -25 -5 -44 -11 -44 -6 0 -10 10 -9 23 4 48 0 97 -9 97 -5
0 -12 -10 -14 -22 l-4 -23 -2 23 c0 12 -8 22 -16 22 -12 0 -15 -14 -15 -70z
m114 -5 c3 -8 1 -15 -4 -15 -6 0 -10 7 -10 15 0 8 2 15 4 15 2 0 6 -7 10 -15z"/>
<path d="M880 2891 c-15 -28 -12 -84 4 -107 12 -15 18 -17 33 -8 23 14 30 54
9 54 -8 0 -17 -8 -19 -17 -3 -10 -5 2 -5 27 0 25 2 37 5 28 6 -24 33 -23 33 0
0 39 -42 55 -60 23z"/>
<path d="M957 2904 c-11 -11 -8 -122 3 -129 6 -3 19 -3 30 0 17 5 20 15 20 66
0 32 -4 59 -9 59 -5 0 -16 2 -23 5 -8 3 -17 2 -21 -1z m20 -81 c-3 -10 -5 -2
-5 17 0 19 2 27 5 18 2 -10 2 -26 0 -35z"/>
<path d="M1020 2840 l0 -70 30 0 c31 0 41 16 15 26 -11 5 -15 21 -15 60 0 41
-4 54 -15 54 -12 0 -15 -14 -15 -70z"/>
<path d="M1090 2890 c-16 -30 -8 -101 12 -113 28 -18 48 9 48 62 0 66 -36 96
-60 51z m27 -72 c-2 -13 -4 -3 -4 22 0 25 2 35 4 23 2 -13 2 -33 0 -45z"/>
<path d="M1160 2841 l0 -70 30 1 c35 1 41 15 35 76 -6 55 -11 62 -41 62 -23 0
-24 -2 -24 -69z m37 -43 c-3 -8 -6 -5 -6 6 -1 11 2 17 5 13 3 -3 4 -12 1 -19z"/>
<path d="M1270 2878 c0 -67 12 -108 30 -108 14 0 20 13 28 58 l9 57 2 -57 c1
-68 17 -77 26 -15 11 70 4 92 -27 95 -23 3 -28 -1 -28 -17 0 -12 -5 -21 -10
-21 -6 0 -10 7 -8 16 2 10 -3 19 -9 21 -9 3 -13 -6 -13 -29z"/>
<path d="M1387 2903 c-12 -11 -8 -43 9 -69 15 -23 15 -24 -1 -18 -13 5 -16 2
-13 -17 4 -29 35 -33 52 -6 8 13 7 24 -6 47 -14 25 -15 30 -3 30 18 0 19 12 3
28 -13 13 -31 16 -41 5z"/>
<path d="M1457 2903 c-11 -10 -8 -133 2 -133 6 0 13 4 16 10 4 6 13 5 25 -2
30 -19 50 6 50 62 0 57 -20 81 -51 62 -11 -7 -19 -8 -19 -2 0 11 -13 13 -23 3z
m60 -85 c-2 -13 -4 -3 -4 22 0 25 2 35 4 23 2 -13 2 -33 0 -45z"/>
<path d="M1560 2842 l0 -69 30 0 c17 0 30 3 31 6 6 35 8 90 4 109 -6 26 -25
30 -25 5 -1 -17 -1 -17 -11 0 -19 33 -29 16 -29 -51z"/>
<path d="M1683 2903 c-17 -6 -17 -45 -1 -61 10 -10 10 -15 -1 -21 -19 -12 -4
-51 20 -51 11 0 22 7 26 15 5 14 8 14 25 -2 15 -14 23 -15 38 -5 11 6 21 8 24
3 3 -4 19 -8 35 -9 29 -1 30 1 34 46 l3 47 2 -47 2 -48 60 0 c60 0 75 10 43
29 -17 10 -17 12 2 27 19 14 19 16 3 25 -22 12 -23 29 -3 29 8 0 15 7 15 16 0
11 -8 14 -27 12 -26 -3 -28 -7 -29 -48 -3 -69 -3 -70 -19 -64 -18 7 -20 30 -2
38 10 5 10 7 0 12 -15 7 -17 34 -3 34 6 0 10 7 10 15 0 9 -9 15 -25 15 -17 0
-25 -6 -25 -17 -1 -17 -1 -17 -11 0 -11 18 -54 23 -64 7 -4 -6 -13 -5 -26 3
-17 10 -23 9 -35 -8 -14 -19 -16 -19 -25 -2 -10 17 -23 20 -46 10z m56 -67 c0
-27 -1 -29 -9 -10 -5 12 -13 25 -19 29 -18 11 -12 23 9 18 15 -4 20 -13 19
-37z m62 14 c10 0 19 -4 19 -10 0 -5 -9 -10 -19 -10 -11 0 -22 -6 -24 -12 -3
-7 -5 3 -5 22 0 19 2 29 5 23 2 -7 13 -13 24 -13z"/>
<path d="M2027 2903 c-11 -10 -8 -133 3 -133 5 0 14 8 19 18 10 16 10 16 11 0
0 -26 19 -22 26 6 9 36 0 109 -14 114 -7 2 -12 -6 -13 -20 l0 -23 -9 23 c-10
24 -13 26 -23 15z"/>
<path d="M2100 2840 c0 -40 4 -70 10 -70 6 0 10 30 10 70 0 40 -4 70 -10 70
-6 0 -10 -30 -10 -70z"/>
<path d="M2137 2903 c-4 -3 -7 -32 -7 -64 0 -57 14 -84 31 -58 6 10 9 11 9 2
0 -7 7 -13 15 -13 12 0 15 14 15 64 0 61 -11 89 -25 66 -5 -8 -11 -8 -19 -1
-7 6 -16 8 -19 4z"/>
<path d="M2222 2898 c-13 -13 -17 -114 -4 -122 5 -3 18 -2 30 1 17 4 22 13 22
39 0 24 -5 34 -15 34 -8 0 -15 8 -14 18 0 10 3 12 6 5 7 -20 23 -15 23 6 0 10
-7 22 -16 25 -20 8 -18 8 -32 -6z m25 -90 c-3 -8 -6 -5 -6 6 -1 11 2 17 5 13
3 -3 4 -12 1 -19z"/>
<path d="M150 2844 c-11 -12 -11 -18 2 -30 16 -16 48 -9 48 10 0 13 -20 36
-31 36 -4 0 -12 -7 -19 -16z"/>
<path d="M3390 2850 c0 -5 5 -10 10 -10 13 0 13 -36 0 -61 -10 -17 -7 -19 35
-19 38 0 45 3 45 20 0 11 -4 20 -10 20 -5 0 -10 -7 -10 -16 0 -11 -5 -14 -16
-10 -9 3 -18 6 -20 6 -2 0 -4 14 -4 30 0 17 5 30 10 30 6 0 10 5 10 10 0 6
-11 10 -25 10 -14 0 -25 -4 -25 -10z"/>
<path d="M3605 2810 c0 -47 2 -50 25 -50 19 0 22 2 10 10 -8 5 -12 10 -10 12
3 2 14 8 25 14 11 6 20 22 20 35 0 20 -6 24 -35 27 l-35 3 0 -51z m58 15 c1
-5 -6 -11 -15 -13 -11 -2 -18 3 -18 13 0 17 30 18 33 0z"/>
<path d="M3805 2810 l0 -50 43 0 c31 0 42 4 42 15 0 17 -16 20 -25 5 -9 -15
-35 -12 -35 5 0 9 6 12 15 9 11 -4 15 0 15 16 0 16 -4 20 -15 16 -8 -3 -15 -1
-15 4 0 6 9 10 20 10 11 0 20 -6 20 -12 0 -9 4 -8 10 2 16 25 11 30 -33 30
l-42 0 0 -50z"/>
<path d="M4005 2810 l0 -51 40 3 c37 3 40 5 43 36 4 42 -12 62 -52 62 -31 0
-31 -1 -31 -50z m70 9 c8 -24 -16 -55 -34 -45 -6 4 -11 20 -11 37 0 22 5 29
19 29 11 0 23 -9 26 -21z"/>
<path d="M4265 2810 c-8 -13 -1 -24 14 -19 6 3 7 10 2 18 -6 10 -10 10 -16 1z"/>
<path d="M3130 2794 c0 -8 5 -12 10 -9 6 3 10 10 10 16 0 5 -4 9 -10 9 -5 0
-10 -7 -10 -16z"/>
<path d="M3190 2800 c0 -5 5 -10 10 -10 6 0 10 5 10 10 0 6 -4 10 -10 10 -5 0
-10 -4 -10 -10z"/>
<path d="M3220 2800 c0 -5 5 -10 10 -10 6 0 10 5 10 10 0 6 -4 10 -10 10 -5 0
-10 -4 -10 -10z"/>
<path d="M3384 2651 c1 -32 5 -41 18 -41 11 0 15 5 12 14 -3 8 3 16 16 19 33
9 22 41 -16 45 -29 3 -30 2 -30 -37z m46 8 c0 -5 -7 -9 -15 -9 -15 0 -20 12
-9 23 8 8 24 -1 24 -14z"/>
<path d="M3545 2650 c0 -38 1 -40 33 -40 24 0 32 4 31 18 0 10 -3 12 -6 5 -6
-16 -43 -17 -43 -2 0 6 7 9 15 5 9 -3 15 0 15 9 0 8 -8 15 -17 15 -13 0 -14 3
-5 12 8 8 15 8 27 -2 12 -10 15 -10 15 4 0 11 -9 16 -32 16 -32 0 -33 -2 -33
-40z"/>
<path d="M3710 2675 c-7 -8 -10 -25 -6 -40 5 -20 13 -25 36 -25 17 0 30 4 30
9 0 4 -11 6 -24 4 -28 -6 -40 17 -21 43 11 15 15 16 29 5 14 -11 16 -11 16 3
0 21 -43 22 -60 1z"/>
<path d="M3865 2650 c0 -33 3 -40 20 -39 11 0 14 3 8 6 -7 2 -13 9 -13 15 0 6
7 8 15 4 9 -3 15 0 15 9 0 8 -8 15 -17 15 -13 0 -14 3 -5 12 8 8 15 8 27 -2
12 -10 15 -10 15 4 0 11 -9 16 -33 16 -32 0 -33 -1 -32 -40z"/>
<path d="M4024 2649 c-1 -39 -1 -40 30 -37 24 2 32 8 34 26 4 29 -14 52 -42
52 -18 0 -21 -6 -22 -41z m46 16 c15 -18 6 -45 -15 -45 -10 0 -15 10 -15 30 0
33 11 38 30 15z"/>
<path d="M4260 2650 c0 -5 5 -10 11 -10 5 0 7 -5 3 -12 -4 -7 -3 -8 5 -4 9 6
9 11 0 22 -14 17 -19 18 -19 4z"/>
<path d="M3130 2635 c0 -8 5 -15 10 -15 6 0 10 7 10 15 0 8 -4 15 -10 15 -5 0
-10 -7 -10 -15z"/>
<path d="M3204 2635 c-18 -14 -18 -15 3 -12 27 4 38 13 25 21 -5 3 -18 -1 -28
-9z"/>
<path d="M200 2538 c0 -13 3 -53 7 -90 5 -63 8 -68 29 -68 18 0 24 6 25 23 l0
22 11 -22 c6 -13 19 -23 29 -23 21 0 25 14 34 113 6 63 5 67 -14 67 -17 0 -21
-7 -22 -37 l-2 -38 -6 35 c-4 22 -12 36 -23 38 -15 3 -18 -4 -18 -35 0 -28 -3
-34 -10 -23 -5 8 -10 25 -10 38 0 13 -6 22 -15 22 -9 0 -15 -9 -15 -22z"/>
<path d="M350 2470 l0 -90 40 0 c43 0 57 23 20 33 -23 6 -27 35 -5 43 8 4 15
12 15 20 0 8 -7 14 -15 14 -22 0 -18 27 5 33 11 3 20 12 20 21 0 12 -10 16
-40 16 l-40 0 0 -90z"/>
<path d="M507 2553 c-3 -5 -8 -45 -12 -90 -6 -73 -5 -83 9 -83 9 0 19 7 22 15
4 8 10 15 15 15 5 0 9 -7 9 -15 0 -8 8 -15 18 -15 16 0 17 7 11 73 -4 39 -8
80 -8 90 -1 12 -9 17 -30 17 -17 0 -32 -3 -34 -7z m30 -110 c-3 -10 -5 -4 -5
12 0 17 2 24 5 18 2 -7 2 -21 0 -30z"/>
<path d="M599 2533 c-15 -41 -5 -134 17 -150 25 -18 32 -17 59 13 19 20 25 23
25 11 0 -28 38 -41 66 -22 30 19 35 79 7 73 -10 -2 -19 -13 -21 -26 -2 -12 -8
-22 -13 -22 -12 0 -12 107 1 115 6 3 10 -3 10 -14 0 -14 6 -21 20 -21 22 0 26
20 10 51 -13 24 -65 26 -74 3 -3 -9 -6 -33 -6 -55 0 -37 -2 -39 -25 -33 -22 5
-25 3 -25 -20 0 -14 -4 -26 -10 -26 -5 0 -10 25 -10 55 0 30 5 55 10 55 6 0
10 -6 10 -14 0 -20 30 -29 37 -10 3 8 1 26 -5 40 -17 36 -69 34 -83 -3z"/>
<path d="M800 2470 l0 -90 40 0 c29 0 40 4 40 15 0 8 -9 15 -20 15 -15 0 -20
7 -20 25 0 16 6 25 15 25 8 0 15 7 15 15 0 8 -7 15 -15 15 -8 0 -15 7 -15 15
0 9 7 18 15 21 30 12 16 34 -20 34 l-35 0 0 -90z"/>
<path d="M890 2470 c0 -83 1 -90 20 -90 16 0 20 7 20 33 0 24 6 35 23 42 25
11 34 53 17 85 -8 14 -21 20 -45 20 l-35 0 0 -90z m47 28 c-3 -8 -6 -5 -6 6
-1 11 2 17 5 13 3 -3 4 -12 1 -19z"/>
<path d="M980 2546 c0 -8 7 -16 15 -20 11 -4 15 -22 15 -76 0 -56 3 -70 15
-70 12 0 15 14 15 69 0 39 5 73 10 76 6 3 10 13 10 21 0 10 -12 14 -40 14 -28
0 -40 -4 -40 -14z"/>
<path d="M1124 2518 c18 -145 16 -138 41 -138 18 0 25 6 28 28 l4 27 2 -27 c1
-23 6 -28 25 -28 25 0 28 11 39 165 0 6 -7 11 -16 13 -12 3 -17 -4 -17 -22 0
-14 -4 -26 -10 -26 -5 0 -10 12 -10 26 0 40 -33 27 -41 -16 l-6 -35 -2 38 c-1
30 -5 37 -22 37 -18 0 -20 -5 -15 -42z"/>
<path d="M1285 2503 c-3 -32 -7 -73 -10 -90 -3 -27 0 -33 16 -33 10 0 19 7 19
15 0 8 5 15 10 15 6 0 10 -7 10 -15 0 -8 9 -15 20 -15 20 0 21 4 15 78 -8 100
-9 102 -44 102 -29 0 -30 -2 -36 -57z m45 -45 c0 -21 -3 -29 -10 -22 -5 5 -7
19 -4 32 9 31 14 27 14 -10z"/>
<path d="M1380 2470 l0 -90 40 0 c29 0 40 4 40 15 0 8 -9 15 -20 15 -18 0 -20
7 -20 75 0 68 -2 75 -20 75 -19 0 -20 -7 -20 -90z"/>
<path d="M1470 2470 c0 -73 3 -90 15 -90 8 0 15 7 15 15 0 8 5 15 10 15 6 0
10 -7 10 -15 0 -9 9 -15 21 -15 18 0 20 4 13 33 -11 41 -11 84 -1 120 6 23 4
27 -12 27 -11 0 -22 -10 -26 -22 l-8 -23 -4 23 c-2 12 -11 22 -19 22 -11 0
-14 -19 -14 -90z"/>
<path d="M1640 2470 c0 -73 3 -90 15 -90 12 0 15 17 15 90 0 73 -3 90 -15 90
-12 0 -15 -17 -15 -90z"/>
<path d="M1687 2553 c-3 -5 -4 -29 -2 -53 2 -25 4 -62 4 -82 1 -50 30 -54 32
-5 l1 32 11 -33 c7 -22 16 -32 26 -30 13 3 16 18 16 88 0 73 -2 85 -17 88 -14
3 -18 -4 -19 -25 -1 -28 -1 -28 -8 -3 -7 25 -34 39 -44 23z"/>
<path d="M1850 2541 c-5 -11 -10 -46 -10 -79 0 -67 13 -85 57 -80 25 3 28 8
31 41 3 33 0 38 -14 35 -10 -2 -21 -14 -25 -28 -4 -16 -7 -1 -7 40 1 36 3 55
5 43 6 -32 43 -31 43 0 0 13 -5 28 -12 35 -18 18 -56 14 -68 -7z"/>
<path d="M1947 2553 c-2 -5 -3 -44 -3 -88 l1 -80 38 -3 c40 -3 53 16 17 25
-18 5 -20 14 -20 79 0 58 -3 74 -14 74 -8 0 -17 -3 -19 -7z"/>
<path d="M2030 2470 c0 -73 3 -90 15 -90 12 0 15 17 15 90 0 73 -3 90 -15 90
-12 0 -15 -17 -15 -90z"/>
<path d="M2080 2470 l0 -90 35 0 c24 0 35 5 35 15 0 8 -7 15 -15 15 -9 0 -15
9 -15 25 0 16 6 25 15 25 8 0 15 7 15 15 0 8 -7 15 -15 15 -8 0 -15 9 -15 20
0 11 7 20 15 20 8 0 15 7 15 15 0 10 -11 15 -35 15 l-35 0 0 -90z"/>
<path d="M2170 2471 c0 -74 3 -91 15 -91 10 0 15 11 16 33 l1 32 10 -32 c7
-22 17 -33 30 -33 17 0 19 7 16 87 -3 74 -6 88 -20 91 -14 3 -18 -4 -19 -25
-1 -28 -1 -28 -8 -3 -4 14 -15 26 -24 28 -15 3 -17 -7 -17 -87z"/>
<path d="M2270 2545 c0 -8 5 -15 10 -15 6 0 10 -32 10 -76 0 -66 2 -75 18 -72
14 3 18 16 20 76 2 39 7 72 12 72 6 0 10 7 10 15 0 11 -11 15 -40 15 -29 0
-40 -4 -40 -15z"/>
<path d="M2360 2541 c-12 -23 5 -66 34 -90 18 -15 21 -41 6 -41 -5 0 -10 6
-10 14 0 20 -19 31 -32 18 -15 -15 0 -52 25 -61 57 -22 79 52 32 107 -25 30
-35 56 -13 34 20 -20 40 -14 36 11 -4 31 -62 37 -78 8z"/>
<path d="M2515 2493 c-3 -38 -8 -78 -11 -90 -3 -18 0 -23 16 -23 11 0 20 7 20
15 0 8 4 15 9 15 5 0 11 -7 15 -15 3 -8 13 -15 21 -15 14 0 15 9 10 58 -13
121 -13 122 -45 122 -28 0 -29 -1 -35 -67z m45 -30 c0 -23 -4 -33 -9 -27 -9 8
-4 64 5 64 2 0 4 -17 4 -37z"/>
<path d="M2610 2470 c0 -82 2 -90 19 -90 14 0 21 8 24 28 l4 27 2 -27 c1 -21
6 -28 21 -28 19 0 20 7 20 91 0 81 -2 90 -17 87 -12 -2 -17 -12 -16 -28 2 -24
2 -24 -9 3 -7 15 -20 27 -30 27 -16 0 -18 -10 -18 -90z"/>
<path d="M2720 2470 l0 -90 35 0 c43 0 55 20 55 90 0 70 -12 90 -55 90 l-35 0
0 -90z m50 -1 c0 -37 -4 -58 -10 -54 -18 11 -12 115 7 115 2 0 3 -27 3 -61z"/>
<path d="M3378 2505 c3 -29 8 -35 28 -35 30 0 32 20 2 21 -13 0 -17 3 -10 6 6
2 12 9 12 14 0 6 -4 7 -10 4 -5 -3 -10 -1 -10 5 0 7 8 9 20 5 11 -4 20 -2 20
4 0 6 -13 11 -28 11 -26 0 -28 -2 -24 -35z"/>
<path d="M3514 2505 c0 -39 23 -48 47 -19 16 19 1 48 -28 52 -16 2 -19 -3 -19
-33z m41 0 c0 -10 -6 -20 -12 -22 -8 -3 -13 5 -13 22 0 17 5 25 13 23 6 -3 12
-13 12 -23z"/>
<path d="M3650 2505 c0 -24 5 -35 15 -35 9 0 12 6 9 15 -4 9 0 15 7 15 9 1 7
6 -6 17 -20 15 -20 15 3 10 12 -3 22 -1 22 4 0 5 -11 9 -25 9 -22 0 -25 -4
-25 -35z"/>
<path d="M3785 2529 c-12 -19 4 -59 25 -59 10 0 22 4 25 10 4 6 -4 9 -17 7
-17 -1 -23 3 -23 18 0 15 6 19 23 18 13 -2 21 1 17 7 -8 13 -42 13 -50 -1z"/>
<path d="M3910 2530 c0 -5 8 -6 17 -3 16 6 16 5 0 -17 -9 -14 -17 -28 -17 -32
0 -13 38 -9 46 4 5 8 2 9 -9 5 -18 -7 -24 8 -7 18 18 11 11 35 -10 35 -11 0
-20 -4 -20 -10z"/>
<path d="M4045 2505 c0 -27 4 -35 18 -35 10 0 15 5 12 11 -4 6 1 16 11 23 21
16 11 36 -19 36 -18 0 -22 -6 -22 -35z m40 15 c3 -5 -1 -10 -10 -10 -9 0 -13
5 -10 10 3 6 8 10 10 10 2 0 7 -4 10 -10z"/>
<path d="M4264 2517 c-8 -21 2 -35 16 -21 5 5 6 15 0 24 -8 12 -10 12 -16 -3z"/>
<path d="M3106 2503 c-6 -14 -5 -15 5 -6 7 7 10 15 7 18 -3 3 -9 -2 -12 -12z"/>
<path d="M3130 2500 c0 -5 5 -10 10 -10 6 0 10 5 10 10 0 6 -4 10 -10 10 -5 0
-10 -4 -10 -10z"/>
<path d="M3197 2503 c-3 -5 6 -9 19 -9 13 -1 24 2 24 7 0 11 -37 12 -43 2z"/>
<path d="M1570 2446 c0 -11 9 -16 26 -16 31 0 28 23 -4 28 -15 2 -22 -2 -22
-12z"/>
<path d="M3548 2433 c106 -2 277 -2 380 0 103 1 16 2 -193 2 -209 0 -293 -1
-187 -2z"/>
<path d="M2973 2384 c-12 -26 -8 -54 8 -54 5 0 9 18 9 40 0 22 -1 40 -2 40 -2
0 -8 -12 -15 -26z"/>
<path d="M3418 2355 c-4 -16 -1 -25 8 -25 7 0 11 8 10 18 -2 9 4 20 13 24 13
5 11 7 -5 7 -15 1 -23 -6 -26 -24z"/>
<path d="M3520 2355 c0 -18 5 -25 20 -25 24 0 26 18 3 27 -15 6 -15 7 3 14 17
7 17 8 -3 8 -18 1 -23 -5 -23 -24z"/>
<path d="M3625 2355 c0 -19 5 -25 20 -24 11 0 14 3 8 6 -7 2 -13 13 -13 24 0
10 -3 19 -7 19 -5 0 -8 -11 -8 -25z"/>
<path d="M3720 2371 c0 -6 7 -8 15 -5 10 4 15 0 15 -11 0 -11 -5 -15 -15 -11
-8 3 -15 1 -15 -5 0 -6 8 -9 18 -7 9 2 17 12 17 23 0 11 -8 21 -17 23 -10 2
-18 -1 -18 -7z"/>
<path d="M3820 2355 c0 -14 5 -25 11 -25 5 0 8 4 5 9 -3 5 1 11 9 15 22 8 18
26 -5 26 -15 0 -20 -7 -20 -25z"/>
<path d="M3929 2371 c9 -6 10 -11 2 -15 -17 -11 -13 -26 7 -26 13 0 14 2 3 9
-9 6 -10 11 -2 15 17 11 13 26 -6 26 -14 0 -15 -2 -4 -9z"/>
<path d="M4020 2355 c0 -20 4 -26 18 -23 9 2 17 12 17 23 0 11 -8 21 -17 23
-14 3 -18 -3 -18 -23z m30 0 c0 -8 -4 -15 -10 -15 -5 0 -10 7 -10 15 0 8 5 15
10 15 6 0 10 -7 10 -15z"/>
<path d="M4271 2364 c0 -11 3 -14 6 -6 3 7 2 16 -1 19 -3 4 -6 -2 -5 -13z"/>
<path d="M3130 2361 c0 -5 5 -13 10 -16 6 -3 10 -2 10 4 0 5 -4 13 -10 16 -5
3 -10 2 -10 -4z"/>
<path d="M3195 2350 c-3 -5 -1 -10 4 -10 6 0 11 5 11 10 0 6 -2 10 -4 10 -3 0
-8 -4 -11 -10z"/>
<path d="M2940 2340 c0 -5 5 -10 10 -10 6 0 10 5 10 10 0 6 -4 10 -10 10 -5 0
-10 -4 -10 -10z"/>
<path d="M906 2321 c-3 -5 -9 -47 -12 -95 -6 -76 -5 -86 10 -86 9 0 16 7 16
15 0 8 7 15 15 15 8 0 15 -7 15 -15 0 -8 7 -15 16 -15 15 0 16 10 10 87 -4 51
-12 90 -19 95 -16 10 -45 10 -51 -1z m31 -108 c-3 -10 -5 -2 -5 17 0 19 2 27
5 18 2 -10 2 -26 0 -35z"/>
<path d="M997 2323 c-4 -3 -7 -46 -7 -95 0 -81 2 -88 20 -88 16 0 20 7 20 33
0 26 6 36 25 45 21 10 25 19 25 51 0 30 -5 43 -19 51 -22 11 -54 13 -64 3z
m53 -59 c0 -8 -4 -14 -10 -14 -5 0 -10 9 -10 21 0 11 5 17 10 14 6 -3 10 -13
10 -21z"/>
<path d="M1099 2328 c0 -2 -2 -45 -3 -95 -2 -84 0 -93 16 -93 14 0 18 8 18 35
0 23 5 35 13 35 20 0 47 33 47 58 0 29 -34 62 -65 62 -14 0 -25 -1 -26 -2z
m51 -58 c0 -11 -4 -20 -10 -20 -5 0 -10 9 -10 20 0 11 5 20 10 20 6 0 10 -9
10 -20z"/>
<path d="M1216 2318 c-12 -7 -16 -25 -16 -81 0 -44 5 -78 12 -85 18 -18 56
-14 68 7 11 22 13 130 2 147 -11 16 -47 23 -66 12z m34 -83 c0 -30 -4 -55 -10
-55 -5 0 -10 25 -10 55 0 30 5 55 10 55 6 0 10 -25 10 -55z"/>
<path d="M1307 2324 c-4 -4 -7 -47 -7 -96 0 -82 1 -88 20 -88 20 0 21 5 18 92
-3 84 -12 111 -31 92z"/>
<path d="M1357 2323 c-4 -3 -7 -46 -7 -95 0 -80 2 -89 17 -86 11 2 20 16 24
33 l6 30 4 -30 c2 -18 11 -31 22 -33 15 -3 17 6 17 73 0 66 2 76 17 73 13 -2
17 -16 19 -58 1 -30 3 -63 3 -72 1 -10 8 -18 16 -18 12 0 15 15 15 74 0 48 4
76 12 78 6 2 9 12 5 21 -9 23 -63 23 -76 0 -10 -17 -10 -17 -11 0 0 9 -7 17
-15 17 -10 0 -15 -11 -16 -37 l-1 -38 -10 38 c-9 34 -25 46 -41 30z"/>
<path d="M1642 2322 c-7 -5 -16 -28 -20 -53 l-8 -44 -8 48 c-6 41 -10 47 -32
47 -24 0 -24 -1 -24 -90 0 -73 3 -90 15 -90 11 0 15 12 16 48 l1 47 9 -44 c10
-51 13 -55 34 -48 9 4 16 20 16 39 l2 33 6 -35 c4 -22 12 -36 24 -38 15 -3 17
6 17 86 0 73 -3 91 -16 96 -19 7 -16 7 -32 -2z"/>
<path d="M1718 2322 c-16 -3 -18 -16 -18 -93 l0 -89 40 0 c30 0 40 4 40 16 0
9 -9 18 -20 21 -27 7 -25 39 3 47 l22 7 -22 16 c-28 19 -29 39 -3 46 44 11 4
39 -42 29z"/>
<path d="M1803 2323 c-9 -3 -13 -32 -13 -94 0 -82 1 -89 20 -89 16 0 20 7 21
33 l1 32 7 -30 c3 -17 14 -31 24 -33 15 -3 17 6 17 87 0 74 -3 91 -15 91 -10
0 -15 -11 -16 -32 l-1 -33 -9 32 c-10 35 -18 43 -36 36z"/>
<path d="M1892 2311 c-3 -7 2 -18 11 -23 13 -7 17 -24 17 -78 0 -56 3 -70 15
-70 12 0 15 14 15 69 0 39 5 73 10 76 6 3 10 15 10 25 0 15 -7 18 -36 17 -20
-1 -39 -8 -42 -16z"/>
<path d="M1996 2314 c-23 -23 -20 -47 14 -89 16 -20 27 -42 23 -48 -4 -6 -10
-1 -14 11 -10 25 -39 30 -39 6 0 -28 20 -54 43 -54 51 0 63 59 22 108 -25 30
-35 56 -13 34 16 -16 38 -15 38 2 0 18 -27 46 -45 46 -7 0 -21 -7 -29 -16z"/>
<path d="M2925 2311 c3 -5 0 -11 -7 -13 -8 -3 -9 -6 -1 -11 6 -4 16 -1 22 7 9
10 8 15 -4 20 -9 3 -14 2 -10 -3z"/>
<path d="M2895 2250 c-3 -11 -10 -20 -15 -20 -5 0 -6 8 -3 18 6 16 6 16 -10 0
-14 -13 -15 -22 -7 -44 8 -20 8 -30 -1 -38 -9 -8 -10 -8 -5 2 4 6 0 19 -8 28
-9 8 -16 11 -16 6 0 -5 -18 -32 -40 -60 -33 -41 -37 -52 -26 -61 11 -9 15 -8
20 5 3 9 4 20 0 25 -3 5 -1 9 5 9 5 0 12 8 16 19 3 10 15 18 28 18 48 1 50 2
44 33 -4 17 -3 30 2 30 5 0 16 11 25 25 9 14 12 25 7 25 -5 0 -13 -9 -16 -20z"/>
<path d="M3451 2243 c2 -27 2 -27 7 -3 4 23 5 24 13 5 8 -19 9 -19 6 -1 -4 32
-27 31 -26 -1z"/>
<path d="M3530 2248 c0 -12 3 -18 7 -14 11 10 12 36 2 36 -5 0 -9 -10 -9 -22z"/>
<path d="M3610 2243 c0 -26 1 -26 15 -7 19 25 19 34 0 34 -10 0 -15 -10 -15
-27z"/>
<path d="M3691 2246 c-1 -16 0 -27 2 -25 1 2 9 13 17 23 8 11 10 17 3 13 -6
-4 -14 -1 -16 5 -3 7 -6 0 -6 -16z"/>
<path d="M3767 2264 c-4 -4 -7 -12 -7 -18 0 -6 5 -4 10 4 9 13 11 13 21 0 9
-12 10 -12 7 -1 -5 17 -21 25 -31 15z"/>
<path d="M3846 2262 c-2 -4 4 -8 14 -8 10 0 16 4 14 8 -3 4 -9 8 -14 8 -5 0
-11 -4 -14 -8z"/>
<path d="M3927 2263 c-10 -9 -8 -33 2 -33 5 0 11 9 14 20 5 20 -3 26 -16 13z"/>
<path d="M4003 2255 c-3 -9 -3 -19 1 -22 3 -4 6 1 6 10 0 8 6 18 13 20 9 4 9
6 -1 6 -7 1 -15 -6 -19 -14z"/>
<path d="M4260 2247 c0 -8 6 -14 14 -14 8 0 12 6 9 14 -3 7 -9 13 -14 13 -5 0
-9 -6 -9 -13z"/>
<path d="M3130 2234 c0 -8 5 -12 10 -9 6 3 10 10 10 16 0 5 -4 9 -10 9 -5 0
-10 -7 -10 -16z"/>
<path d="M3221 2234 c0 -11 3 -14 6 -6 3 7 2 16 -1 19 -3 4 -6 -2 -5 -13z"/>
<path d="M3535 2169 c-4 -6 -5 -12 -2 -15 2 -3 7 2 10 11 7 17 1 20 -8 4z"/>
<path d="M3205 2161 c-3 -5 -1 -12 5 -16 5 -3 10 1 10 9 0 18 -6 21 -15 7z"/>
<path d="M3860 2159 c0 -5 5 -7 10 -4 6 3 10 8 10 11 0 2 -4 4 -10 4 -5 0 -10
-5 -10 -11z"/>
<path d="M4262 2159 c2 -7 10 -15 17 -17 8 -3 12 1 9 9 -2 7 -10 15 -17 17 -8
3 -12 -1 -9 -9z"/>
<path d="M2810 1990 l-25 -6 25 -7 c26 -7 34 -4 29 11 -2 4 -15 5 -29 2z"/>
<path d="M139 1941 c-38 -39 -40 -97 -5 -138 20 -23 32 -28 71 -28 39 0 51 5
71 28 55 64 11 167 -71 167 -27 0 -44 -8 -66 -29z m47 -38 c11 -35 22 -48 40
-48 10 0 20 -8 22 -18 6 -28 -27 -20 -64 17 -22 22 -32 40 -28 50 8 21 23 20
30 -1z"/>
<path d="M994 1947 c-10 -27 0 -140 14 -145 9 -3 12 16 12 72 0 69 -13 106
-26 73z"/>
<path d="M367 1933 c-4 -3 -7 -20 -7 -36 0 -24 3 -28 20 -24 16 4 20 0 20 -21
-1 -23 -2 -25 -11 -9 -5 9 -14 17 -19 17 -15 0 -12 -36 3 -48 17 -15 57 -4 57
15 0 11 6 8 19 -8 16 -20 23 -22 38 -13 19 12 29 69 18 111 -8 35 -58 29 -65
-7 -5 -24 -7 -25 -30 -13 -22 11 -15 19 13 14 4 0 7 6 7 14 0 15 -50 22 -63 8z
m110 -85 c-2 -13 -4 -3 -4 22 0 25 2 35 4 23 2 -13 2 -33 0 -45z"/>
<path d="M527 1933 c-14 -14 -7 -35 11 -31 14 4 17 -3 19 -36 1 -35 0 -39 -11
-23 -18 23 -26 21 -26 -7 0 -39 53 -45 64 -8 4 14 2 79 -3 105 -1 9 -45 9 -54
0z"/>
<path d="M646 1924 c-12 -30 -6 -93 10 -108 19 -20 30 -20 46 -2 11 12 15 12
30 -1 13 -11 21 -12 38 -3 18 10 21 19 18 68 -3 51 -5 57 -26 60 -14 2 -29 -4
-36 -14 -12 -15 -13 -15 -19 0 -8 21 -53 21 -61 0z m36 -86 c-9 -9 -12 -1 -11
33 l1 44 11 -33 c7 -24 7 -36 -1 -44z m74 30 c0 -24 -1 -35 -4 -25 -2 9 -10
17 -18 17 -20 0 -17 38 4 43 9 3 17 5 17 6 0 0 1 -18 1 -41z"/>
<path d="M807 1934 c-4 -4 -7 -21 -7 -37 0 -20 6 -30 20 -34 11 -3 20 -11 20
-18 0 -8 -8 -11 -20 -8 -25 7 -26 -13 -1 -26 34 -19 53 7 49 69 -3 50 -5 55
-28 58 -14 2 -29 0 -33 -4z m30 -46 c-3 -8 -6 -5 -6 6 -1 11 2 17 5 13 3 -3 4
-12 1 -19z"/>
<path d="M880 1934 c0 -4 7 -12 16 -19 16 -11 16 -16 1 -58 -10 -30 -12 -49
-6 -53 6 -3 13 -3 17 0 6 7 42 115 42 129 0 4 -16 7 -35 7 -19 0 -35 -3 -35
-6z"/>
<path d="M1066 1924 c-13 -33 -6 -103 10 -112 35 -20 62 5 55 51 -1 9 2 9 34
-3 31 -12 25 -31 -6 -23 -16 4 -20 2 -17 -8 6 -18 47 -24 61 -10 17 17 45 13
56 -6 10 -17 12 -17 24 -1 13 16 15 16 30 1 15 -15 18 -15 41 0 33 22 52 21
61 0 6 -17 7 -17 20 1 13 17 15 17 30 2 20 -20 29 -20 49 -1 20 20 56 19 56
-1 0 -9 6 -14 13 -12 7 3 13 29 15 71 3 66 2 67 -22 67 -21 0 -26 -6 -32 -35
-7 -40 -19 -52 -28 -30 -3 8 -12 15 -21 15 -8 0 -15 5 -15 11 0 6 9 8 21 4 17
-6 20 -3 17 12 -2 11 -12 18 -28 18 -20 0 -26 -7 -36 -45 l-12 -45 -1 48 c-1
40 -4 47 -21 47 -15 0 -23 -12 -33 -47 -10 -34 -15 -42 -20 -29 -4 10 -5 22
-1 27 3 5 2 18 -1 30 -5 15 -14 19 -33 17 -24 -3 -28 -9 -33 -48 -7 -51 -12
-44 -9 13 1 33 -1 37 -23 37 -22 0 -27 -7 -38 -52 l-14 -53 -5 50 c-5 45 -8
50 -32 53 -20 2 -28 -2 -34 -20 l-7 -23 -8 23 c-10 26 -54 31 -63 6z m31 -76
c-2 -13 -4 -3 -4 22 0 25 2 35 4 23 2 -13 2 -33 0 -45z m88 53 c3 -5 1 -12 -5
-16 -5 -3 -10 1 -10 9 0 18 6 21 15 7z m382 -43 c-3 -7 -5 -2 -5 12 0 14 2 19
5 13 2 -7 2 -19 0 -25z m-307 7 c0 -8 -4 -15 -10 -15 -5 0 -7 7 -4 15 4 8 8
15 10 15 2 0 4 -7 4 -15z m147 -7 c-3 -8 -6 -5 -6 6 -1 11 2 17 5 13 3 -3 4
-12 1 -19z m-70 -20 c-3 -7 -5 -2 -5 12 0 14 2 19 5 13 2 -7 2 -19 0 -25z
m163 7 c0 -8 -4 -15 -10 -15 -5 0 -10 7 -10 15 0 8 5 15 10 15 6 0 10 -7 10
-15z"/>
<path d="M1624 1932 c-15 -9 -4 -128 11 -125 12 3 20 133 8 133 -4 0 -13 -4
-19 -8z"/>
<path d="M1672 1928 c-19 -19 -15 -59 8 -65 11 -3 20 -11 20 -18 0 -8 -8 -11
-20 -8 -25 7 -26 -13 -1 -26 34 -19 53 7 49 69 -3 46 -6 55 -23 58 -11 1 -26
-3 -33 -10z m25 -40 c-3 -8 -6 -5 -6 6 -1 11 2 17 5 13 3 -3 4 -12 1 -19z"/>
<path d="M1743 1928 c2 -7 9 -14 15 -14 7 -1 14 -2 17 -3 3 0 -2 -17 -10 -37
-18 -42 -20 -77 -4 -72 10 3 48 100 49 126 0 7 -14 12 -36 12 -24 0 -34 -4
-31 -12z"/>
<path d="M1827 1933 c-13 -12 -7 -110 7 -122 17 -14 44 -5 50 17 4 14 2 79 -3
105 -1 9 -45 9 -54 0z m33 -84 c0 -11 -4 -18 -10 -14 -5 3 -7 12 -3 20 7 21
13 19 13 -6z"/>
<path d="M2666 1905 c4 -8 8 -15 10 -15 2 0 4 7 4 15 0 8 -4 15 -10 15 -5 0
-7 -7 -4 -15z"/>
<path d="M600 1850 c0 -5 7 -10 15 -10 8 0 15 5 15 10 0 6 -7 10 -15 10 -8 0
-15 -4 -15 -10z"/>
<path d="M2692 1814 c3 -17 21 -21 26 -6 1 5 -4 12 -13 16 -11 4 -15 1 -13
-10z"/>
<path d="M2537 1814 c-3 -3 -3 -13 0 -22 4 -10 2 -13 -5 -8 -7 4 -12 3 -12 -3
0 -15 23 -26 28 -13 5 17 22 15 22 -3 0 -22 13 -18 43 13 35 37 34 45 -3 24
-29 -16 -31 -16 -41 1 -10 18 -21 21 -32 11z"/>
<path d="M2626 1761 c-10 -16 -7 -19 27 -25 17 -3 25 -1 21 5 -3 6 -8 8 -12 5
-3 -3 -10 2 -17 11 -9 12 -14 13 -19 4z"/>
<path d="M139 1711 c-23 -23 -29 -38 -29 -71 0 -53 42 -100 90 -100 85 0 133
76 95 150 -31 59 -107 69 -156 21z m91 -35 c0 -8 -71 -12 -76 -4 -3 4 13 8 35
8 23 0 41 -2 41 -4z m40 -36 l0 -40 -60 0 c-33 0 -60 3 -60 8 0 4 24 6 53 4
50 -3 53 -2 55 22 1 14 -3 26 -8 26 -6 0 -10 -5 -10 -12 0 -6 -2 -9 -5 -6 -9
9 7 38 21 38 10 0 14 -12 14 -40z"/>
<path d="M827 1723 c-2 -5 -3 -15 -2 -23 1 -8 3 -36 3 -62 3 -76 22 -56 22 22
0 60 -10 88 -23 63z"/>
<path d="M1221 1660 c-1 -58 1 -70 14 -70 14 0 16 11 13 67 -4 92 -25 94 -27
3z"/>
<path d="M672 1653 c3 -78 20 -87 29 -16 l6 48 1 -47 c2 -34 6 -48 16 -48 8 0
17 6 19 13 4 10 6 10 6 0 1 -8 14 -13 31 -13 29 0 30 1 30 50 0 57 -17 73 -53
50 -15 -9 -22 -10 -25 -1 -2 6 -10 11 -18 11 -8 0 -14 5 -14 10 0 6 -7 10 -15
10 -13 0 -15 -12 -13 -67z m105 -25 c-2 -13 -4 -5 -4 17 -1 22 1 32 4 23 2
-10 2 -28 0 -40z"/>
<path d="M1177 1707 c-10 -25 5 -117 19 -117 11 0 14 17 14 65 0 49 -3 65 -14
65 -8 0 -16 -6 -19 -13z"/>
<path d="M1410 1655 c0 -51 3 -65 15 -65 12 0 15 14 15 65 0 51 -3 65 -15 65
-12 0 -15 -14 -15 -65z"/>
<path d="M1528 1710 c-1 -5 -1 -35 0 -65 4 -63 22 -76 22 -16 0 22 5 43 10 46
6 4 10 -12 10 -39 0 -25 5 -46 10 -46 6 0 10 25 10 55 0 48 -2 55 -20 55 -11
0 -20 5 -20 10 0 13 -17 13 -22 0z"/>
<path d="M1766 1704 c-3 -9 -6 -20 -6 -25 0 -14 28 -11 33 4 3 7 6 4 6 -6 1
-11 -8 -30 -19 -44 -28 -36 -25 -43 15 -43 19 0 35 5 35 10 0 6 -7 10 -15 10
-19 0 -19 5 3 38 l17 26 5 -39 c5 -37 8 -40 35 -40 28 0 30 3 33 39 5 61 -4
86 -34 86 -16 0 -27 -7 -33 -22 l-8 -22 -5 22 c-7 26 -53 31 -62 6z m111 -76
c-2 -13 -4 -3 -4 22 0 25 2 35 4 23 2 -13 2 -33 0 -45z"/>
<path d="M1927 1713 c-10 -9 -9 -43 1 -43 4 0 13 5 20 12 19 19 14 -3 -8 -40
-27 -44 -25 -52 10 -52 30 0 42 16 17 22 -11 2 -10 10 5 33 l18 30 0 -27 c0
-44 10 -58 41 -58 29 0 29 0 29 60 0 67 -15 84 -53 61 -14 -9 -22 -10 -30 -2
-12 12 -40 15 -50 4z m105 -95 c-9 -9 -12 -1 -11 33 l1 44 11 -33 c7 -24 7
-36 -1 -44z"/>
<path d="M2103 1714 c-20 -9 -35 -68 -24 -98 13 -33 56 -55 73 -38 9 9 7 12
-10 12 -31 0 -53 38 -43 75 6 26 12 30 42 30 31 0 34 -3 37 -32 2 -19 -1 -33
-7 -33 -6 0 -11 11 -11 24 0 15 -7 26 -21 29 -23 6 -32 -9 -27 -45 2 -18 10
-23 40 -25 33 -3 38 0 44 24 14 54 -41 99 -93 77z m34 -76 c-3 -8 -6 -5 -6 6
-1 11 2 17 5 13 3 -3 4 -12 1 -19z"/>
<path d="M367 1694 c-10 -10 -9 -76 2 -92 12 -19 55 -11 59 11 4 20 -24 24
-31 5 -3 -8 -6 -6 -6 5 -1 11 6 17 20 17 16 0 20 5 17 28 -2 20 -9 28 -28 30
-14 2 -29 0 -33 -4z"/>
<path d="M443 1630 c1 -47 6 -70 14 -70 17 0 25 16 38 82 10 47 10 58 -1 58
-7 0 -15 -10 -17 -22 l-4 -23 -8 23 c-14 42 -23 22 -22 -48z"/>
<path d="M517 1694 c-4 -4 -7 -27 -7 -50 0 -34 5 -46 21 -54 23 -13 49 2 49
26 0 17 -27 18 -33 2 -3 -8 -6 -6 -6 5 -1 11 6 17 20 17 16 0 20 5 17 28 -2
20 -9 28 -28 30 -14 2 -29 0 -33 -4z"/>
<path d="M594 1686 c-3 -8 -4 -31 -2 -52 3 -34 7 -39 29 -42 26 -3 46 19 33
39 -9 15 -24 10 -24 -8 -1 -16 -2 -16 -10 -2 -5 8 -6 25 -3 37 5 20 7 21 18 6
14 -20 28 -5 19 20 -8 20 -53 21 -60 2z"/>
<path d="M864 1687 c-3 -8 -4 -32 -2 -53 2 -32 7 -40 27 -42 29 -5 46 11 37
35 -7 17 -8 17 -22 -1 -13 -18 -14 -17 -13 20 0 21 3 33 6 27 7 -20 35 -16 31
5 -4 22 -56 29 -64 9z"/>
<path d="M944 1686 c-3 -8 -4 -31 -2 -52 2 -32 7 -40 27 -42 21 -3 40 11 41
31 0 12 -28 8 -33 -5 -3 -8 -6 -6 -6 5 -1 9 5 17 13 17 20 0 29 16 21 40 -7
23 -53 28 -61 6z"/>
<path d="M1027 1694 c-4 -4 -7 -29 -7 -56 0 -48 1 -49 28 -46 25 3 27 6 27 53
0 43 -3 50 -20 53 -12 2 -24 0 -28 -4z m33 -55 c0 -16 -4 -29 -10 -29 -5 0
-10 16 -10 36 0 21 4 33 10 29 6 -3 10 -19 10 -36z"/>
<path d="M1099 1693 c-2 -25 3 -129 8 -133 2 -3 9 3 14 13 6 9 17 17 25 17 12
0 14 11 12 53 -3 48 -5 52 -30 55 -16 2 -28 0 -29 -5z m41 -54 c0 -16 -4 -29
-10 -29 -5 0 -10 16 -10 36 0 21 4 33 10 29 6 -3 10 -19 10 -36z"/>
<path d="M1264 1686 c-3 -8 -4 -31 -2 -52 2 -32 7 -40 26 -42 13 -2 30 2 38 8
10 9 14 9 14 1 0 -6 14 -11 31 -11 l30 0 -3 53 c-3 46 -6 52 -27 55 -13 2 -28
-2 -33 -10 -7 -10 -11 -10 -15 0 -6 17 -52 15 -59 -2z m41 -36 c1 0 15 7 31
15 15 8 30 12 33 10 8 -8 -39 -46 -49 -40 -5 3 -13 -3 -19 -12 -8 -14 -10 -10
-10 22 1 22 3 32 6 23 2 -10 6 -18 8 -18z m75 -19 c0 -6 -4 -13 -10 -16 -5 -3
-10 1 -10 9 0 9 5 16 10 16 6 0 10 -4 10 -9z"/>
<path d="M1457 1693 c-13 -12 -7 -33 13 -50 11 -10 20 -21 20 -26 0 -5 -7 -4
-15 3 -18 15 -30 7 -22 -15 8 -19 53 -20 61 0 6 17 -2 45 -14 45 -4 0 -10 6
-13 14 -4 10 0 12 14 9 15 -4 18 -2 13 11 -6 16 -44 22 -57 9z"/>
<path d="M1617 1694 c-4 -4 -7 -29 -7 -56 0 -48 1 -49 28 -46 25 3 27 6 27 53
0 43 -3 50 -20 53 -12 2 -24 0 -28 -4z m33 -55 c0 -16 -4 -29 -10 -29 -5 0
-10 16 -10 36 0 21 4 33 10 29 6 -3 10 -19 10 -36z"/>
<path d="M1680 1636 c0 -65 14 -94 32 -62 5 9 16 16 24 16 12 0 14 11 12 53
-3 51 -4 52 -35 55 l-33 3 0 -65z m37 -8 c-2 -13 -4 -5 -4 17 -1 22 1 32 4 23
2 -10 2 -28 0 -40z"/>
<path d="M2217 1693 c-4 -3 -7 -24 -7 -45 0 -31 5 -40 23 -48 l22 -9 -22 0
c-30 -1 -30 -21 0 -21 35 0 47 19 47 77 0 52 -1 53 -28 53 -16 0 -32 -3 -35
-7z m30 -60 c-3 -10 -5 -2 -5 17 0 19 2 27 5 18 2 -10 2 -26 0 -35z"/>
<path d="M2327 1538 c-34 -46 -43 -63 -29 -54 8 5 12 -1 12 -15 0 -12 3 -19 7
-16 3 4 12 2 20 -5 10 -8 17 -8 25 0 8 8 7 13 -5 18 -22 8 -22 21 1 27 14 4
14 6 -5 12 -13 4 -23 12 -23 17 0 6 6 8 14 5 8 -3 18 5 25 19 17 37 -13 31
-42 -8z"/>
<path d="M2225 1399 c-4 -6 -5 -12 -2 -15 2 -3 7 2 10 11 7 17 1 20 -8 4z"/>
<path d="M206 1354 c-23 -22 -21 -54 3 -54 11 0 21 8 23 18 2 10 6 13 10 6 4
-5 -7 -31 -24 -57 -16 -25 -27 -51 -23 -57 10 -17 85 -13 85 5 0 8 -9 15 -20
15 -25 0 -25 8 0 40 25 33 26 76 1 90 -27 14 -37 13 -55 -6z"/>
<path d="M290 1285 c0 -69 3 -85 15 -85 10 0 15 10 16 28 l1 27 10 -27 c5 -16
16 -28 24 -28 11 0 14 18 14 85 0 69 -3 85 -15 85 -9 0 -15 -9 -16 -22 l0 -23
-9 23 c-5 12 -16 22 -25 22 -12 0 -15 -15 -15 -85z"/>
<path d="M390 1285 l0 -85 28 0 c42 0 52 17 52 85 0 68 -10 85 -52 85 l-28 0
0 -85z m50 -7 c0 -20 -4 -40 -10 -43 -6 -4 -10 16 -10 52 0 41 3 54 10 43 5
-8 10 -32 10 -52z"/>
<path d="M530 1285 c0 -69 3 -85 15 -85 10 0 15 11 15 35 0 24 5 35 15 35 8 0
15 9 15 20 0 11 -7 20 -15 20 -8 0 -15 5 -15 10 0 6 7 10 15 10 8 0 15 9 15
20 0 16 -7 20 -30 20 l-30 0 0 -85z"/>
<path d="M610 1286 l0 -86 30 0 c32 0 42 23 15 33 -10 4 -15 25 -17 68 -2 39
-8 64 -15 67 -10 3 -13 -18 -13 -82z"/>
<path d="M691 1356 c-19 -23 -10 -136 12 -150 33 -21 52 4 55 73 3 66 -7 91
-38 91 -10 0 -23 -6 -29 -14z m39 -77 c0 -31 -4 -48 -10 -44 -11 7 -13 54 -4
79 10 27 14 18 14 -35z"/>
<path d="M791 1356 c-7 -9 -11 -41 -9 -83 3 -64 5 -68 27 -71 35 -5 51 22 51
84 0 71 -37 108 -69 70z m39 -71 c0 -24 -4 -47 -10 -50 -6 -4 -10 15 -10 50 0
35 4 54 10 50 6 -3 10 -26 10 -50z"/>
<path d="M870 1285 c0 -69 3 -85 15 -85 10 0 15 10 15 29 0 17 5 33 10 36 6 4
10 -8 10 -29 0 -25 5 -36 15 -36 11 0 14 16 13 78 0 82 -6 92 -50 92 l-28 0 0
-85z"/>
<path d="M1010 1285 l0 -85 28 0 c42 0 52 17 52 85 0 68 -10 85 -52 85 l-28 0
0 -85z m50 -6 c0 -27 -4 -49 -10 -49 -5 0 -10 25 -10 56 0 34 4 53 10 49 6 -3
10 -28 10 -56z"/>
<path d="M1100 1364 c0 -3 7 -33 15 -65 9 -33 14 -67 13 -76 -2 -10 4 -19 13
-21 13 -2 17 9 22 60 3 35 9 73 13 86 5 16 2 22 -10 22 -9 0 -16 -7 -16 -15 0
-8 -4 -15 -10 -15 -5 0 -10 7 -10 15 0 8 -7 15 -15 15 -8 0 -15 -3 -15 -6z"/>
<path d="M1190 1285 c0 -69 3 -85 15 -85 10 0 15 11 15 35 0 19 5 35 10 35 6
0 10 -16 10 -35 0 -24 5 -35 15 -35 12 0 15 14 14 68 -1 94 -4 102 -45 102
l-34 0 0 -85z"/>
<path d="M1287 1363 c-4 -3 -7 -42 -7 -85 l0 -78 35 0 c29 0 37 5 46 28 14 35
6 122 -12 133 -17 10 -53 12 -62 2z m40 -105 c-2 -18 -4 -6 -4 27 0 33 2 48 4
33 2 -15 2 -42 0 -60z"/>
<path d="M1427 1363 c-4 -3 -7 -42 -7 -85 l0 -78 34 0 c38 0 46 7 46 42 0 95
-1 113 -12 120 -16 9 -52 10 -61 1z m40 -55 c-3 -7 -5 -2 -5 12 0 14 2 19 5
13 2 -7 2 -19 0 -25z m0 -65 c-3 -10 -5 -4 -5 12 0 17 2 24 5 18 2 -7 2 -21 0
-30z"/>
<path d="M1522 1288 c3 -82 3 -83 30 -86 19 -2 30 3 38 18 15 27 9 142 -7 148
-10 3 -13 -14 -13 -62 0 -87 -18 -96 -22 -10 -2 44 -7 69 -16 72 -10 3 -12
-15 -10 -80z"/>
<path d="M1610 1285 c0 -69 3 -85 15 -85 12 0 15 16 15 85 0 69 -3 85 -15 85
-12 0 -15 -16 -15 -85z"/>
<path d="M1659 1363 c0 -4 -1 -42 -1 -83 l0 -75 31 -3 c23 -2 31 1 31 12 0 9
-7 16 -15 16 -11 0 -15 16 -17 67 -2 42 -8 68 -15 71 -7 2 -13 0 -14 -5z"/>
<path d="M1730 1284 l0 -85 38 3 37 3 3 68 c3 78 -6 97 -49 97 l-29 0 0 -86z
m50 -4 c0 -27 -4 -50 -10 -50 -5 0 -10 23 -10 50 0 28 5 50 10 50 6 0 10 -22
10 -50z"/>
<path d="M1827 1343 c-3 -15 -5 -53 -4 -83 2 -41 6 -55 17 -55 12 0 15 15 15
79 0 51 -4 81 -12 83 -6 2 -13 -9 -16 -24z"/>
<path d="M1870 1286 c0 -70 3 -86 15 -86 10 0 15 11 16 33 l1 32 9 -32 c5 -18
16 -33 24 -33 12 0 15 17 15 85 0 69 -3 85 -15 85 -10 0 -15 -11 -16 -32 l-1
-33 -7 30 c-3 17 -14 31 -24 33 -15 3 -17 -6 -17 -82z"/>
<path d="M1982 1361 c-9 -5 -12 -29 -10 -82 l3 -74 38 -2 38 -1 -3 46 c-2 37
-7 48 -22 50 -16 4 -18 0 -13 -27 4 -16 2 -33 -3 -36 -6 -4 -10 17 -10 51 0
53 1 56 14 38 20 -27 43 -6 27 25 -12 22 -36 27 -59 12z"/>
<path d="M2110 1245 c0 -8 2 -15 4 -15 2 0 6 7 10 15 3 8 1 15 -4 15 -6 0 -10
-7 -10 -15z"/>
<path d="M586 1148 c-23 -13 -20 -46 9 -80 26 -31 32 -48 15 -48 -5 0 -10 7
-10 15 0 8 -7 15 -15 15 -20 0 -19 -34 1 -54 18 -19 20 -19 45 -6 27 15 24 56
-7 97 -23 31 -22 47 3 22 13 -13 25 3 17 24 -7 19 -37 27 -58 15z"/>
<path d="M660 1135 c0 -8 5 -15 10 -15 6 0 10 -30 10 -70 0 -56 3 -70 15 -70
12 0 15 14 15 70 0 40 4 70 10 70 6 0 10 7 10 15 0 10 -11 15 -35 15 -24 0
-35 -5 -35 -15z"/>
<path d="M742 1069 c2 -55 7 -84 16 -87 8 -2 12 9 12 38 0 25 4 39 10 35 6 -3
10 -22 10 -41 0 -23 5 -34 15 -34 12 0 14 15 12 83 l-2 82 -38 3 -38 3 3 -82z
m48 36 c0 -8 -4 -15 -10 -15 -5 0 -10 7 -10 15 0 8 5 15 10 15 6 0 10 -7 10
-15z"/>
<path d="M832 1068 l3 -83 33 -3 c27 -3 32 0 32 17 0 12 -7 21 -15 21 -8 0
-15 9 -15 20 0 11 7 20 15 20 8 0 15 5 15 10 0 6 -7 13 -15 16 -8 4 -15 12
-15 20 0 8 7 14 15 14 8 0 15 7 15 15 0 11 -11 15 -35 15 l-36 0 3 -82z"/>
<path d="M916 1119 c-8 -39 -8 -87 0 -116 9 -31 64 -33 64 -3 0 11 -7 20 -15
20 -8 0 -15 9 -15 20 0 11 7 20 15 20 8 0 15 7 15 15 0 8 -7 15 -15 15 -8 0
-15 7 -15 15 0 8 7 15 15 15 8 0 15 5 15 11 0 6 7 4 15 -5 10 -10 15 -35 15
-81 0 -49 3 -66 13 -63 7 3 13 29 15 71 2 37 7 67 12 67 6 0 10 7 10 15 0 12
-14 15 -69 15 l-68 0 -7 -31z"/>
<path d="M1160 1136 c0 -8 5 -18 10 -21 6 -3 10 -36 10 -71 0 -48 3 -65 13
-62 7 3 13 29 15 71 2 37 7 67 12 67 6 0 10 7 10 15 0 10 -11 15 -35 15 -24 0
-35 -5 -35 -14z"/>
<path d="M1245 1093 c-3 -32 -8 -68 -11 -80 -5 -28 15 -41 31 -20 15 21 25 22
25 2 0 -8 7 -15 16 -15 14 0 16 8 10 53 -3 28 -6 67 -6 85 0 29 -3 32 -29 32
-29 0 -30 -2 -36 -57z m32 -40 c-3 -10 -5 -2 -5 17 0 19 2 27 5 18 2 -10 2
-26 0 -35z"/>
<path d="M1336 1135 c-3 -9 -6 -41 -6 -70 0 -62 16 -85 54 -78 23 5 26 10 26
49 0 37 -3 44 -20 44 -16 0 -19 -5 -13 -30 3 -19 1 -30 -6 -30 -7 0 -11 20
-11 50 0 28 5 50 10 50 6 0 10 -4 10 -10 0 -5 7 -10 16 -10 10 0 14 7 12 23
-4 28 -62 38 -72 12z"/>
<path d="M1425 1133 c2 -10 4 -48 4 -85 1 -65 2 -68 26 -68 39 0 55 34 47 105
l-7 60 -37 3 c-31 3 -36 0 -33 -15z m42 -35 c-3 -8 -6 -5 -6 6 -1 11 2 17 5
13 3 -3 4 -12 1 -19z m0 -70 c-3 -7 -5 -2 -5 12 0 14 2 19 5 13 2 -7 2 -19 0
-25z"/>
<path d="M1520 1064 c0 -64 3 -85 13 -82 8 3 13 32 15 86 2 68 0 82 -13 82
-12 0 -15 -15 -15 -86z"/>
<path d="M1562 1068 l3 -83 33 -3 c24 -2 32 1 32 12 0 9 -7 16 -15 16 -12 0
-15 14 -15 70 0 64 -2 70 -20 70 -20 0 -21 -5 -18 -82z"/>
<path d="M1646 1098 c-12 -107 -3 -147 23 -100 9 16 11 16 24 -2 22 -30 29 -5
21 79 -7 73 -7 75 -34 75 -25 0 -28 -4 -34 -52z m44 -46 c0 -7 -4 -10 -10 -7
-5 3 -10 16 -10 28 0 18 2 19 10 7 5 -8 10 -21 10 -28z"/>
<path d="M1740 1064 c0 -64 3 -85 13 -82 6 3 15 22 18 44 l5 39 5 -39 c7 -69
27 -54 31 22 4 97 3 102 -38 102 l-34 0 0 -86z m37 34 c-3 -8 -6 -5 -6 6 -1
11 2 17 5 13 3 -3 4 -12 1 -19z"/>
<path d="M1070 1001 c0 -20 13 -41 21 -35 15 9 10 44 -6 44 -8 0 -15 -4 -15
-9z"/>
<path d="M875 783 c-34 -8 -39 -21 -42 -110 -3 -101 10 -133 55 -133 15 0 33
4 40 8 20 13 32 68 22 103 -6 19 -6 39 0 50 11 20 5 45 -18 72 -15 17 -21 18
-57 10z m28 -57 c6 -15 -1 -26 -15 -26 -4 0 -8 9 -8 20 0 23 15 27 23 6z m2
-106 c0 -13 -6 -25 -12 -27 -9 -3 -13 6 -13 27 0 21 4 30 13 28 6 -3 12 -15
12 -28z"/>
<path d="M1067 773 c-3 -5 -8 -46 -11 -93 -4 -47 -9 -97 -12 -112 -5 -24 -2
-28 16 -28 13 0 24 8 27 20 3 11 11 20 18 20 7 0 15 -9 18 -20 3 -12 14 -20
27 -20 20 0 22 4 17 33 -3 17 -9 71 -13 120 l-6 87 -39 0 c-21 0 -40 -3 -42
-7z m47 -152 c-12 -13 -21 19 -16 54 l6 40 7 -45 c3 -25 5 -47 3 -49z"/>
<path d="M1190 660 c0 -113 1 -120 20 -120 18 0 20 7 21 68 0 73 12 63 24 -22
6 -41 10 -47 29 -44 17 2 23 14 32 63 l11 60 4 -60 c4 -53 7 -60 27 -63 22 -3
22 -2 22 117 l0 121 -39 0 -38 0 -8 -62 c-8 -67 -15 -60 -30 25 -5 34 -8 37
-40 37 l-35 0 0 -120z"/>
<path d="M1470 624 c0 -11 8 -14 32 -12 46 4 49 28 4 28 -26 0 -36 -4 -36 -16z"/>
<path d="M374 457 c-2 -7 -3 -62 -2 -123 3 -94 5 -109 21 -112 15 -3 17 6 18
70 l1 73 17 -70 c13 -57 20 -70 36 -70 16 0 22 11 31 60 l11 60 4 -60 c3 -52
7 -60 24 -60 19 0 20 8 23 118 l3 117 -31 0 c-16 0 -33 0 -37 1 -5 0 -13 -26
-19 -58 -11 -63 -11 -63 -29 35 -5 22 -12 28 -36 30 -17 1 -32 -3 -35 -11z"/>
<path d="M602 454 c-20 -14 -22 -23 -22 -105 0 -76 3 -92 20 -109 25 -25 55
-25 80 0 17 17 20 33 20 109 0 82 -2 91 -22 105 -12 9 -29 16 -38 16 -9 0 -26
-7 -38 -16z m48 -109 c0 -43 -4 -75 -10 -75 -6 0 -10 32 -10 75 0 43 4 75 10
75 6 0 10 -32 10 -75z"/>
<path d="M800 429 c0 -24 -4 -38 -10 -34 -5 3 -10 19 -10 36 0 24 -4 29 -24
29 -13 0 -26 -6 -28 -12 -3 -7 -4 -60 -4 -118 1 -101 2 -105 24 -108 20 -3 22
1 22 40 0 31 3 39 10 28 5 -8 10 -25 10 -36 0 -20 17 -34 41 -34 5 0 9 53 9
119 0 99 -3 120 -16 125 -24 9 -24 9 -24 -35z"/>
<path d="M874 455 c-3 -6 -3 -60 -2 -121 l3 -109 37 -3 c27 -2 43 3 58 18 20
20 22 31 18 112 -2 75 -6 92 -23 104 -22 16 -85 15 -91 -1z m66 -110 c0 -43
-4 -75 -10 -75 -6 0 -10 32 -10 75 0 43 4 75 10 75 6 0 10 -32 10 -75z"/>
<path d="M1036 461 c-6 -9 -26 -177 -26 -218 0 -29 36 -31 45 -3 3 11 13 20
21 20 8 0 14 -9 14 -20 0 -14 7 -20 21 -20 21 0 21 2 14 102 -9 129 -16 148
-54 148 -16 0 -32 -4 -35 -9z m44 -121 c0 -22 -4 -40 -10 -40 -5 0 -10 18 -10
40 0 22 5 40 10 40 6 0 10 -18 10 -40z"/>
<path d="M1150 451 c0 -9 5 -32 11 -51 6 -19 13 -66 17 -105 6 -63 9 -70 30
-73 20 -3 22 0 22 50 0 29 7 78 15 108 8 30 15 63 15 73 0 29 -30 19 -44 -14
l-13 -31 -7 25 c-7 29 -46 45 -46 18z"/>
</g>
</svg>
