<?xml version="1.0" standalone="no"?>
<!DOCTYPE svg PUBLIC "-//W3C//DTD SVG 20010904//EN"
 "http://www.w3.org/TR/2001/REC-SVG-20010904/DTD/svg10.dtd">
<svg version="1.0" xmlns="http://www.w3.org/2000/svg"
 width="126.000000pt" height="102.000000pt" viewBox="0 0 126.000000 102.000000"
 preserveAspectRatio="xMidYMid meet">

<g transform="translate(0.000000,102.000000) scale(0.100000,-0.100000)"
fill="#000000" stroke="none">
<path d="M538 925 c-26 -7 -68 -23 -95 -36 -67 -32 -173 -141 -206 -213 -27
-56 -29 -58 -60 -52 -103 20 -114 19 -131 -5 -9 -13 -16 -31 -16 -40 0 -24 45
-57 89 -65 61 -11 66 -17 80 -98 14 -89 56 -178 105 -225 35 -34 36 -34 56
-16 20 18 21 18 48 -8 15 -14 54 -38 87 -54 54 -25 71 -28 165 -28 94 0 111 3
161 28 80 39 140 96 179 169 19 35 51 85 72 111 l38 49 -31 44 c-16 24 -36 66
-43 93 -11 42 -39 98 -78 153 -10 13 -9 21 5 36 17 18 16 21 -22 55 -106 96
-273 138 -403 102z m228 -203 c22 -11 46 -28 54 -37 12 -14 14 -14 31 1 10 9
25 14 34 11 14 -6 55 -64 55 -79 0 -4 -26 5 -57 19 -46 21 -77 27 -158 31
-117 5 -181 -10 -269 -63 -61 -36 -68 -32 -33 19 76 112 230 156 343 98z m-70
-103 c74 3 124 -28 149 -94 16 -39 16 -51 5 -88 -15 -50 -66 -102 -111 -111
-46 -9 -105 10 -147 49 -35 31 -37 37 -37 94 0 51 -3 61 -17 61 -15 0 -18 -10
-18 -63 0 -65 20 -107 67 -142 25 -19 2 -19 -44 0 -52 22 -135 87 -155 122
-17 29 -17 31 6 62 35 48 107 99 167 121 50 17 55 18 66 3 10 -13 27 -16 69
-14z m193 -12 c51 -24 141 -106 141 -129 0 -29 -80 -106 -142 -137 -72 -36
-103 -41 -64 -10 85 67 87 203 4 281 -31 29 -32 30 -8 23 14 -4 45 -16 69 -28z
m-352 -353 c93 -32 236 -37 315 -11 l48 15 -15 -21 c-25 -36 -94 -75 -153 -88
-100 -20 -208 5 -280 66 -31 26 -32 28 -16 46 9 11 19 19 20 19 2 0 39 -12 81
-26z"/>
<path d="M670 571 c0 -6 12 -35 26 -63 16 -31 21 -49 12 -45 -7 2 -37 14 -65
26 l-53 21 0 -40 c0 -30 7 -48 29 -72 25 -28 36 -33 76 -33 40 0 51 5 76 33
58 65 23 165 -63 179 -26 4 -38 2 -38 -6z"/>
</g>
</svg>
