<?xml version="1.0" standalone="no"?>
<!DOCTYPE svg PUBLIC "-//W3C//DTD SVG 20010904//EN"
 "http://www.w3.org/TR/2001/REC-SVG-20010904/DTD/svg10.dtd">
<svg version="1.0" xmlns="http://www.w3.org/2000/svg"
 width="1654.000000pt" height="1654.000000pt" viewBox="0 0 1654.000000 1654.000000"
 preserveAspectRatio="xMidYMid meet">

<g transform="translate(0.000000,1654.000000) scale(0.100000,-0.100000)"
fill="#000000" stroke="none">
<path d="M8195 12813 c-101 -6 -241 -25 -289 -39 -27 -7 -131 -27 -230 -44
-188 -31 -217 -38 -277 -64 -20 -8 -79 -25 -130 -36 -52 -11 -121 -33 -155
-50 -33 -16 -95 -38 -136 -49 -42 -11 -98 -34 -124 -50 -27 -17 -86 -42 -130
-56 -45 -14 -97 -38 -117 -53 -20 -16 -57 -37 -84 -47 -26 -10 -68 -32 -93
-50 -25 -18 -62 -38 -82 -44 -21 -7 -66 -32 -100 -55 -35 -24 -79 -48 -99 -55
-19 -6 -51 -27 -70 -47 -19 -20 -59 -48 -89 -64 -30 -15 -64 -38 -75 -50 -11
-12 -39 -33 -63 -47 -23 -14 -47 -34 -53 -44 -5 -10 -26 -27 -47 -38 -20 -10
-46 -29 -57 -41 -11 -13 -44 -40 -73 -62 -56 -41 -388 -371 -482 -478 -30 -34
-76 -85 -101 -114 -26 -28 -54 -66 -63 -84 -9 -18 -26 -38 -37 -45 -11 -6 -29
-28 -39 -48 -10 -19 -35 -55 -55 -79 -20 -24 -46 -62 -57 -84 -11 -23 -33 -55
-50 -72 -16 -17 -43 -60 -59 -95 -17 -35 -39 -73 -49 -84 -11 -11 -30 -45 -43
-76 -14 -30 -32 -61 -42 -69 -21 -17 -42 -58 -66 -128 -10 -30 -33 -75 -49
-101 -17 -25 -38 -70 -46 -101 -8 -30 -32 -91 -54 -135 -21 -44 -44 -104 -51
-134 -6 -29 -23 -67 -38 -85 -15 -17 -35 -43 -44 -58 -37 -60 -152 -88 -276
-69 -113 17 -186 37 -256 70 -33 16 -104 38 -157 50 -62 14 -112 33 -140 51
-51 34 -262 80 -367 80 -101 0 -270 -39 -294 -68 -14 -18 -24 -740 -12 -928
l7 -111 61 -17 c34 -10 82 -30 107 -46 33 -21 76 -34 160 -50 69 -13 131 -31
155 -45 53 -30 96 -41 244 -60 69 -9 148 -25 175 -36 28 -11 96 -31 150 -44
97 -23 101 -25 148 -77 83 -91 78 -73 94 -340 10 -163 21 -271 35 -328 11 -46
29 -154 39 -238 24 -183 24 -184 60 -292 16 -47 40 -139 55 -205 15 -66 35
-134 46 -151 10 -17 28 -69 40 -115 11 -45 35 -112 54 -148 18 -36 43 -97 55
-136 12 -38 34 -86 49 -105 15 -19 40 -67 55 -106 15 -40 36 -80 48 -90 11
-11 33 -44 48 -75 16 -31 40 -69 53 -85 13 -16 36 -51 50 -79 13 -27 35 -59
47 -70 12 -11 37 -47 56 -81 19 -33 43 -69 55 -80 12 -10 32 -40 45 -66 13
-26 36 -55 50 -64 14 -10 33 -33 44 -53 10 -20 33 -50 52 -67 18 -18 56 -58
85 -90 155 -176 238 -262 274 -283 40 -23 40 -23 80 -5 22 10 77 53 122 97 45
44 100 91 122 106 22 14 53 39 69 54 16 15 37 27 48 27 40 0 96 -34 168 -103
105 -101 147 -137 218 -191 34 -26 62 -51 62 -55 0 -4 22 -20 48 -34 26 -14
57 -36 68 -48 10 -12 48 -36 84 -54 36 -18 76 -44 89 -58 13 -14 49 -36 80
-48 31 -13 75 -38 98 -55 23 -18 59 -38 80 -44 21 -7 68 -30 105 -52 37 -22
93 -46 125 -55 32 -8 81 -27 108 -43 28 -16 95 -40 150 -55 55 -15 109 -32
120 -39 33 -21 114 -44 234 -66 62 -12 134 -29 160 -40 260 -102 1450 -105
1690 -4 20 9 103 31 184 49 82 19 163 43 180 54 18 10 77 31 132 45 55 15 116
38 135 51 20 14 69 36 110 50 40 14 96 40 124 59 28 19 75 42 104 51 30 10 68
30 85 45 18 15 54 37 81 49 26 11 64 35 83 51 19 17 58 42 86 54 29 13 63 36
77 51 14 14 39 32 55 39 17 7 52 32 79 55 26 23 65 50 86 61 21 11 48 32 60
47 12 15 38 39 58 53 44 30 67 51 239 223 204 203 210 210 226 242 8 17 25 39
37 50 13 11 39 45 58 75 19 30 47 69 62 85 15 17 39 51 53 76 15 26 33 49 42
53 9 3 29 35 45 72 17 36 45 84 64 106 19 22 38 53 41 69 4 16 24 53 46 82 23
30 48 80 59 118 11 37 28 77 39 90 31 41 49 82 61 147 7 35 24 80 38 100 13
20 33 68 44 107 20 73 19 71 154 209 28 28 54 62 58 74 4 12 21 29 37 37 16 9
38 34 50 56 11 22 33 48 49 57 16 9 35 31 44 48 8 18 35 55 60 83 25 28 55 69
65 90 11 21 32 46 46 55 15 10 33 33 41 51 7 18 27 44 44 57 21 17 42 52 65
108 19 45 41 93 49 105 14 21 14 25 -1 37 -9 7 -28 41 -44 75 -15 33 -43 79
-63 101 -20 22 -45 60 -56 86 -12 25 -30 50 -40 56 -11 6 -31 33 -45 60 -13
26 -41 66 -60 87 -20 21 -47 58 -60 83 -13 25 -33 51 -45 58 -12 7 -30 32 -40
55 -11 23 -35 54 -54 70 -38 30 -58 80 -75 192 -19 123 -91 441 -110 486 -11
26 -34 100 -51 165 -17 67 -41 133 -54 154 -14 19 -35 71 -47 114 -12 45 -36
101 -54 128 -18 26 -41 70 -50 97 -9 27 -29 66 -45 86 -16 20 -41 67 -55 106
-15 38 -35 75 -46 82 -10 8 -35 45 -55 82 -19 38 -51 86 -70 107 -19 21 -34
42 -34 48 0 14 -144 179 -237 273 -23 23 -53 66 -68 96 -23 46 -26 62 -21 104
11 83 17 90 239 294 l68 62 -21 50 c-17 37 -52 78 -145 168 -158 151 -236 219
-269 234 -14 7 -33 23 -41 36 -9 12 -34 35 -58 50 -23 14 -50 37 -60 50 -11
13 -40 34 -66 48 -26 13 -67 40 -92 61 -24 20 -58 43 -74 50 -17 7 -42 24 -57
38 -14 14 -54 39 -90 55 -35 16 -84 46 -107 65 -24 20 -49 36 -57 36 -20 0
-94 38 -119 61 -11 10 -52 31 -90 47 -39 15 -87 40 -109 55 -21 15 -71 37
-110 48 -39 12 -89 34 -111 50 -23 16 -75 37 -121 48 -45 12 -110 34 -145 50
-35 17 -111 41 -169 54 -58 14 -131 34 -164 46 -32 12 -115 31 -185 42 -69 11
-189 33 -266 49 -77 17 -189 34 -250 40 -98 9 -581 11 -710 3z m785 -1903 c47
-6 114 -20 150 -30 36 -11 120 -30 187 -44 83 -16 139 -33 175 -54 29 -16 85
-39 125 -51 39 -12 84 -32 100 -45 16 -13 57 -36 91 -50 35 -14 79 -39 98 -56
19 -16 51 -37 71 -45 19 -8 50 -28 69 -44 18 -16 55 -42 81 -57 26 -15 65 -44
85 -63 20 -20 64 -61 98 -91 33 -30 78 -72 99 -92 44 -44 51 -45 76 -18 11 12
36 31 57 42 21 12 50 39 64 60 15 21 31 38 36 38 5 0 33 24 61 54 36 37 67 58
101 70 46 15 53 15 104 -1 48 -15 71 -34 178 -140 68 -67 124 -126 124 -131 0
-5 21 -36 46 -68 25 -33 54 -77 64 -99 10 -22 31 -54 46 -72 16 -17 40 -60 53
-95 13 -35 37 -83 53 -108 30 -47 31 -68 2 -138 l-13 -33 -28 20 c-15 10 -52
25 -81 31 -32 7 -68 25 -91 44 -23 19 -65 40 -100 50 -33 9 -84 33 -112 52
-31 20 -79 41 -116 50 -83 19 -114 31 -140 56 -14 13 -59 28 -133 43 -70 15
-131 35 -164 54 -51 28 -73 33 -276 61 -41 6 -98 22 -127 36 -66 32 -128 42
-338 54 -93 5 -267 17 -385 26 -220 17 -386 15 -650 -6 -69 -6 -221 -17 -338
-25 -201 -14 -217 -17 -275 -45 -47 -22 -97 -35 -201 -50 -116 -17 -148 -25
-185 -49 -32 -20 -84 -37 -165 -55 -80 -17 -127 -33 -142 -47 -21 -19 -131
-59 -166 -59 -9 0 -35 -16 -58 -35 -26 -21 -69 -43 -112 -56 -38 -12 -82 -32
-98 -45 -32 -27 -107 -63 -132 -64 -9 0 -37 -18 -62 -39 -25 -21 -66 -47 -93
-57 -26 -9 -60 -30 -74 -44 -14 -15 -47 -37 -74 -49 -26 -11 -65 -37 -86 -56
-21 -19 -60 -45 -86 -59 -26 -13 -54 -34 -61 -46 -7 -12 -30 -29 -51 -38 -21
-10 -54 -34 -73 -55 -39 -41 -70 -47 -117 -22 -35 18 -43 35 -25 59 7 10 18
42 24 70 6 28 22 69 35 91 14 22 41 73 60 113 20 40 45 82 55 92 11 11 33 45
49 77 16 32 41 69 56 83 15 14 34 39 42 55 9 17 33 50 55 75 21 25 75 87 120
138 88 102 363 356 396 366 11 4 27 18 36 31 9 14 40 37 68 51 29 15 68 39 88
55 19 15 62 40 94 54 33 15 72 37 88 50 15 13 56 33 92 45 36 12 75 29 88 39
39 31 68 43 172 71 56 15 128 39 161 53 38 16 105 32 180 42 66 9 156 25 201
35 78 18 202 36 294 43 110 8 403 6 480 -3z m-661 -1037 c70 -46 73 -50 101
-137 14 -44 32 -77 47 -89 13 -11 35 -37 49 -58 22 -36 26 -38 51 -28 16 6 35
17 44 25 37 33 146 49 484 69 121 8 459 -19 527 -41 26 -8 57 -23 70 -33 13
-10 55 -28 94 -39 48 -15 82 -33 108 -57 20 -19 57 -43 81 -54 24 -11 50 -29
57 -41 7 -12 30 -31 51 -41 48 -25 233 -203 254 -244 9 -16 30 -42 48 -57 18
-15 38 -42 45 -60 8 -18 28 -47 45 -64 21 -21 40 -57 55 -103 12 -40 31 -76
40 -81 26 -14 47 -76 65 -190 9 -55 26 -122 38 -148 20 -43 22 -63 22 -237 0
-175 -2 -194 -22 -240 -13 -27 -29 -91 -37 -142 -20 -125 -33 -167 -60 -200
-13 -15 -33 -59 -46 -98 -13 -40 -35 -82 -51 -98 -16 -15 -37 -47 -47 -70 -11
-23 -34 -58 -52 -77 -18 -19 -48 -58 -66 -87 -19 -28 -43 -54 -54 -58 -11 -4
-31 -22 -44 -41 -13 -19 -44 -48 -70 -64 -26 -17 -49 -36 -52 -44 -7 -18 -69
-59 -112 -74 -18 -6 -44 -24 -57 -40 -15 -17 -50 -38 -87 -52 -34 -12 -78 -35
-98 -50 -45 -36 -47 -36 -225 -60 -83 -10 -175 -26 -205 -35 -79 -22 -235 -20
-318 5 -37 11 -124 26 -193 35 -144 17 -184 28 -220 62 -15 13 -53 31 -85 39
-73 20 -110 39 -124 63 -5 11 -32 27 -58 35 -27 9 -73 37 -102 62 -29 25 -67
51 -86 59 -18 7 -40 27 -48 44 -9 16 -32 38 -52 47 -21 10 -42 31 -52 51 -9
18 -19 33 -24 33 -14 0 -78 62 -78 75 0 8 -15 26 -34 42 -18 15 -47 55 -64 88
-16 33 -43 77 -60 97 -17 22 -37 66 -48 105 -9 38 -28 87 -41 110 -30 52 -49
159 -58 323 -11 201 20 492 56 536 6 7 13 37 16 67 l6 54 -49 12 c-73 16 -174
31 -217 31 -29 0 -40 -5 -47 -22 -9 -21 -40 -190 -77 -418 -18 -113 -13 -233
17 -404 11 -65 27 -170 35 -232 17 -139 29 -186 55 -209 10 -9 31 -53 46 -97
14 -44 35 -88 46 -97 11 -9 33 -42 49 -73 16 -31 46 -74 67 -95 21 -21 49 -54
63 -73 13 -19 39 -48 56 -64 18 -15 36 -38 39 -51 3 -12 21 -29 39 -38 19 -9
45 -32 57 -52 13 -19 31 -38 41 -41 11 -3 43 -28 73 -55 29 -27 75 -59 102
-73 62 -31 74 -47 70 -88 -5 -49 -33 -58 -141 -47 -86 9 -164 34 -197 64 -9 8
-54 22 -100 31 -86 16 -114 27 -175 68 -20 14 -58 29 -86 35 -61 13 -85 25
-124 61 -16 15 -52 35 -80 44 -27 9 -67 30 -88 47 -20 17 -62 41 -92 54 -30
14 -60 34 -67 45 -7 12 -44 36 -83 54 -38 18 -80 45 -92 59 -12 14 -40 35 -62
47 -22 11 -47 33 -55 48 -8 15 -32 35 -56 46 -23 10 -50 31 -58 46 -9 16 -31
36 -50 44 -18 9 -42 32 -53 51 -11 19 -29 37 -40 40 -25 8 -246 230 -264 266
-8 14 -26 34 -40 43 -15 10 -35 37 -46 60 -10 24 -29 47 -43 54 -14 6 -36 33
-50 59 -14 26 -36 58 -50 71 -14 13 -39 51 -56 85 -17 34 -40 71 -51 83 -33
36 -36 92 -5 134 14 19 37 59 52 88 14 28 42 69 61 90 19 20 43 54 54 74 11
21 31 45 45 55 15 9 33 32 40 50 8 17 30 45 49 60 20 15 43 43 52 62 9 18 30
41 46 51 16 10 38 32 48 49 10 17 33 40 50 50 17 10 40 33 50 50 10 17 34 38
51 47 18 9 42 30 53 47 11 18 37 41 57 52 20 11 41 30 47 42 6 12 30 32 53 44
24 12 53 34 65 49 13 15 44 40 70 55 27 15 62 40 78 56 17 15 52 38 78 49 27
12 61 34 75 50 15 15 52 38 82 50 30 12 69 35 87 50 17 16 56 35 86 44 29 9
70 29 90 44 41 33 60 41 163 71 39 11 77 28 84 36 21 26 45 35 142 55 55 12
106 30 128 44 46 32 73 42 140 50 106 13 165 28 205 52 53 32 68 30 134 -13z
m1997 -94 c13 -12 53 -25 110 -35 117 -20 154 -32 184 -60 16 -14 53 -29 100
-40 79 -17 107 -29 165 -69 20 -13 62 -31 93 -40 31 -9 73 -29 93 -45 20 -16
67 -41 103 -56 37 -14 73 -35 80 -46 7 -10 44 -34 82 -52 38 -18 78 -43 89
-56 11 -12 41 -33 67 -46 26 -13 54 -34 63 -47 8 -13 32 -31 52 -40 21 -9 61
-37 88 -63 28 -26 61 -54 75 -63 14 -9 44 -33 65 -54 134 -126 191 -184 200
-201 6 -11 25 -30 43 -42 18 -12 47 -43 65 -68 40 -57 100 -132 153 -196 23
-26 47 -64 53 -82 6 -19 25 -44 41 -56 31 -23 60 -99 60 -158 0 -47 -27 -115
-60 -149 -16 -16 -38 -51 -49 -77 -11 -26 -31 -54 -46 -64 -14 -9 -32 -32 -40
-50 -8 -19 -34 -55 -58 -81 -24 -27 -56 -67 -70 -90 -15 -23 -36 -47 -47 -53
-11 -6 -29 -28 -40 -49 -10 -21 -35 -48 -55 -60 -19 -11 -38 -29 -42 -38 -9
-26 -44 -63 -60 -63 -7 0 -26 -18 -41 -39 -15 -22 -40 -47 -57 -57 -28 -16
-54 -40 -161 -144 -22 -22 -66 -53 -97 -68 -31 -16 -66 -41 -77 -55 -12 -15
-39 -32 -60 -38 -21 -7 -56 -29 -78 -49 -23 -22 -64 -47 -100 -60 -35 -13 -68
-32 -76 -45 -10 -15 -43 -32 -98 -51 -49 -16 -90 -36 -100 -49 -21 -27 -51
-39 -142 -60 -37 -8 -81 -24 -97 -35 -47 -34 -91 -48 -185 -60 -52 -7 -110
-21 -139 -35 -93 -44 -104 -47 -161 -35 -28 6 -59 19 -68 29 -16 18 -14 21 44
56 36 22 71 53 85 75 15 24 38 43 64 53 25 11 46 28 56 47 9 16 32 38 53 48
20 9 43 29 50 44 7 15 29 40 48 54 19 15 42 40 50 56 8 16 30 38 49 49 21 13
38 33 45 55 7 19 30 58 52 86 23 28 50 74 60 102 11 27 32 64 47 82 17 19 35
59 46 100 10 38 33 98 51 134 66 134 90 459 59 812 -17 193 -28 251 -55 286
-19 23 -60 143 -60 174 0 8 -17 41 -38 74 -22 32 -47 82 -56 110 -9 29 -30 63
-46 78 -16 14 -43 53 -60 86 -16 33 -41 67 -54 75 -14 9 -34 35 -45 57 -11 22
-34 49 -51 59 -17 11 -40 35 -51 54 -11 19 -29 37 -40 40 -10 4 -36 26 -56 50
-20 24 -49 49 -64 55 -15 7 -54 40 -86 73 -32 34 -71 72 -88 84 -27 19 -28 23
-15 37 19 20 118 36 145 23 11 -5 29 -18 41 -28z m-3486 -3581 c24 -10 52 -27
62 -38 9 -10 43 -26 75 -35 82 -22 112 -35 142 -60 14 -12 64 -31 111 -44 47
-12 108 -36 137 -51 30 -17 99 -40 165 -55 62 -14 134 -37 160 -50 33 -17 90
-32 180 -46 129 -20 222 -43 244 -60 18 -14 105 -27 299 -44 99 -9 252 -28
340 -42 145 -24 191 -27 486 -31 326 -3 326 -3 505 27 99 17 249 37 334 46
197 19 218 23 257 47 18 11 97 33 175 49 91 19 165 40 203 59 33 17 86 35 117
40 31 6 96 24 143 40 48 16 91 27 96 24 13 -8 11 -37 -5 -59 -7 -11 -19 -38
-26 -59 -14 -43 -210 -268 -300 -346 -29 -25 -71 -61 -94 -81 -22 -20 -55 -44
-73 -53 -18 -9 -37 -25 -43 -36 -6 -11 -34 -32 -63 -46 -29 -15 -68 -41 -89
-58 -20 -17 -59 -40 -87 -50 -28 -10 -67 -31 -86 -46 -20 -16 -66 -39 -103
-51 -37 -12 -80 -32 -97 -44 -49 -36 -67 -43 -156 -60 -46 -9 -115 -32 -154
-51 -60 -28 -94 -36 -229 -54 -87 -11 -201 -32 -254 -45 -226 -59 -727 -54
-1027 10 -39 8 -144 24 -235 35 -141 18 -175 25 -235 54 -38 18 -108 41 -155
50 -55 12 -104 29 -140 51 -30 18 -85 42 -123 53 -39 12 -82 33 -102 50 -19
17 -59 39 -90 48 -31 10 -73 32 -93 50 -20 17 -56 41 -79 52 -87 45 -254 177
-369 292 -137 138 -161 165 -191 216 l-31 51 32 69 c18 38 44 77 58 86 36 24
168 155 168 167 0 18 47 42 97 50 56 9 81 6 143 -21z"/>
<path d="M8905 9193 c-84 -12 -104 -22 -115 -61 -5 -20 -10 -41 -10 -47 0 -28
63 -172 85 -195 15 -15 35 -55 46 -90 10 -34 32 -78 49 -98 16 -20 40 -66 51
-102 12 -36 33 -80 47 -97 13 -18 37 -65 53 -104 16 -39 40 -84 54 -101 14
-16 35 -62 47 -101 11 -40 32 -87 46 -105 24 -31 24 -33 7 -52 -28 -31 -120
-28 -165 5 -19 14 -71 36 -116 50 -46 14 -96 36 -112 50 -16 13 -60 32 -98 41
-72 18 -133 44 -172 75 -13 10 -49 23 -80 29 -72 15 -121 35 -148 61 -12 11
-57 30 -100 41 -44 11 -101 32 -129 48 -63 35 -100 44 -113 27 -15 -18 -29
-99 -43 -239 -20 -203 13 -460 69 -536 16 -23 37 -66 46 -96 10 -30 30 -68 45
-83 15 -15 39 -46 54 -69 42 -62 196 -208 247 -234 25 -12 54 -33 65 -45 12
-15 48 -32 95 -45 41 -12 93 -32 115 -45 66 -38 142 -47 361 -43 l200 3 60 31
c32 17 86 39 119 48 84 24 113 36 118 51 3 7 25 23 49 37 72 40 214 166 254
227 21 31 50 68 65 84 15 15 30 40 34 55 3 15 24 57 46 94 82 135 105 422 60
736 -12 78 -27 118 -66 171 -14 19 -30 52 -36 73 -5 22 -25 56 -43 76 -17 20
-47 57 -64 82 -43 59 -181 184 -234 211 -24 12 -54 34 -68 48 -17 18 -48 33
-95 45 -38 10 -99 31 -135 46 -36 16 -100 33 -143 39 -75 11 -239 13 -302 4z"/>
</g>
</svg>
