<?xml version="1.0" standalone="no"?>
<!DOCTYPE svg PUBLIC "-//W3C//DTD SVG 20010904//EN"
 "http://www.w3.org/TR/2001/REC-SVG-20010904/DTD/svg10.dtd">
<svg version="1.0" xmlns="http://www.w3.org/2000/svg"
 width="29.000000pt" height="25.000000pt" viewBox="0 0 29.000000 25.000000"
 preserveAspectRatio="xMidYMid meet">

<g transform="translate(0.000000,25.000000) scale(0.100000,-0.100000)"
fill="#000000" stroke="none">
<path d="M106 228 c-9 -12 -16 -29 -16 -38 0 -27 30 -60 55 -60 43 0 62 72 27
103 -25 23 -48 21 -66 -5z"/>
<path d="M17 196 c-14 -35 21 -67 43 -41 6 8 10 22 8 32 -4 23 -43 29 -51 9z"/>
<path d="M217 204 c-11 -12 -8 -41 6 -53 19 -15 50 9 45 35 -3 19 -38 31 -51
18z"/>
<path d="M12 118 c-20 -20 -15 -58 8 -58 20 0 55 52 43 64 -10 10 -38 7 -51
-6z"/>
<path d="M218 124 c-12 -11 24 -64 43 -64 22 0 27 38 7 58 -13 13 -41 16 -50
6z"/>
<path d="M75 90 c-10 -11 -15 -31 -13 -52 l3 -33 71 -3 c82 -3 100 8 89 57 -8
39 -17 44 -82 46 -39 2 -56 -2 -68 -15z"/>
</g>
</svg>
